<svg width="32" height="32" viewBox="0 0 32 32" fill="none" xmlns="http://www.w3.org/2000/svg">
<path d="M16 0.75C24.4223 0.75 31.25 7.57766 31.25 16C31.25 24.4223 24.4223 31.25 16 31.25C7.57766 31.25 0.75 24.4223 0.75 16C0.75 7.57766 7.57766 0.75 16 0.75Z" stroke="#D62381" stroke-width="1.5"/>
<path d="M7.35159 17.131H8.43159C8.45292 17.3123 8.53559 17.4777 8.67959 17.627C8.82892 17.771 9.02359 17.8857 9.26359 17.971C9.50359 18.051 9.77292 18.091 10.0716 18.091C10.3436 18.091 10.5676 18.0617 10.7436 18.003C10.9196 17.9443 11.0503 17.8617 11.1356 17.755C11.2209 17.6483 11.2636 17.5203 11.2636 17.371C11.2636 17.227 11.2103 17.1177 11.1036 17.043C10.9969 16.963 10.8289 16.899 10.5996 16.851C10.3703 16.7977 10.0689 16.7443 9.69559 16.691C9.40226 16.6483 9.12492 16.5897 8.86359 16.515C8.60226 16.435 8.37026 16.3337 8.16759 16.211C7.97026 16.0883 7.81292 15.939 7.69559 15.763C7.58359 15.5817 7.52759 15.3683 7.52759 15.123C7.52759 14.819 7.61292 14.5523 7.78359 14.323C7.95959 14.0937 8.21826 13.915 8.55959 13.787C8.90092 13.659 9.31959 13.595 9.81559 13.595C10.5623 13.595 11.1356 13.755 11.5356 14.075C11.9409 14.3897 12.1383 14.8243 12.1276 15.379H11.0876C11.0663 15.0643 10.9329 14.8377 10.6876 14.699C10.4476 14.5603 10.1436 14.491 9.77559 14.491C9.43426 14.491 9.15159 14.5417 8.92759 14.643C8.70892 14.7443 8.59959 14.9177 8.59959 15.163C8.59959 15.259 8.62626 15.3443 8.67959 15.419C8.73292 15.4883 8.82359 15.5497 8.95159 15.603C9.07959 15.6563 9.25292 15.707 9.47159 15.755C9.69026 15.803 9.96226 15.851 10.2876 15.899C10.5916 15.9417 10.8663 16.0003 11.1116 16.075C11.3623 16.1443 11.5756 16.2377 11.7516 16.355C11.9329 16.467 12.0716 16.611 12.1676 16.787C12.2636 16.963 12.3116 17.179 12.3116 17.435C12.3116 17.7497 12.2289 18.0243 12.0636 18.259C11.9036 18.4883 11.6529 18.667 11.3116 18.795C10.9756 18.923 10.5383 18.987 9.99959 18.987C9.61559 18.987 9.27692 18.947 8.98359 18.867C8.69026 18.7817 8.43692 18.6697 8.22359 18.531C8.01026 18.3923 7.83692 18.2403 7.70359 18.075C7.57026 17.9097 7.47426 17.7443 7.41559 17.579C7.36226 17.4137 7.34092 17.2643 7.35159 17.131ZM16.2263 18.979C15.7463 18.979 15.3116 18.923 14.9223 18.811C14.5383 18.699 14.2049 18.531 13.9223 18.307C13.6449 18.083 13.4316 17.8057 13.2823 17.475C13.1329 17.1443 13.0583 16.763 13.0583 16.331C13.0583 15.8937 13.1356 15.507 13.2903 15.171C13.4503 14.8297 13.6743 14.5417 13.9623 14.307C14.2556 14.0723 14.6023 13.8963 15.0023 13.779C15.4076 13.6563 15.8556 13.595 16.3463 13.595C16.9276 13.595 17.4289 13.6777 17.8503 13.843C18.2716 14.003 18.6023 14.2297 18.8423 14.523C19.0876 14.8163 19.2263 15.1657 19.2583 15.571H18.2343C18.1649 15.3577 18.0503 15.1737 17.8903 15.019C17.7356 14.859 17.5303 14.7363 17.2743 14.651C17.0183 14.5603 16.7089 14.515 16.3463 14.515C15.8823 14.515 15.4849 14.5897 15.1543 14.739C14.8289 14.8883 14.5809 15.099 14.4103 15.371C14.2396 15.643 14.1543 15.963 14.1543 16.331C14.1543 16.6883 14.2289 16.9977 14.3783 17.259C14.5276 17.515 14.7569 17.7123 15.0663 17.851C15.3809 17.9897 15.7809 18.059 16.2663 18.059C16.6396 18.059 16.9676 18.011 17.2503 17.915C17.5383 17.8137 17.7783 17.6803 17.9703 17.515C18.1623 17.3443 18.2983 17.155 18.3783 16.947L18.7943 16.795C18.7249 17.483 18.4636 18.019 18.0103 18.403C17.5623 18.787 16.9676 18.979 16.2263 18.979ZM18.5223 18.875C18.5223 18.7097 18.5329 18.5203 18.5543 18.307C18.5756 18.0883 18.6023 17.8697 18.6343 17.651C18.6663 17.427 18.6956 17.2217 18.7223 17.035H16.3543V16.355H19.4423V18.875H18.5223ZM20.2188 17.131H21.2988C21.3201 17.3123 21.4028 17.4777 21.5468 17.627C21.6961 17.771 21.8908 17.8857 22.1308 17.971C22.3708 18.051 22.6401 18.091 22.9388 18.091C23.2108 18.091 23.4348 18.0617 23.6108 18.003C23.7868 17.9443 23.9174 17.8617 24.0028 17.755C24.0881 17.6483 24.1308 17.5203 24.1308 17.371C24.1308 17.227 24.0774 17.1177 23.9708 17.043C23.8641 16.963 23.6961 16.899 23.4668 16.851C23.2374 16.7977 22.9361 16.7443 22.5628 16.691C22.2694 16.6483 21.9921 16.5897 21.7308 16.515C21.4694 16.435 21.2374 16.3337 21.0348 16.211C20.8374 16.0883 20.6801 15.939 20.5628 15.763C20.4508 15.5817 20.3948 15.3683 20.3948 15.123C20.3948 14.819 20.4801 14.5523 20.6508 14.323C20.8268 14.0937 21.0854 13.915 21.4268 13.787C21.7681 13.659 22.1868 13.595 22.6828 13.595C23.4294 13.595 24.0028 13.755 24.4028 14.075C24.8081 14.3897 25.0054 14.8243 24.9948 15.379H23.9548C23.9334 15.0643 23.8001 14.8377 23.5548 14.699C23.3148 14.5603 23.0108 14.491 22.6428 14.491C22.3014 14.491 22.0188 14.5417 21.7948 14.643C21.5761 14.7443 21.4668 14.9177 21.4668 15.163C21.4668 15.259 21.4934 15.3443 21.5468 15.419C21.6001 15.4883 21.6908 15.5497 21.8188 15.603C21.9468 15.6563 22.1201 15.707 22.3388 15.755C22.5574 15.803 22.8294 15.851 23.1548 15.899C23.4588 15.9417 23.7334 16.0003 23.9788 16.075C24.2294 16.1443 24.4428 16.2377 24.6188 16.355C24.8001 16.467 24.9388 16.611 25.0348 16.787C25.1308 16.963 25.1788 17.179 25.1788 17.435C25.1788 17.7497 25.0961 18.0243 24.9308 18.259C24.7708 18.4883 24.5201 18.667 24.1788 18.795C23.8428 18.923 23.4054 18.987 22.8668 18.987C22.4828 18.987 22.1441 18.947 21.8508 18.867C21.5574 18.7817 21.3041 18.6697 21.0908 18.531C20.8774 18.3923 20.7041 18.2403 20.5708 18.075C20.4374 17.9097 20.3414 17.7443 20.2828 17.579C20.2294 17.4137 20.2081 17.2643 20.2188 17.131Z" fill="white"/>
</svg>
