<svg width="48" height="48" viewBox="0 0 48 48" fill="none" xmlns="http://www.w3.org/2000/svg">
<mask id="path-1-inside-1_7352_699" fill="white">
<path d="M0 24C0 10.7452 10.7452 0 24 0C37.2548 0 48 10.7452 48 24C48 37.2548 37.2548 48 24 48C10.7452 48 0 37.2548 0 24Z"/>
</mask>
<path d="M0 24M48 24M48 24M0 24M24 0M48 24M24 48M0 24M24 48V47C11.2975 47 1 36.7025 1 24H0H-1C-1 37.8071 10.1929 49 24 49V48ZM48 24H47C47 36.7025 36.7025 47 24 47V48V49C37.8071 49 49 37.8071 49 24H48ZM24 0V1C36.7025 1 47 11.2975 47 24H48H49C49 10.1929 37.8071 -1 24 -1V0ZM24 0V-1C10.1929 -1 -1 10.1929 -1 24H0H1C1 11.2975 11.2975 1 24 1V0Z" fill="white" fill-opacity="0.4" mask="url(#path-1-inside-1_7352_699)"/>
<path d="M23.9974 32.3327C28.5998 32.3327 32.3307 28.6017 32.3307 23.9993C32.3307 19.397 28.5998 15.666 23.9974 15.666C19.395 15.666 15.6641 19.397 15.6641 23.9993C15.6641 28.6017 19.395 32.3327 23.9974 32.3327Z" stroke="#D62381" stroke-width="1.66667" stroke-linecap="round" stroke-linejoin="round"/>
<path d="M24 19V24L27.3333 25.6667" stroke="#D62381" stroke-width="1.66667" stroke-linecap="round" stroke-linejoin="round"/>
</svg>
