<svg width="48" height="48" viewBox="0 0 48 48" fill="none" xmlns="http://www.w3.org/2000/svg">
<mask id="path-1-inside-1_7352_692" fill="white">
<path d="M0 24C0 10.7452 10.7452 0 24 0C37.2548 0 48 10.7452 48 24C48 37.2548 37.2548 48 24 48C10.7452 48 0 37.2548 0 24Z"/>
</mask>
<path d="M0 24M48 24M48 24M0 24M24 0M48 24M24 48M0 24M24 48V47C11.2975 47 1 36.7025 1 24H0H-1C-1 37.8071 10.1929 49 24 49V48ZM48 24H47C47 36.7025 36.7025 47 24 47V48V49C37.8071 49 49 37.8071 49 24H48ZM24 0V1C36.7025 1 47 11.2975 47 24H48H49C49 10.1929 37.8071 -1 24 -1V0ZM24 0V-1C10.1929 -1 -1 10.1929 -1 24H0H1C1 11.2975 11.2975 1 24 1V0Z" fill="white" fill-opacity="0.4" mask="url(#path-1-inside-1_7352_692)"/>
<g clip-path="url(#clip0_7352_692)">
<path d="M32.3312 28.0994V30.5994C32.3322 30.8315 32.2846 31.0612 32.1917 31.2739C32.0987 31.4865 31.9623 31.6774 31.7913 31.8343C31.6203 31.9912 31.4184 32.1107 31.1985 32.185C30.9787 32.2594 30.7457 32.287 30.5146 32.2661C27.9503 31.9875 25.4871 31.1112 23.3229 29.7078C21.3094 28.4283 19.6024 26.7212 18.3229 24.7078C16.9146 22.5338 16.0381 20.0586 15.7646 17.4828C15.7438 17.2523 15.7711 17.0201 15.845 16.8008C15.9188 16.5815 16.0376 16.38 16.1935 16.2091C16.3495 16.0382 16.5394 15.9017 16.7511 15.8082C16.9627 15.7147 17.1915 15.6663 17.4229 15.6661H19.9229C20.3273 15.6621 20.7194 15.8053 21.026 16.069C21.3327 16.3328 21.533 16.699 21.5896 17.0994C21.6951 17.8995 21.8908 18.685 22.1729 19.4411C22.285 19.7394 22.3093 20.0635 22.2428 20.3752C22.1764 20.6868 22.022 20.9729 21.7979 21.1994L20.7396 22.2578C21.9259 24.3441 23.6533 26.0715 25.7396 27.2578L26.7979 26.1994C27.0245 25.9754 27.3105 25.821 27.6222 25.7545C27.9338 25.688 28.258 25.7123 28.5562 25.8244C29.3123 26.1066 30.0979 26.3022 30.8979 26.4078C31.3027 26.4649 31.6724 26.6688 31.9367 26.9807C32.201 27.2926 32.3414 27.6907 32.3312 28.0994Z" stroke="#D62381" stroke-width="1.66667" stroke-linecap="round" stroke-linejoin="round"/>
</g>
<defs>
<clipPath id="clip0_7352_692">
<rect width="20" height="20" fill="white" transform="translate(14 14)"/>
</clipPath>
</defs>
</svg>
