<svg width="48" height="48" viewBox="0 0 48 48" fill="none" xmlns="http://www.w3.org/2000/svg">
<mask id="path-1-inside-1_7352_684" fill="white">
<path d="M0 24C0 10.7452 10.7452 0 24 0C37.2548 0 48 10.7452 48 24C48 37.2548 37.2548 48 24 48C10.7452 48 0 37.2548 0 24Z"/>
</mask>
<path d="M0 24M48 24M48 24M0 24M24 0M48 24M24 48M0 24M24 48V47C11.2975 47 1 36.7025 1 24H0H-1C-1 37.8071 10.1929 49 24 49V48ZM48 24H47C47 36.7025 36.7025 47 24 47V48V49C37.8071 49 49 37.8071 49 24H48ZM24 0V1C36.7025 1 47 11.2975 47 24H48H49C49 10.1929 37.8071 -1 24 -1V0ZM24 0V-1C10.1929 -1 -1 10.1929 -1 24H0H1C1 11.2975 11.2975 1 24 1V0Z" fill="white" fill-opacity="0.4" mask="url(#path-1-inside-1_7352_684)"/>
<path d="M30.6693 22.3327C30.6693 26.4935 26.0534 30.8268 24.5034 32.1652C24.359 32.2738 24.1833 32.3325 24.0026 32.3325C23.8219 32.3325 23.6462 32.2738 23.5018 32.1652C21.9518 30.8268 17.3359 26.4935 17.3359 22.3327C17.3359 20.5646 18.0383 18.8689 19.2886 17.6186C20.5388 16.3684 22.2345 15.666 24.0026 15.666C25.7707 15.666 27.4664 16.3684 28.7166 17.6186C29.9669 18.8689 30.6693 20.5646 30.6693 22.3327Z" stroke="#D62381" stroke-width="1.66667" stroke-linecap="round" stroke-linejoin="round"/>
<path d="M24 24.834C25.3807 24.834 26.5 23.7147 26.5 22.334C26.5 20.9533 25.3807 19.834 24 19.834C22.6193 19.834 21.5 20.9533 21.5 22.334C21.5 23.7147 22.6193 24.834 24 24.834Z" stroke="#D62381" stroke-width="1.66667" stroke-linecap="round" stroke-linejoin="round"/>
</svg>
