<svg width="152" height="152" viewBox="0 0 152 152" fill="none" xmlns="http://www.w3.org/2000/svg">
<path d="M75.7969 56.8477C60.7761 56.8477 48.5574 67.4734 48.5574 80.5342C48.5574 93.595 60.7761 104.221 75.7969 104.221C90.8177 104.221 103.036 93.595 103.036 80.5342C103.036 67.4734 90.8177 56.8477 75.7969 56.8477ZM91.963 75.5115L84.2128 82.1544L86.4274 92.1205C86.5305 92.5859 86.3445 93.0691 85.9549 93.3439C85.75 93.4884 85.5108 93.5618 85.2715 93.5618C85.0536 93.5618 84.8369 93.5026 84.6438 93.3818L75.7969 87.8522L66.95 93.3818C66.5438 93.6341 66.0286 93.6199 65.6389 93.3439C65.2493 93.068 65.0634 92.5859 65.1664 92.1205L67.3811 82.1544L59.6308 75.5115C59.272 75.2047 59.1299 74.7144 59.2684 74.2632C59.4082 73.812 59.8014 73.4875 60.2704 73.4354L70.3301 72.3174L74.7689 64.5493C75.1894 63.8115 76.4045 63.8115 76.8249 64.5493L81.2638 72.3174L91.3235 73.4354C91.7924 73.4875 92.1856 73.812 92.3254 74.2632C92.464 74.7144 92.3218 75.2047 91.963 75.5115Z" fill="white"/>
<path d="M79.5063 74.0155L75.7969 67.5254L72.0876 74.0155C71.9005 74.3436 71.5665 74.5627 71.1899 74.6053L63.2419 75.4888L69.4608 80.8195C69.7936 81.1037 69.9416 81.549 69.8469 81.9754L68.0917 89.8748L75.1693 85.4514C75.3611 85.3318 75.579 85.2714 75.7969 85.2714C76.0149 85.2714 76.2328 85.3318 76.4246 85.4514L83.5022 89.8748L81.747 81.9754C81.6523 81.549 81.8003 81.1037 82.1331 80.8195L88.352 75.4888L80.404 74.6053C80.0274 74.5627 79.6934 74.3436 79.5063 74.0155Z" fill="white"/>
<path d="M131.525 59.6503C116.222 53.3532 95.9577 49.7422 75.7968 49.7422C55.636 49.7422 35.3722 53.3532 20.0683 59.6503C18.5784 64.7796 17.7648 70.1944 17.7648 75.7974C17.7648 77.8427 17.8737 79.8632 18.0822 81.8552C39.8703 83.5796 60.0678 105.622 64.6381 132.742C68.2503 133.448 71.9798 133.829 75.7968 133.829C79.6139 133.829 83.3434 133.448 86.9568 132.741C91.5259 105.621 111.725 83.5784 133.513 81.8541C133.72 79.8632 133.829 77.8427 133.829 75.7974C133.829 70.1944 133.015 64.7796 131.525 59.6503ZM75.7968 106.59C59.4709 106.59 46.1886 94.9018 46.1886 80.5347C46.1886 66.1676 59.4709 54.4795 75.7968 54.4795C92.1228 54.4795 105.405 66.1676 105.405 80.5347C105.405 94.9018 92.1228 106.59 75.7968 106.59Z" fill="white"/>
<path d="M75.7971 3.55322C35.961 3.55322 3.55304 35.9612 3.55304 75.7972C3.55304 115.633 35.961 148.041 75.7971 148.041C115.633 148.041 148.041 115.633 148.041 75.7972C148.041 35.9612 115.633 3.55322 75.7971 3.55322ZM75.7971 136.198C42.4926 136.198 15.3963 109.103 15.3963 75.7972C15.3963 42.4916 42.4926 15.3965 75.7971 15.3965C109.102 15.3965 136.198 42.4916 136.198 75.7972C136.198 109.103 109.102 136.198 75.7971 136.198Z" fill="white"/>
</svg>
