<svg width="48" height="145" viewBox="0 0 48 145" fill="none" xmlns="http://www.w3.org/2000/svg">
<path d="M32.9182 7.87881C32.6331 9.27557 32.7429 10.2833 32.7429 10.2833C32.9044 10.242 37.2597 13.529 41.872 3.44034C42.5783 1.91637 42.9837 0.7066 42.9837 0.7066C42.7792 0.83721 34.4831 0.259524 32.9182 7.87881Z" fill="url(#paint0_linear_7318_789)"/>
<path d="M26.3231 13.8461C27.1836 14.9703 27.967 15.5471 27.967 15.5471C27.9808 15.4445 32.494 13.667 27.7177 2.77794C26.9894 1.12732 26.3417 0 26.3417 0C24.0122 4.82492 23.155 9.6742 26.3231 13.8461Z" fill="url(#paint1_linear_7318_789)"/>
<path d="M20.348 23.0664C21.3253 24.0466 22.169 24.4977 22.169 24.4977C22.2241 24.3929 23.614 23.7064 23.6466 20.85C23.7288 16.4588 19.9993 11.333 18.7933 9.32995C18.8049 9.57757 15.0841 17.7581 20.348 23.0664Z" fill="url(#paint2_linear_7318_789)"/>
<path d="M17.4307 34.2657C17.4307 34.2657 18.0627 33.7416 18.3756 32.6154C19.8527 27.4247 12.4364 19.87 12.3815 19.7674C12.3677 19.87 11.5843 22.8822 11.7922 25.6984C12.3747 32.8698 17.2416 34.0113 17.4307 34.2657Z" fill="url(#paint3_linear_7318_789)"/>
<path d="M13.859 44.6961C17.2004 38.5444 7.39241 31.4013 7.21735 31.1245C7.21227 31.2271 6.90302 33.2109 7.08485 35.5783C7.91808 43.2358 12.0688 43.7056 13.859 44.6961Z" fill="url(#paint4_linear_7318_789)"/>
<path d="M11.5311 55.5985C13.1596 51.1841 9.4676 47.4579 5.78599 44.7658C4.43411 43.7742 3.38762 43.1936 3.38762 43.1936C3.38762 43.1936 3.33106 44.5 3.5303 46.2444C4.84133 55.8158 11.3594 55.4313 11.5311 55.5985Z" fill="url(#paint5_linear_7318_789)"/>
<path d="M10.4608 66.7663C10.3989 66.6626 13.0272 61.9252 3.52172 56.9301C2.07359 56.162 0.968856 55.7512 0.968856 55.7512C0.968856 55.7512 1.03943 57.0496 1.45871 58.7475C4.02708 68.1602 10.1808 66.5581 10.4608 66.7663Z" fill="url(#paint6_linear_7318_789)"/>
<path d="M10.6497 77.9991C10.6291 77.8934 11.842 74.8486 7.66882 71.8329C4.33444 69.4488 0.0875306 68.583 0 68.5541C0 68.5541 0.0566022 68.87 0.18548 69.3916C3.0324 80.345 10.5605 77.9625 10.6497 77.9991Z" fill="url(#paint7_linear_7318_789)"/>
<path d="M9.95405 89.6441C11.2409 89.501 12.0998 89.1043 12.0998 89.1043C12.0998 89.0038 12.2717 88.3023 11.9433 87.1319C10.6877 82.828 4.06146 82.061 0.486008 81.3836C0.563624 81.4873 3.00142 90.3807 9.95405 89.6441Z" fill="url(#paint8_linear_7318_789)"/>
<path d="M7.96627 100.361C11.3662 102.104 14.7214 99.9089 14.8072 99.886C14.7434 99.7432 15.2985 96.4941 10.5344 94.8616C6.84601 93.5773 2.5065 94.0521 2.41703 94.0504C2.49102 94.155 4.29143 98.5201 7.96627 100.361Z" fill="url(#paint9_linear_7318_789)"/>
<path d="M16.7831 111.327C17.9926 110.788 18.7293 110.14 18.7293 110.14C17.0699 103.05 6.51108 106.368 5.78085 106.308C5.87031 106.358 10.2599 114.196 16.7831 111.327Z" fill="url(#paint10_linear_7318_789)"/>
<path d="M23.7856 119.69C23.7479 119.585 23.715 118.955 22.9782 117.948C20.0921 114.181 11.7753 117.611 10.516 117.92C10.516 117.92 11.2617 118.886 12.4797 119.922C19.427 125.399 23.3782 119.825 23.7856 119.69Z" fill="url(#paint11_linear_7318_789)"/>
<path d="M29.8789 128.365C27.0958 123.085 21.3923 126.431 16.5252 128.684C16.5252 128.684 16.7382 128.89 17.1144 129.205C25.292 135.759 29.7776 128.393 29.8789 128.365Z" fill="url(#paint12_linear_7318_789)"/>
<path d="M31.1969 140.53C34.959 139.91 36.8112 136.116 36.8987 136.017C36.8987 136.019 36.5895 135.206 35.7168 134.602C31.865 131.65 23.7856 138.374 23.6961 138.411C23.7836 138.448 27.2728 141.117 31.1969 140.53Z" fill="url(#paint13_linear_7318_789)"/>
<path d="M28.5082 16.0956C28.5082 16.0956 28.6801 15.2233 29.4548 14.4651C33.2068 10.7148 40.8846 18.469 40.9721 18.5081C40.9721 18.5081 40.7796 18.6078 40.4377 18.7446C32.109 21.7583 28.8003 16.2608 28.5082 16.0956Z" fill="url(#paint14_linear_7318_789)"/>
<path d="M22.7666 24.9578C22.7666 24.9578 22.8456 24.069 23.5379 23.2055C26.5754 19.5198 32.8271 23.9203 35.385 25.4037C35.385 25.4037 35.2013 25.5244 34.8903 25.7287C27.8912 30.3114 22.8541 24.983 22.7666 24.9578Z" fill="url(#paint15_linear_7318_789)"/>
<path d="M20.0589 35.7262C18.8359 35.2341 18.0747 34.6292 18.0747 34.6292C18.0747 34.6292 18.0593 33.7396 18.657 32.7834C21.6393 28.0721 30.5592 33.1083 30.647 33.1177C30.3464 33.218 25.9757 38.1197 20.0589 35.7262Z" fill="url(#paint16_linear_7318_789)"/>
<path d="M14.5373 44.9558C15.2315 37.0266 26.7333 41.5036 26.8417 41.4974C26.7541 41.581 25.7453 42.9457 23.581 44.4042C22.9265 44.8442 14.7902 45.0151 14.5373 44.9558Z" fill="url(#paint17_linear_7318_789)"/>
<path d="M12.2337 55.7494C11.8299 47.8383 23.9331 50.4069 24.0206 50.3888C24.0206 50.3888 23.5482 51.1891 22.6617 52.1793C17.6128 58.169 12.4743 55.7231 12.2337 55.7494Z" fill="url(#paint18_linear_7318_789)"/>
<path d="M13.3677 66.9023C12.0845 67.0142 11.1756 66.8045 11.1756 66.8045C11.1961 66.6997 9.76349 63.4348 14.2938 61.0506C17.4292 59.3768 22.1517 59.6474 22.2393 59.6414C21.8974 59.9647 19.5938 66.4 13.3677 66.9023Z" fill="url(#paint19_linear_7318_789)"/>
<path d="M11.3611 77.9274C11.3713 77.8237 9.59333 74.8049 13.8161 71.7414C16.7469 69.5865 21.4351 69.1326 21.5229 69.1114C17.2056 79.6083 12.1581 77.4293 11.3611 77.9274Z" fill="url(#paint20_linear_7318_789)"/>
<path d="M18.8926 85.3682C16.2004 88.6737 12.8849 88.887 12.7973 88.9236C12.8404 88.821 9.5021 83.5748 19.2688 79.5208C20.7585 78.9057 21.8853 78.6161 21.8853 78.6161C21.8456 78.7295 20.973 82.7707 18.8926 85.3682Z" fill="url(#paint21_linear_7318_789)"/>
<path d="M15.4791 99.5941C13.0739 95.4313 17.0029 91.5553 20.8201 89.2615C22.2255 88.422 23.3078 87.9582 23.3078 87.9582C23.3078 87.9582 23.2408 88.9295 22.9003 90.3143C21.3149 98.5354 15.6747 99.3788 15.4791 99.5941Z" fill="url(#paint22_linear_7318_789)"/>
<path d="M24.4295 104.421C22.588 108.445 19.4492 109.675 19.3614 109.747C19.3341 109.644 16.7469 107.592 19.5469 102.936C21.5741 99.5839 25.6989 97.0579 25.7867 96.9853C25.7766 97.0879 25.9158 101.12 24.4295 104.421Z" fill="url(#paint23_linear_7318_789)"/>
<path d="M28.7794 113.134C27.4255 117.387 24.4553 119.105 24.3678 119.201C24.3284 119.098 21.5194 117.495 23.7749 112.419C25.3727 108.812 29.1885 105.64 29.276 105.546C29.2775 105.655 29.829 109.784 28.7794 113.134Z" fill="url(#paint24_linear_7318_789)"/>
<path d="M34.081 121.099C33.2565 125.487 30.4734 127.687 30.3994 127.79C30.4047 127.687 25.2919 125.076 31.8579 115.837C32.8716 114.417 33.7135 113.495 33.7135 113.495C34.155 115.811 34.6413 118.154 34.081 121.099Z" fill="url(#paint25_linear_7318_789)"/>
<path d="M40.2385 128.173C39.9498 132.593 37.4056 135.265 37.3505 135.367C37.2767 135.265 34.2032 134.658 35.2613 129.005C35.9828 125.042 38.9601 120.791 39.0152 120.688C39.0411 120.791 40.5219 124.396 40.2385 128.173Z" fill="url(#paint26_linear_7318_789)"/>
<path d="M21.5436 25.4117C2.34858 60.1718 5.49942 115.252 46.3511 144.223C46.7599 144.512 47.2788 144.343 47.5141 143.848C47.7511 143.352 47.6224 142.724 47.2273 142.444L47.222 142.44C47.222 142.44 46.7686 142.123 45.918 141.527C7.13469 114.418 -2.16627 49.9239 35.2081 8.5653C40.132 3.33354 31.0714 8.15648 21.5436 25.4117Z" fill="url(#paint27_linear_7318_789)"/>
<defs>
<linearGradient id="paint0_linear_7318_789" x1="18.8337" y1="-25.1891" x2="18.8337" y2="159.456" gradientUnits="userSpaceOnUse">
<stop offset="0.428244" stop-color="white"/>
<stop offset="0.928764" stop-color="#999999" stop-opacity="0"/>
</linearGradient>
<linearGradient id="paint1_linear_7318_789" x1="18.8337" y1="-25.1891" x2="18.8337" y2="159.456" gradientUnits="userSpaceOnUse">
<stop offset="0.428244" stop-color="white"/>
<stop offset="0.928764" stop-color="#999999" stop-opacity="0"/>
</linearGradient>
<linearGradient id="paint2_linear_7318_789" x1="18.8337" y1="-25.1891" x2="18.8337" y2="159.456" gradientUnits="userSpaceOnUse">
<stop offset="0.428244" stop-color="white"/>
<stop offset="0.928764" stop-color="#999999" stop-opacity="0"/>
</linearGradient>
<linearGradient id="paint3_linear_7318_789" x1="18.8337" y1="-25.1891" x2="18.8337" y2="159.456" gradientUnits="userSpaceOnUse">
<stop offset="0.428244" stop-color="white"/>
<stop offset="0.928764" stop-color="#999999" stop-opacity="0"/>
</linearGradient>
<linearGradient id="paint4_linear_7318_789" x1="18.8337" y1="-25.1891" x2="18.8337" y2="159.456" gradientUnits="userSpaceOnUse">
<stop offset="0.428244" stop-color="white"/>
<stop offset="0.928764" stop-color="#999999" stop-opacity="0"/>
</linearGradient>
<linearGradient id="paint5_linear_7318_789" x1="18.8337" y1="-25.1891" x2="18.8337" y2="159.456" gradientUnits="userSpaceOnUse">
<stop offset="0.428244" stop-color="white"/>
<stop offset="0.928764" stop-color="#999999" stop-opacity="0"/>
</linearGradient>
<linearGradient id="paint6_linear_7318_789" x1="18.8337" y1="-25.1891" x2="18.8337" y2="159.456" gradientUnits="userSpaceOnUse">
<stop offset="0.428244" stop-color="white"/>
<stop offset="0.928764" stop-color="#999999" stop-opacity="0"/>
</linearGradient>
<linearGradient id="paint7_linear_7318_789" x1="18.8337" y1="-25.1891" x2="18.8337" y2="159.456" gradientUnits="userSpaceOnUse">
<stop offset="0.428244" stop-color="white"/>
<stop offset="0.928764" stop-color="#999999" stop-opacity="0"/>
</linearGradient>
<linearGradient id="paint8_linear_7318_789" x1="18.8337" y1="-25.1891" x2="18.8337" y2="159.456" gradientUnits="userSpaceOnUse">
<stop offset="0.428244" stop-color="white"/>
<stop offset="0.928764" stop-color="#999999" stop-opacity="0"/>
</linearGradient>
<linearGradient id="paint9_linear_7318_789" x1="18.8337" y1="-25.1891" x2="18.8337" y2="159.456" gradientUnits="userSpaceOnUse">
<stop offset="0.428244" stop-color="white"/>
<stop offset="0.928764" stop-color="#999999" stop-opacity="0"/>
</linearGradient>
<linearGradient id="paint10_linear_7318_789" x1="18.8337" y1="-25.1891" x2="18.8337" y2="159.456" gradientUnits="userSpaceOnUse">
<stop offset="0.428244" stop-color="white"/>
<stop offset="0.928764" stop-color="#999999" stop-opacity="0"/>
</linearGradient>
<linearGradient id="paint11_linear_7318_789" x1="18.8337" y1="-25.1891" x2="18.8337" y2="159.456" gradientUnits="userSpaceOnUse">
<stop offset="0.428244" stop-color="white"/>
<stop offset="0.928764" stop-color="#999999" stop-opacity="0"/>
</linearGradient>
<linearGradient id="paint12_linear_7318_789" x1="18.8337" y1="-25.1891" x2="18.8337" y2="159.456" gradientUnits="userSpaceOnUse">
<stop offset="0.428244" stop-color="white"/>
<stop offset="0.928764" stop-color="#999999" stop-opacity="0"/>
</linearGradient>
<linearGradient id="paint13_linear_7318_789" x1="18.8337" y1="-25.1891" x2="18.8337" y2="159.456" gradientUnits="userSpaceOnUse">
<stop offset="0.428244" stop-color="white"/>
<stop offset="0.928764" stop-color="#999999" stop-opacity="0"/>
</linearGradient>
<linearGradient id="paint14_linear_7318_789" x1="18.8337" y1="-25.1891" x2="18.8337" y2="159.456" gradientUnits="userSpaceOnUse">
<stop offset="0.428244" stop-color="white"/>
<stop offset="0.928764" stop-color="#999999" stop-opacity="0"/>
</linearGradient>
<linearGradient id="paint15_linear_7318_789" x1="18.8337" y1="-25.1891" x2="18.8337" y2="159.456" gradientUnits="userSpaceOnUse">
<stop offset="0.428244" stop-color="white"/>
<stop offset="0.928764" stop-color="#999999" stop-opacity="0"/>
</linearGradient>
<linearGradient id="paint16_linear_7318_789" x1="18.8337" y1="-25.1891" x2="18.8337" y2="159.456" gradientUnits="userSpaceOnUse">
<stop offset="0.428244" stop-color="white"/>
<stop offset="0.928764" stop-color="#999999" stop-opacity="0"/>
</linearGradient>
<linearGradient id="paint17_linear_7318_789" x1="18.8337" y1="-25.1891" x2="18.8337" y2="159.456" gradientUnits="userSpaceOnUse">
<stop offset="0.428244" stop-color="white"/>
<stop offset="0.928764" stop-color="#999999" stop-opacity="0"/>
</linearGradient>
<linearGradient id="paint18_linear_7318_789" x1="18.8337" y1="-25.1891" x2="18.8337" y2="159.456" gradientUnits="userSpaceOnUse">
<stop offset="0.428244" stop-color="white"/>
<stop offset="0.928764" stop-color="#999999" stop-opacity="0"/>
</linearGradient>
<linearGradient id="paint19_linear_7318_789" x1="18.8337" y1="-25.1891" x2="18.8337" y2="159.456" gradientUnits="userSpaceOnUse">
<stop offset="0.428244" stop-color="white"/>
<stop offset="0.928764" stop-color="#999999" stop-opacity="0"/>
</linearGradient>
<linearGradient id="paint20_linear_7318_789" x1="18.8337" y1="-25.1891" x2="18.8337" y2="159.456" gradientUnits="userSpaceOnUse">
<stop offset="0.428244" stop-color="white"/>
<stop offset="0.928764" stop-color="#999999" stop-opacity="0"/>
</linearGradient>
<linearGradient id="paint21_linear_7318_789" x1="18.8337" y1="-25.1891" x2="18.8337" y2="159.456" gradientUnits="userSpaceOnUse">
<stop offset="0.428244" stop-color="white"/>
<stop offset="0.928764" stop-color="#999999" stop-opacity="0"/>
</linearGradient>
<linearGradient id="paint22_linear_7318_789" x1="18.8337" y1="-25.1891" x2="18.8337" y2="159.456" gradientUnits="userSpaceOnUse">
<stop offset="0.428244" stop-color="white"/>
<stop offset="0.928764" stop-color="#999999" stop-opacity="0"/>
</linearGradient>
<linearGradient id="paint23_linear_7318_789" x1="18.8337" y1="-25.1891" x2="18.8337" y2="159.456" gradientUnits="userSpaceOnUse">
<stop offset="0.428244" stop-color="white"/>
<stop offset="0.928764" stop-color="#999999" stop-opacity="0"/>
</linearGradient>
<linearGradient id="paint24_linear_7318_789" x1="18.8337" y1="-25.1891" x2="18.8337" y2="159.456" gradientUnits="userSpaceOnUse">
<stop offset="0.428244" stop-color="white"/>
<stop offset="0.928764" stop-color="#999999" stop-opacity="0"/>
</linearGradient>
<linearGradient id="paint25_linear_7318_789" x1="18.8337" y1="-25.1891" x2="18.8337" y2="159.456" gradientUnits="userSpaceOnUse">
<stop offset="0.428244" stop-color="white"/>
<stop offset="0.928764" stop-color="#999999" stop-opacity="0"/>
</linearGradient>
<linearGradient id="paint26_linear_7318_789" x1="18.8337" y1="-25.1891" x2="18.8337" y2="159.456" gradientUnits="userSpaceOnUse">
<stop offset="0.428244" stop-color="white"/>
<stop offset="0.928764" stop-color="#999999" stop-opacity="0"/>
</linearGradient>
<linearGradient id="paint27_linear_7318_789" x1="18.8337" y1="-25.1891" x2="18.8337" y2="159.456" gradientUnits="userSpaceOnUse">
<stop offset="0.428244" stop-color="white"/>
<stop offset="0.928764" stop-color="#999999" stop-opacity="0"/>
</linearGradient>
</defs>
</svg>
