<svg width="20" height="20" viewBox="0 0 20 20" fill="none" xmlns="http://www.w3.org/2000/svg">
<g clip-path="url(#clip0_7318_4434)">
<path d="M18.3332 14.0394V16.5394C18.3341 16.7715 18.2866 17.0012 18.1936 17.2138C18.1006 17.4265 17.9643 17.6174 17.7933 17.7743C17.6222 17.9312 17.4203 18.0506 17.2005 18.125C16.9806 18.1993 16.7477 18.2269 16.5165 18.206C13.9522 17.9274 11.489 17.0512 9.32486 15.6477C7.31139 14.3683 5.60431 12.6612 4.32486 10.6477C2.91651 8.47371 2.04007 5.99853 1.76653 3.4227C1.7457 3.19226 1.77309 2.96 1.84695 2.74072C1.9208 2.52144 2.03951 2.31995 2.1955 2.14906C2.3515 1.97817 2.54137 1.84163 2.75302 1.74814C2.96468 1.65465 3.19348 1.60626 3.42486 1.60604H5.92486C6.32928 1.60206 6.72136 1.74527 7.028 2.00898C7.33464 2.27269 7.53493 2.63891 7.59153 3.03937C7.69705 3.83943 7.89274 4.62498 8.17486 5.38104C8.28698 5.67931 8.31125 6.00347 8.24478 6.3151C8.17832 6.62674 8.02392 6.9128 7.79986 7.13937L6.74153 8.1977C7.92783 10.284 9.65524 12.0114 11.7415 13.1977L12.7999 12.1394C13.0264 11.9153 13.3125 11.7609 13.6241 11.6944C13.9358 11.628 14.2599 11.6523 14.5582 11.7644C15.3143 12.0465 16.0998 12.2422 16.8999 12.3477C17.3047 12.4048 17.6744 12.6087 17.9386 12.9206C18.2029 13.2325 18.3433 13.6307 18.3332 14.0394Z" stroke="white" stroke-width="1.66667" stroke-linecap="round" stroke-linejoin="round"/>
</g>
<defs>
<clipPath id="clip0_7318_4434">
<rect width="20" height="20" fill="white"/>
</clipPath>
</defs>
</svg>
