<svg width="20" height="20" viewBox="0 0 20 20" fill="none" xmlns="http://www.w3.org/2000/svg">
<path d="M12.7497 8.98774H7.44035C7.41864 8.98774 7.39782 8.97912 7.38247 8.96376C7.36711 8.94841 7.35849 8.92759 7.35849 8.90588C7.35849 8.85283 7.33742 8.80196 7.29991 8.76445C7.2624 8.72695 7.21153 8.70588 7.15849 8.70588C7.10544 8.70588 7.05457 8.72695 7.01707 8.76445C6.97956 8.80196 6.95849 8.85283 6.95849 8.90588C6.95849 9.17174 7.17449 9.38774 7.44035 9.38774H12.7497C13.0153 9.38774 13.2316 9.17174 13.2316 8.90588V8.54988C13.2316 8.28401 13.0153 8.06801 12.7497 8.06801H12.6937C12.6929 6.90161 11.7438 5.95308 10.5772 5.95308H9.79262C9.73958 5.95308 9.68871 5.97415 9.6512 6.01165C9.61369 6.04916 9.59262 6.10003 9.59262 6.15308C9.59262 6.20612 9.61369 6.25699 9.6512 6.2945C9.68871 6.332 9.73958 6.35308 9.79262 6.35308H10.5772C11.032 6.35357 11.468 6.53431 11.7898 6.85571C12.1116 7.1771 12.2929 7.61294 12.294 8.06774H8.75582C8.70278 8.06774 8.65191 8.08881 8.6144 8.12632C8.57689 8.16383 8.55582 8.2147 8.55582 8.26774C8.55582 8.32079 8.57689 8.37166 8.6144 8.40916C8.65191 8.44667 8.70278 8.46774 8.75582 8.46774H12.7497C12.7948 8.46774 12.8316 8.50481 12.8316 8.54988V8.90588C12.8316 8.92759 12.8229 8.94841 12.8076 8.96376C12.7922 8.97912 12.7714 8.98774 12.7497 8.98774ZM6.95769 16.8773C6.95769 16.9877 7.04729 17.0733 7.15769 17.0733C7.26809 17.0733 7.35769 16.98 7.35769 16.8696V16.5245C7.35769 16.4965 7.38115 16.4731 7.40889 16.4731H12.7804C12.8081 16.4731 12.8316 16.4965 12.8316 16.5245V16.8864C12.8316 16.9968 12.9212 17.0827 13.0316 17.0827C13.142 17.0827 13.2316 16.9893 13.2316 16.8787V16.5245C13.2316 16.3019 13.0694 16.1176 12.8572 16.0808V10.0307C12.8572 9.97763 12.8361 9.92676 12.7986 9.88926C12.7611 9.85175 12.7102 9.83068 12.6572 9.83068C12.6041 9.83068 12.5532 9.85175 12.5157 9.88926C12.4782 9.92676 12.4572 9.97763 12.4572 10.0307V10.8509C11.3417 10.6093 10.3612 11.6189 10.3612 12.8677C10.3612 14.1136 11.3417 15.1232 12.4572 14.8816V16.0731H7.73395V10.0299C7.73395 9.97683 7.71288 9.92596 7.67538 9.88845C7.63787 9.85095 7.587 9.82988 7.53395 9.82988C7.48091 9.82988 7.43004 9.85095 7.39253 9.88845C7.35503 9.92596 7.33395 9.97683 7.33395 10.0299V16.0805C7.12089 16.1165 6.95769 16.3011 6.95769 16.5245V16.8773ZM10.7612 12.8677C10.7612 11.7147 11.6825 11.0179 12.4564 11.2597H12.4572V14.4731C11.4561 14.6992 10.7612 13.8211 10.7612 12.8677ZM9.27129 4.99281V5.53681C9.27129 5.58985 9.29236 5.64072 9.32987 5.67823C9.36737 5.71574 9.41824 5.73681 9.47129 5.73681C9.52433 5.73681 9.5752 5.71574 9.61271 5.67823C9.65022 5.64072 9.67129 5.58985 9.67129 5.53681L9.68462 4.97974L10.5185 4.99308V5.53708C10.5185 5.59012 10.5396 5.64099 10.5771 5.6785C10.6146 5.716 10.6654 5.73708 10.7185 5.73708C10.7715 5.73708 10.8224 5.716 10.8599 5.6785C10.8974 5.64099 10.9185 5.59012 10.9185 5.53708V4.99308C10.9185 4.88355 10.875 4.77849 10.7976 4.70099C10.7202 4.62349 10.6152 4.57988 10.5057 4.57974H9.68435C9.57478 4.57981 9.46971 4.62339 9.39226 4.7009C9.3148 4.77841 9.27129 4.8835 9.27129 4.99308V4.99281ZM6.42969 17.7179V18.2667C6.42969 18.524 6.63902 18.7333 6.89635 18.7333H13.2937C13.551 18.7333 13.7604 18.524 13.7604 18.2667V17.7179C13.7604 17.4608 13.551 17.2512 13.2937 17.2512H6.89635C6.63902 17.2512 6.42969 17.4608 6.42969 17.7179ZM13.3604 17.7179V18.2667C13.3604 18.2844 13.3533 18.3013 13.3408 18.3138C13.3283 18.3263 13.3114 18.3333 13.2937 18.3333H6.89635C6.87867 18.3333 6.86172 18.3263 6.84921 18.3138C6.83671 18.3013 6.82969 18.2844 6.82969 18.2667V17.7179C6.82969 17.7002 6.83671 17.6832 6.84921 17.6707C6.86172 17.6582 6.87867 17.6512 6.89635 17.6512H13.2937C13.3114 17.6512 13.3283 17.6582 13.3408 17.6707C13.3533 17.6832 13.3604 17.7002 13.3604 17.7179Z" fill="#D62381"/>
<path d="M1.59063 9.55307H5.03569C5.4935 9.55304 5.93573 9.38684 6.28023 9.08533L7.17623 8.30133L9.01863 7.652C9.1116 7.62491 9.19833 7.57978 9.27386 7.51917C9.3494 7.45857 9.41225 7.38368 9.45884 7.29878C9.50543 7.21388 9.53485 7.12064 9.5454 7.02437C9.55595 6.92811 9.54745 6.83071 9.52036 6.73773C9.49327 6.64476 9.44814 6.55803 9.38753 6.48249C9.32693 6.40696 9.25204 6.34411 9.16714 6.29752C9.08224 6.25093 8.989 6.22151 8.89273 6.21096C8.79647 6.2004 8.69907 6.20891 8.60609 6.236L7.35436 6.6992C7.3074 6.71173 7.2584 6.71469 7.21027 6.70792C7.16214 6.70115 7.11586 6.68479 7.07417 6.65979C7.03249 6.63479 6.99625 6.60168 6.9676 6.56241C6.93896 6.52315 6.9185 6.47853 6.90743 6.4312L6.73516 5.6968C6.72254 5.6438 6.72208 5.58864 6.73381 5.53544C6.74554 5.48223 6.76916 5.43238 6.80289 5.3896L7.15303 4.9432C7.20316 4.8792 7.27436 4.8336 7.35303 4.8144L9.32956 4.3336C9.41762 4.31469 9.50106 4.27851 9.57505 4.22716C9.64905 4.17581 9.71213 4.1103 9.76066 4.03443C9.80918 3.95855 9.84219 3.87381 9.85777 3.7851C9.87335 3.69639 9.87119 3.60547 9.85143 3.5176C9.81325 3.34598 9.71014 3.19579 9.56369 3.09851C9.41724 3.00123 9.23883 2.96439 9.06583 2.99573L6.49169 3.45707C6.31012 3.48975 6.13734 3.55985 5.98432 3.66291C5.83131 3.76598 5.70141 3.89975 5.60289 4.05573L4.30956 6.05893C4.24992 6.14312 4.17098 6.2118 4.07935 6.25922C3.98772 6.30663 3.88606 6.33141 3.78289 6.33147H1.71809C1.66505 6.33147 1.61418 6.35254 1.57667 6.39005C1.53916 6.42755 1.51809 6.47842 1.51809 6.53147C1.51809 6.58451 1.53916 6.63538 1.57667 6.67289C1.61418 6.7104 1.66505 6.73147 1.71809 6.73147H3.78289C4.12156 6.73147 4.44023 6.5664 4.63596 6.29013C5.04609 5.7096 4.73809 6.17813 5.94129 4.2688C6.01012 4.15981 6.10089 4.06635 6.20781 3.99436C6.31474 3.92237 6.43548 3.87344 6.56236 3.85067L9.13623 3.38933C9.17265 3.3825 9.21005 3.38292 9.24632 3.39054C9.28258 3.39817 9.31698 3.41287 9.34756 3.43379C9.37814 3.45472 9.4043 3.48146 9.42455 3.51249C9.44479 3.54353 9.45873 3.57825 9.46556 3.61467C9.47239 3.65109 9.47198 3.6885 9.46435 3.72476C9.45672 3.76102 9.44202 3.79542 9.4211 3.826C9.40018 3.85658 9.37343 3.88274 9.3424 3.90299C9.31136 3.92324 9.27665 3.93717 9.24023 3.944L7.25889 4.4256C7.09238 4.46624 6.94431 4.56154 6.83836 4.69627L6.48823 5.14267C6.41734 5.23263 6.36772 5.33745 6.34306 5.44929C6.3184 5.56114 6.31934 5.67711 6.34583 5.78853L6.51809 6.5224C6.61249 6.9256 7.02023 7.20347 7.47489 7.08027L8.72663 6.6168C8.77028 6.60518 8.81581 6.60243 8.86054 6.60871C8.90527 6.615 8.94829 6.63018 8.98705 6.65338C9.02581 6.67658 9.05952 6.70731 9.0862 6.74376C9.11288 6.78021 9.13197 6.82164 9.14236 6.8656C9.18369 7.04107 9.08049 7.2176 8.89676 7.2712L7.00716 7.9368C6.98313 7.9452 6.96095 7.95814 6.94183 7.97493L6.01703 8.78427C5.74536 9.02196 5.39667 9.15301 5.03569 9.15307H1.59063C1.53758 9.15307 1.48671 9.17414 1.4492 9.21165C1.4117 9.24915 1.39063 9.30002 1.39062 9.35307C1.39063 9.40611 1.4117 9.45698 1.4492 9.49449C1.48671 9.532 1.53758 9.55307 1.59063 9.55307ZM11.989 4.648L14.548 3.60053C14.5971 3.58045 14.6362 3.54167 14.6567 3.49274C14.6773 3.4438 14.6775 3.38872 14.6574 3.3396C14.6373 3.29048 14.5986 3.25135 14.5496 3.23083C14.5007 3.2103 14.4456 3.21005 14.3965 3.23013L11.8373 4.27787C11.7892 4.29863 11.7512 4.33743 11.7314 4.38593C11.7116 4.43443 11.7116 4.48875 11.7315 4.53722C11.7513 4.5857 11.7894 4.62446 11.8375 4.64517C11.8856 4.66589 11.9402 4.6669 11.989 4.648ZM14.6706 5.84987C14.6772 5.79725 14.6626 5.74418 14.63 5.70233C14.5975 5.66047 14.5496 5.63326 14.497 5.62667L12.1888 5.33867C12.1363 5.33253 12.0835 5.34726 12.0417 5.37968C12 5.4121 11.9726 5.45962 11.9656 5.512C11.9623 5.53809 11.9642 5.56458 11.9711 5.58994C11.9781 5.6153 11.99 5.63904 12.0061 5.6598C12.0223 5.68055 12.0424 5.69792 12.0652 5.71091C12.0881 5.72389 12.1133 5.73224 12.1394 5.73547L14.4474 6.02347C14.5 6.03003 14.5531 6.01543 14.595 5.98287C14.6368 5.95032 14.664 5.90248 14.6706 5.84987Z" fill="#D62381"/>
<path d="M14.032 2.788C14.0851 2.788 14.1359 2.76692 14.1735 2.72942C14.211 2.69191 14.232 2.64104 14.232 2.588C14.2327 2.34338 14.3303 2.109 14.5035 1.93627C14.6768 1.76355 14.9114 1.66659 15.156 1.66666C15.5454 1.66666 15.8931 1.912 16.0211 2.2768C16.0321 2.30825 16.0508 2.33645 16.0755 2.35883C16.1002 2.38121 16.1301 2.39707 16.1625 2.40497C16.1948 2.41287 16.2287 2.41255 16.2609 2.40404C16.2931 2.39553 16.3227 2.37911 16.347 2.35626C17.0379 1.70693 18.2102 2.1952 18.2102 3.17386C18.2102 3.57333 17.9942 3.944 17.6467 4.14106C17.6159 4.15851 17.5903 4.1838 17.5725 4.21437C17.5547 4.24494 17.5453 4.27968 17.5453 4.31506C17.5453 4.35044 17.5547 4.38519 17.5725 4.41576C17.5903 4.44632 17.6159 4.47162 17.6467 4.48906C17.8176 4.58617 17.9598 4.72678 18.0587 4.89661C18.1577 5.06644 18.2099 5.25943 18.2102 5.456C18.2102 6.2824 17.3422 6.808 16.6264 6.46213C16.6001 6.44943 16.5713 6.44264 16.5421 6.44225C16.5129 6.44186 16.484 6.44788 16.4573 6.45988C16.4307 6.47187 16.407 6.48956 16.3879 6.5117C16.3689 6.53383 16.3549 6.55988 16.347 6.588C16.1534 7.276 15.2723 7.49413 14.7808 6.9632C14.7448 6.9243 14.6947 6.90132 14.6417 6.89932C14.5887 6.89732 14.5371 6.91646 14.4982 6.95253C14.4593 6.9886 14.4363 7.03864 14.4343 7.09165C14.4323 7.14466 14.4514 7.1963 14.4875 7.2352C15.1243 7.92266 16.255 7.74613 16.6547 6.9024C17.6112 7.20053 18.6102 6.48053 18.6102 5.456C18.6099 5.2397 18.5633 5.02598 18.4735 4.8292C18.3837 4.63242 18.2528 4.45716 18.0896 4.3152C18.2529 4.17315 18.3838 3.9978 18.4736 3.80093C18.5633 3.60406 18.6099 3.39024 18.6102 3.17386C18.6102 1.97013 17.271 1.26106 16.2832 1.9C16.1655 1.70656 16 1.54669 15.8025 1.43577C15.6051 1.32485 15.3825 1.26661 15.156 1.26666C14.4262 1.26666 13.832 1.85946 13.832 2.588C13.832 2.6984 13.9216 2.788 14.032 2.788Z" fill="#D62381"/>
<path d="M16.7817 4.23707C16.8281 4.23704 16.8731 4.22085 16.9089 4.19126C16.9447 4.16168 16.9691 4.12055 16.9779 4.07494C17.1081 3.40294 16.7275 3.02134 16.2993 2.9856C16.2465 2.98168 16.1943 2.99866 16.1539 3.03289C16.1136 3.06711 16.0883 3.11583 16.0835 3.16854C16.0814 3.19473 16.0843 3.22111 16.0924 3.24615C16.1004 3.27119 16.1132 3.2944 16.1302 3.31446C16.1472 3.33452 16.168 3.35104 16.1914 3.36306C16.2148 3.37509 16.2403 3.38238 16.2665 3.38454C16.2899 3.4112 16.7003 3.40427 16.5851 3.99894C16.5795 4.02791 16.5804 4.05777 16.5876 4.08637C16.5949 4.11497 16.6084 4.14161 16.6272 4.16437C16.646 4.18714 16.6696 4.20546 16.6963 4.21803C16.723 4.2306 16.7522 4.2371 16.7817 4.23707ZM15.3363 5.68667C15.2997 5.6483 15.2493 5.62606 15.1963 5.62483C15.1433 5.62361 15.0919 5.6435 15.0535 5.68014C15.0152 5.71677 14.9929 5.76715 14.9917 5.82018C14.9905 5.87322 15.0104 5.92457 15.047 5.96294C15.3505 6.28187 15.8433 6.41787 16.2539 6.14427C16.2981 6.11485 16.3288 6.06909 16.3392 6.01705C16.3496 5.96502 16.339 5.91097 16.3095 5.8668C16.295 5.84493 16.2762 5.82615 16.2544 5.81152C16.2326 5.79689 16.2081 5.7867 16.1823 5.78154C16.1303 5.77111 16.0762 5.78178 16.0321 5.8112C15.6934 6.0368 15.3721 5.7232 15.3363 5.68667ZM8.35234 14.4232H9.04088C9.09392 14.4232 9.14479 14.4021 9.1823 14.3646C9.21981 14.3271 9.24088 14.2762 9.24088 14.2232C9.24088 14.1702 9.21981 14.1193 9.1823 14.0818C9.14479 14.0443 9.09392 14.0232 9.04088 14.0232H8.35234C8.2993 14.0232 8.24843 14.0443 8.21092 14.0818C8.17341 14.1193 8.15234 14.1702 8.15234 14.2232C8.15234 14.2762 8.17341 14.3271 8.21092 14.3646C8.24843 14.4021 8.2993 14.4232 8.35234 14.4232ZM8.35234 15.1387H9.88061C9.93365 15.1387 9.98452 15.1176 10.022 15.0801C10.0595 15.0426 10.0806 14.9917 10.0806 14.9387C10.0806 14.8856 10.0595 14.8348 10.022 14.7972C9.98452 14.7597 9.93365 14.7387 9.88061 14.7387H8.35261C8.29957 14.7387 8.2487 14.7597 8.21119 14.7972C8.17368 14.8348 8.15261 14.8856 8.15261 14.9387C8.15261 14.9917 8.17368 15.0426 8.21119 15.0801C8.2487 15.1176 8.2993 15.1387 8.35234 15.1387Z" fill="#D62381"/>
</svg>
