<svg width="20" height="20" viewBox="0 0 20 20" fill="none" xmlns="http://www.w3.org/2000/svg">
<g clip-path="url(#clip0_7534_749)">
<path d="M17.0711 2.92891C15.1823 1.0402 12.6711 0 10 0C7.32891 0 4.8177 1.0402 2.92891 2.92891C1.0402 4.8177 0 7.32891 0 10C0 12.6711 1.0402 15.1823 2.92891 17.0711C4.8177 18.9598 7.32891 20 10 20C12.6711 20 15.1823 18.9598 17.0711 17.0711C18.9598 15.1823 20 12.6711 20 10C20 7.32891 18.9598 4.8177 17.0711 2.92891ZM16.6568 16.6568C14.8787 18.4348 12.5146 19.4141 10 19.4141C7.48539 19.4141 5.12133 18.4348 3.34324 16.6568C1.56516 14.8787 0.585938 12.5146 0.585938 10C0.585938 7.48539 1.56516 5.12133 3.34324 3.34324C5.12133 1.56516 7.48539 0.585938 10 0.585938C12.5146 0.585938 14.8787 1.56516 16.6568 3.34324C18.4348 5.12133 19.4141 7.48539 19.4141 10C19.4141 12.5146 18.4348 14.8787 16.6568 16.6568Z" fill="#D62381"/>
<path d="M10.0015 3.13129C9.92382 3.13129 9.84931 3.16215 9.79436 3.21709C9.73942 3.27204 9.70855 3.34656 9.70855 3.42426V4.67676C9.70855 4.75446 9.73941 4.82898 9.79435 4.88392C9.84929 4.93887 9.9238 4.96974 10.0015 4.96974C10.0792 4.96975 10.1537 4.93889 10.2087 4.88395C10.2636 4.82901 10.2945 4.75449 10.2945 4.67679V3.42426C10.2945 3.34656 10.2636 3.27204 10.2087 3.21709C10.1537 3.16215 10.0792 3.13129 10.0015 3.13129ZM10.0015 15.0302C9.92382 15.0302 9.84931 15.0611 9.79436 15.116C9.73942 15.171 9.70855 15.2455 9.70855 15.3232V16.5757C9.70855 16.6534 9.73942 16.7279 9.79436 16.7829C9.84931 16.8378 9.92382 16.8687 10.0015 16.8687C10.0792 16.8687 10.1537 16.8378 10.2087 16.7829C10.2636 16.7279 10.2945 16.6534 10.2945 16.5757V15.3232C10.2945 15.2455 10.2636 15.171 10.2087 15.116C10.1537 15.0611 10.0792 15.0302 10.0015 15.0302ZM16.5773 9.70703H15.3248C15.2471 9.70703 15.1725 9.7379 15.1176 9.79284C15.0627 9.84778 15.0318 9.9223 15.0318 10C15.0318 10.0777 15.0627 10.1522 15.1176 10.2072C15.1725 10.2621 15.2471 10.293 15.3248 10.293H16.5773C16.655 10.293 16.7295 10.2621 16.7844 10.2072C16.8394 10.1522 16.8702 10.0777 16.8702 10C16.8702 9.9223 16.8394 9.84778 16.7844 9.79284C16.7295 9.7379 16.655 9.70703 16.5773 9.70703ZM4.67828 9.70703H3.42578C3.34808 9.70703 3.27356 9.7379 3.21862 9.79284C3.16368 9.84778 3.13281 9.9223 3.13281 10C3.13281 10.0777 3.16368 10.1522 3.21862 10.2072C3.27356 10.2621 3.34808 10.293 3.42578 10.293H4.67828C4.75598 10.293 4.8305 10.2621 4.88544 10.2072C4.94038 10.1522 4.97125 10.0777 4.97125 10C4.97125 9.9223 4.94038 9.84778 4.88544 9.79284C4.8305 9.7379 4.75598 9.70703 4.67828 9.70703ZM4.99562 6.77156L4.45328 6.45843C4.38603 6.4202 4.30638 6.41011 4.23172 6.43038C4.15706 6.45065 4.09345 6.49963 4.05476 6.56663C4.01608 6.63363 4.00547 6.71321 4.02524 6.788C4.04502 6.86279 4.09357 6.92673 4.16031 6.96586L4.70266 7.27898C4.73597 7.29822 4.77275 7.31071 4.8109 7.31574C4.84904 7.32076 4.8878 7.31822 4.92496 7.30826C4.96213 7.29831 4.99696 7.28113 5.02749 7.2577C5.05801 7.23428 5.08362 7.20508 5.10285 7.17176C5.1417 7.10447 5.15223 7.0245 5.13212 6.94945C5.11201 6.8744 5.06291 6.81041 4.99562 6.77156ZM15.8427 13.0341L15.3004 12.721C15.2331 12.6828 15.1535 12.6727 15.0788 12.693C15.0042 12.7132 14.9406 12.7622 14.9019 12.8292C14.8632 12.8962 14.8526 12.9758 14.8724 13.0506C14.8921 13.1254 14.9407 13.1893 15.0074 13.2284L15.5498 13.5416C15.5831 13.5608 15.6199 13.5733 15.658 13.5783C15.6961 13.5833 15.7349 13.5808 15.7721 13.5708C15.8092 13.5609 15.8441 13.5437 15.8746 13.5203C15.9051 13.4969 15.9307 13.4677 15.95 13.4343C15.9888 13.367 15.9993 13.2871 15.9792 13.212C15.9591 13.137 15.91 13.073 15.8427 13.0341ZM13.4359 4.05156C13.3686 4.01271 13.2886 4.00218 13.2136 4.02229C13.1385 4.0424 13.0745 4.0915 13.0357 4.15879L12.7225 4.70113C12.6843 4.76838 12.6742 4.84803 12.6945 4.92269C12.7148 4.99735 12.7637 5.06097 12.8307 5.09965C12.8977 5.13833 12.9773 5.14894 13.0521 5.12917C13.1269 5.10939 13.1908 5.06084 13.23 4.9941L13.5431 4.45176C13.5819 4.38447 13.5925 4.3045 13.5724 4.22945C13.5522 4.1544 13.5031 4.09041 13.4359 4.05156ZM7.17328 14.8987C7.13996 14.8794 7.10318 14.8669 7.06504 14.8619C7.0269 14.8569 6.98814 14.8594 6.95097 14.8694C6.91381 14.8793 6.87897 14.8965 6.84845 14.9199C6.81793 14.9434 6.79232 14.9726 6.77309 15.0059L6.45996 15.5482C6.42172 15.6155 6.41164 15.6951 6.43191 15.7698C6.45218 15.8445 6.50116 15.9081 6.56816 15.9468C6.63515 15.9854 6.71473 15.9961 6.78953 15.9763C6.86432 15.9565 6.92826 15.9079 6.96738 15.8412L7.28051 15.2989C7.31936 15.2316 7.32988 15.1516 7.30978 15.0766C7.28967 15.0015 7.24057 14.9375 7.17328 14.8987ZM15.95 6.56562C15.9111 6.49834 15.8472 6.44924 15.7721 6.42913C15.6971 6.40902 15.6171 6.41955 15.5498 6.4584L15.0075 6.77152C14.9407 6.81065 14.8922 6.87458 14.8724 6.94938C14.8526 7.02417 14.8632 7.10375 14.9019 7.17075C14.9406 7.23775 15.0042 7.28672 15.0789 7.30699C15.1535 7.32726 15.2332 7.31718 15.3004 7.27894L15.8428 6.96582C15.9101 6.92697 15.9592 6.86298 15.9793 6.78793C15.9994 6.71288 15.9888 6.63291 15.95 6.56562ZM5.10285 12.8282C5.08362 12.7949 5.05801 12.7657 5.02749 12.7423C4.99697 12.7189 4.96213 12.7017 4.92497 12.6917C4.8878 12.6818 4.84904 12.6792 4.8109 12.6842C4.77275 12.6893 4.73597 12.7018 4.70266 12.721L4.16031 13.0341C4.09357 13.0733 4.04502 13.1372 4.02524 13.212C4.00547 13.2868 4.01608 13.3664 4.05476 13.4334C4.09345 13.5004 4.15706 13.5493 4.23172 13.5696C4.30638 13.5899 4.38603 13.5798 4.45328 13.5416L4.99562 13.2284C5.06291 13.1896 5.11201 13.1256 5.13212 13.0505C5.15223 12.9755 5.1417 12.8955 5.10285 12.8282ZM7.28051 4.70113L6.96738 4.15879C6.92826 4.09205 6.86432 4.04349 6.78953 4.02372C6.71473 4.00394 6.63515 4.01455 6.56816 4.05324C6.50116 4.09192 6.45218 4.15553 6.43191 4.23019C6.41164 4.30485 6.42172 4.3845 6.45996 4.45176L6.77309 4.9941C6.79231 5.02743 6.81792 5.05664 6.84844 5.08007C6.87896 5.1035 6.9138 5.12068 6.95096 5.13064C6.98813 5.1406 7.02689 5.14313 7.06504 5.1381C7.10319 5.13307 7.13997 5.12058 7.17328 5.10133C7.24057 5.06247 7.28967 4.99849 7.30978 4.92343C7.32988 4.84838 7.31936 4.76842 7.28051 4.70113ZM13.5431 15.5482L13.23 15.0059C13.1908 14.9392 13.1269 14.8906 13.0521 14.8708C12.9773 14.8511 12.8977 14.8617 12.8307 14.9003C12.7637 14.939 12.7148 15.0026 12.6945 15.0773C12.6742 15.152 12.6843 15.2316 12.7225 15.2989L13.0357 15.8412C13.0549 15.8745 13.0805 15.9038 13.111 15.9272C13.1415 15.9506 13.1764 15.9678 13.2135 15.9777C13.2507 15.9877 13.2895 15.9902 13.3276 15.9852C13.3658 15.9802 13.4025 15.9677 13.4359 15.9484C13.5031 15.9096 13.5522 15.8456 13.5724 15.7705C13.5925 15.6955 13.5819 15.6155 13.5431 15.5482ZM14.3618 9.32918C14.3559 9.29114 14.3427 9.25463 14.3227 9.22173C14.3028 9.18882 14.2765 9.16017 14.2455 9.13742C14.2145 9.11467 14.1793 9.09825 14.1419 9.08912C14.1045 9.07998 14.0657 9.0783 14.0277 9.08418L10.8178 9.57801C10.6646 9.28293 10.3563 9.08078 10.0016 9.08078C9.8548 9.08078 9.71605 9.11554 9.59285 9.17699L6.45117 6.03531C6.39623 5.98037 6.32172 5.94951 6.24402 5.94951C6.16633 5.94951 6.09182 5.98037 6.03688 6.03531C5.98194 6.09025 5.95108 6.16476 5.95108 6.24246C5.95108 6.32015 5.98194 6.39467 6.03688 6.44961L9.17855 9.59129C9.11518 9.7182 9.08223 9.85814 9.08234 10C9.08234 10.5069 9.49473 10.9192 10.0016 10.9192C10.4548 10.9192 10.8323 10.5893 10.9071 10.1571L14.1168 9.66332C14.1936 9.65148 14.2625 9.60963 14.3085 9.54697C14.3544 9.48431 14.3736 9.40597 14.3618 9.32918ZM10.0015 10.3333C9.81773 10.3333 9.66824 10.1837 9.66824 10C9.66824 9.81625 9.81777 9.66672 10.0015 9.66672C10.1853 9.66672 10.3348 9.81625 10.3348 10C10.3348 10.1837 10.1853 10.3333 10.0015 10.3333Z" fill="#D62381"/>
<path d="M15.2625 3.81809C13.7132 2.49637 11.7358 1.80985 9.69422 1.88555C7.64121 1.96145 5.71 2.80383 4.25641 4.25743C2.80282 5.71102 1.96043 7.64223 1.88453 9.69524C1.80903 11.7368 2.49536 13.7143 3.81707 15.2635C3.84456 15.2958 3.87874 15.3217 3.91725 15.3395C3.95576 15.3572 3.99768 15.3664 4.04008 15.3663C4.09604 15.3663 4.15081 15.3502 4.19793 15.32C4.24505 15.2898 4.28254 15.2468 4.30596 15.196C4.32939 15.1452 4.33778 15.0887 4.33013 15.0333C4.32249 14.9779 4.29913 14.9258 4.26282 14.8832C3.03668 13.446 2.39996 11.6113 2.47004 9.71688C2.54047 7.81215 3.32203 6.02044 4.67071 4.67172C6.01938 3.32301 7.81114 2.54149 9.71586 2.47106C11.6104 2.40102 13.445 3.0377 14.8822 4.26383C14.9414 4.31342 15.0178 4.33762 15.0948 4.33117C15.1717 4.32471 15.243 4.28813 15.2932 4.22937C15.3433 4.17061 15.3682 4.09443 15.3624 4.01741C15.3567 3.94039 15.3208 3.86876 15.2625 3.81809ZM16.1809 4.73649C16.1302 4.67819 16.0586 4.64226 15.9815 4.63651C15.9045 4.63076 15.8283 4.65566 15.7696 4.70579C15.7108 4.75591 15.6742 4.82722 15.6678 4.90418C15.6613 4.98115 15.6855 5.05755 15.7351 5.11676C16.9613 6.55395 17.5979 8.38872 17.5279 10.2831C17.4575 12.1878 16.6759 13.9795 15.3272 15.3282C13.9786 16.677 12.1868 17.4585 10.2821 17.5289C8.38785 17.599 6.55293 16.9623 5.11575 15.7361C5.05653 15.6866 4.98013 15.6624 4.90316 15.6688C4.8262 15.6753 4.7549 15.7118 4.70477 15.7706C4.65464 15.8294 4.62974 15.9055 4.63549 15.9826C4.64124 16.0596 4.67718 16.1312 4.73547 16.1819C6.20762 17.4379 8.06645 18.12 9.99954 18.12C10.1007 18.12 10.2022 18.1182 10.3038 18.1144C12.3568 18.0385 14.288 17.1961 15.7416 15.7425C17.1952 14.289 18.0375 12.3577 18.1134 10.3047C18.1889 8.26325 17.5026 6.28571 16.1809 4.73649Z" fill="#D62381"/>
</g>
<defs>
<clipPath id="clip0_7534_749">
<rect width="20" height="20" fill="white"/>
</clipPath>
</defs>
</svg>
