<svg width="20" height="20" viewBox="0 0 20 20" fill="none" xmlns="http://www.w3.org/2000/svg">
<path d="M19.9408 9.82318C17.4834 6.56517 13.8601 4.69666 10 4.69666C6.13988 4.69666 2.5166 6.56521 0.059176 9.82318C0.0207726 9.87411 0 9.93617 0 9.99996C0 10.0637 0.0207726 10.1258 0.059176 10.1767C2.5166 13.4347 6.13988 15.3033 10 15.3033C13.8601 15.3033 17.4834 13.4348 19.9408 10.1768C19.9792 10.1258 20 10.0638 20 9.99998C20 9.93617 19.9792 9.87411 19.9408 9.82318ZM10 14.7162C6.39597 14.7162 3.00531 13.0003 0.663512 9.99998C3.00531 6.99966 6.39597 5.28373 10 5.28373C13.604 5.28373 16.9946 6.99966 19.3365 9.99998C16.9946 13.0003 13.604 14.7162 10 14.7162Z" fill="#D62381"/>
<path d="M13.4918 6.8867C13.44 6.82862 13.3672 6.7935 13.2894 6.78908C13.2117 6.78466 13.1354 6.81131 13.0773 6.86315C13.0192 6.91499 12.9841 6.98778 12.9797 7.06552C12.9753 7.14325 13.0019 7.21955 13.0538 7.27764C13.7228 8.02725 14.0913 8.99413 14.0913 9.99999C14.0913 12.2552 12.2565 14.09 10.0013 14.09C7.74602 14.09 5.91125 12.2552 5.91125 9.99999C5.91125 7.74479 7.74602 5.90995 10.0013 5.90995C10.6616 5.90995 11.2918 6.06237 11.8741 6.36292C11.9432 6.39778 12.0233 6.40395 12.0969 6.38008C12.1706 6.35621 12.2318 6.30423 12.2673 6.23545C12.3028 6.16667 12.3096 6.08666 12.2864 6.01283C12.2632 5.93899 12.2118 5.87731 12.1434 5.8412C11.4863 5.50209 10.7456 5.32288 10.0013 5.32288C7.42234 5.32288 5.32422 7.421 5.32422 9.99999C5.32422 12.579 7.4223 14.6771 10.0013 14.6771C12.5803 14.6771 14.6784 12.5789 14.6784 9.99999C14.6784 8.84967 14.257 7.74405 13.4918 6.8867Z" fill="#D62381"/>
<path d="M9.99973 8.14087C8.97465 8.14087 8.14062 8.97485 8.14062 9.99997C8.14062 11.025 8.97465 11.8591 9.99973 11.8591C11.0248 11.8591 11.8588 11.025 11.8588 9.99997C11.8588 8.97489 11.0248 8.14087 9.99973 8.14087ZM9.99973 11.272C9.29836 11.272 8.7277 10.7013 8.7277 9.99993C8.7277 9.29853 9.29836 8.7279 9.99973 8.7279C10.7011 8.7279 11.2718 9.29853 11.2718 9.99993C11.2718 10.7013 10.7011 11.272 9.99973 11.272Z" fill="#D62381"/>
</svg>
