<svg width="20" height="20" viewBox="0 0 20 20" fill="none" xmlns="http://www.w3.org/2000/svg">
<g clip-path="url(#clip0_7534_766)">
<path d="M0.203148 8.3297L3.67659 9.21876V19.6875C3.67659 19.7704 3.70951 19.8499 3.76811 19.9085C3.82672 19.9671 3.90621 20 3.98909 20H16.0203C16.1032 20 16.1827 19.9671 16.2413 19.9085C16.2999 19.8499 16.3328 19.7704 16.3328 19.6875V9.21876L19.8063 8.32501C19.87 8.29175 19.9219 8.23977 19.9552 8.17607C19.9884 8.11238 20.0013 8.04003 19.9922 7.96876L18.836 3.86407C18.836 3.86407 18.836 3.84845 18.8281 3.84064C18.5732 3.13342 18.1613 2.49321 17.6232 1.96817C17.0852 1.44313 16.4351 1.04694 15.7219 0.809387C14.7844 0.496887 13.9219 0.228137 13.1547 0.0125124C13.1093 -0.000501317 13.0615 -0.00304427 13.0149 0.0050749C12.9684 0.0131941 12.9243 0.0317639 12.886 0.0593874C12.2203 0.539075 11.1422 0.826575 10.0016 0.826575C8.86096 0.826575 7.78284 0.539075 7.11721 0.0593874C7.07887 0.0317639 7.03477 0.0131941 6.98822 0.0050749C6.94167 -0.00304427 6.89389 -0.000501317 6.84846 0.0125124C6.08127 0.228137 5.21721 0.495325 4.28127 0.809387C3.56884 1.04613 2.91928 1.44113 2.3813 1.96476C1.84333 2.48839 1.43092 3.12705 1.17502 3.83282C1.17502 3.83282 1.17502 3.84845 1.17502 3.85626L0.0140858 7.95314C-0.000375651 8.02797 0.0103269 8.10548 0.044525 8.1736C0.0787232 8.24171 0.134495 8.2966 0.203148 8.3297ZM1.76565 4.03751C1.99104 3.42306 2.35213 2.86736 2.82204 2.41179C3.29195 1.95622 3.85857 1.61251 4.47971 1.40626C5.35002 1.11095 6.15627 0.859387 6.87659 0.653137C7.65784 1.16251 8.78284 1.45157 10.0016 1.45157C11.2203 1.45157 12.3453 1.16251 13.1266 0.653137C13.8469 0.859387 14.6531 1.11095 15.5235 1.40626C16.1451 1.613 16.712 1.95742 17.182 2.41383C17.6519 2.87025 18.0127 3.42688 18.2375 4.0422L19.3016 7.81251L16.3328 8.57501V4.44376C16.3328 4.36088 16.2999 4.2814 16.2413 4.22279C16.1827 4.16419 16.1032 4.13126 16.0203 4.13126C15.9375 4.13126 15.858 4.16419 15.7994 4.22279C15.7408 4.2814 15.7078 4.36088 15.7078 4.44376V19.375H4.30159V4.44376C4.30159 4.36088 4.26866 4.2814 4.21006 4.22279C4.15145 4.16419 4.07197 4.13126 3.98909 4.13126C3.90621 4.13126 3.82672 4.16419 3.76811 4.22279C3.70951 4.2814 3.67659 4.36088 3.67659 4.44376V8.57814L0.701586 7.81251L1.76565 4.03751Z" fill="#D62381"/>
</g>
<defs>
<clipPath id="clip0_7534_766">
<rect width="20" height="20" fill="white"/>
</clipPath>
</defs>
</svg>
