<svg width="20" height="20" viewBox="0 0 20 20" fill="none" xmlns="http://www.w3.org/2000/svg">
<g clip-path="url(#clip0_7534_791)">
<path d="M19.9406 11.1981C19.891 11.0989 19.767 11.0493 19.6678 11.0245C19.0973 11.0245 14.1866 10.826 14.1866 5.12165C14.1866 4.94804 14.0378 4.79922 13.8642 4.79922C13.6906 4.79922 13.5417 4.94804 13.5417 5.12165C13.5417 10.826 8.63101 11.0245 8.08537 11.0245C8.01096 11.0245 7.93656 11.0493 7.88695 11.0989C7.83735 11.1237 7.81255 11.1733 7.78775 11.1981C7.73814 11.2973 7.73814 11.4213 7.78775 11.5205C7.83735 11.6197 7.96136 11.6941 8.08537 11.6941H8.11017C8.68061 11.6941 13.5666 11.8925 13.5666 17.5969C13.5666 17.7705 13.7154 17.9193 13.889 17.9193C14.0626 17.9193 14.2114 17.7705 14.2114 17.5969C14.2114 11.9173 19.0973 11.6941 19.6678 11.6941C19.7918 11.6941 19.891 11.6197 19.9654 11.5205C20.015 11.4213 20.015 11.2973 19.9406 11.1981ZM13.8642 15.1664C13.1449 12.8102 11.384 11.7933 9.9951 11.3469C11.384 10.9005 13.1449 9.88358 13.8642 7.52742C14.5834 9.88358 16.3443 10.9005 17.7332 11.3469C16.3443 11.7933 14.5834 12.8102 13.8642 15.1664ZM9.77189 4.74962C9.9455 4.74962 10.0943 4.60081 10.0943 4.4024C10.0943 4.22878 9.9455 4.07997 9.77189 4.07997C9.47427 4.07997 6.79568 3.98077 6.79568 0.855748C6.79568 0.682136 6.64687 0.533325 6.47325 0.533325C6.29964 0.533325 6.15083 0.682136 6.15083 0.855748C6.15083 3.98077 3.47224 4.07997 3.17462 4.07997H3.14982C2.97621 4.10478 2.8522 4.22878 2.8522 4.4024C2.8522 4.57601 3.00101 4.72482 3.17462 4.72482C3.49705 4.72482 6.15083 4.82403 6.15083 7.94905C6.15083 8.12266 6.29964 8.27147 6.47325 8.27147C6.62206 8.29627 6.77087 8.14746 6.77087 7.97385C6.77087 4.84883 9.44946 4.74962 9.74708 4.74962H9.77189ZM6.44845 6.16332C6.05162 5.22085 5.33237 4.70002 4.66273 4.4024C5.38198 4.10478 6.05162 3.53434 6.44845 2.64147C6.84528 3.58394 7.56453 4.10478 8.23418 4.4024C7.51493 4.70002 6.84528 5.27046 6.44845 6.16332ZM6.91969 15.2656C6.62206 15.2656 3.94348 15.1664 3.94348 12.0413C3.94348 11.8677 3.79467 11.7189 3.62105 11.7189C3.44744 11.7189 3.29863 11.8677 3.29863 12.0413C3.29863 15.1664 0.620044 15.2656 0.322423 15.2656H0.297621C0.124009 15.2904 0 15.4144 0 15.588C0 15.7616 0.14881 15.9104 0.322423 15.9104C0.644845 15.9104 3.29863 16.0096 3.29863 19.1346C3.29863 19.3082 3.44744 19.4571 3.62105 19.4571C3.76986 19.5067 3.91867 19.3578 3.91867 19.1594C3.91867 16.0344 6.59726 15.9352 6.89488 15.9352H6.91969C7.0933 15.9352 7.24211 15.7864 7.24211 15.588C7.24211 15.4144 7.0933 15.2656 6.91969 15.2656ZM3.59625 17.3737C3.17462 16.4312 2.48017 15.9104 1.81053 15.6128C2.52978 15.3152 3.19942 14.7447 3.59625 13.8519C3.99308 14.7943 4.71233 15.3152 5.38198 15.6128C4.66273 15.9104 3.99308 16.4808 3.59625 17.3737Z" fill="#D62381"/>
</g>
<defs>
<clipPath id="clip0_7534_791">
<rect width="20" height="20" fill="white"/>
</clipPath>
</defs>
</svg>
