<svg width="20" height="20" viewBox="0 0 20 20" fill="none" xmlns="http://www.w3.org/2000/svg">
<path d="M16.739 2.19676C14.4307 2.15438 12.4743 1.62609 10.9243 0.62672C10.3623 0.264376 9.63574 0.264181 9.07339 0.62672C7.5232 1.62609 5.56738 2.15438 3.26019 2.19676C2.78956 2.20551 2.35113 2.39668 2.02573 2.7352C1.70515 3.06871 1.53374 3.50613 1.54335 3.9668C1.7105 11.966 4.31324 17.1876 9.27933 19.4864C9.50478 19.5909 9.75031 19.6451 9.99883 19.6451C10.2474 19.6451 10.4929 19.591 10.7184 19.4864C15.6842 17.1886 18.2874 11.9671 18.4558 3.96703C18.4654 3.50625 18.2942 3.06875 17.9734 2.73516C17.648 2.39668 17.2096 2.20543 16.739 2.19676ZM10.5595 19.1432C10.3838 19.2247 10.1925 19.2669 9.99883 19.2669C9.80516 19.2669 9.61383 19.2246 9.43816 19.1431C4.61437 16.9102 2.08538 11.8015 1.92156 3.95887C1.91398 3.59938 2.04788 3.25793 2.29839 2.99734C2.5537 2.73176 2.89777 2.58184 3.26722 2.575C5.6457 2.53125 7.6682 1.98274 9.27839 0.944571C9.71609 0.662384 10.2816 0.662384 10.7193 0.944571C12.3293 1.98274 14.3522 2.53121 16.732 2.575C17.1015 2.58176 17.4454 2.7318 17.7008 2.99727C17.9514 3.25805 18.0851 3.59961 18.0776 3.95914C17.9125 11.8025 15.3829 16.9111 10.5595 19.1432Z" fill="#D62381"/>
<path d="M16.3819 4.07235C13.9495 3.98352 11.8359 3.39856 10.0997 2.3336C10.0383 2.29606 9.95489 2.30036 9.90133 2.33313C8.16501 3.39817 6.05153 3.98332 3.61969 4.07235C3.56979 4.07419 3.52265 4.09569 3.48853 4.13215C3.45442 4.16861 3.43611 4.21708 3.43758 4.267C3.60211 9.77934 4.957 15.3081 9.91794 17.703C9.99176 17.7387 10.1076 17.6933 10.0862 17.7009C15.0525 15.3018 16.3995 9.75883 16.5642 4.267C16.5656 4.21706 16.5473 4.16859 16.5131 4.13213C16.479 4.09567 16.4318 4.07418 16.3819 4.07235ZM8.83559 12.7078C7.99262 12.7078 7.30684 12.022 7.30684 11.1791V8.84829C7.30684 8.00532 7.99266 7.31954 8.83559 7.31954H11.1664C12.0093 7.31954 12.695 8.00536 12.695 8.84829V11.1791C12.695 12.022 12.0093 12.7078 11.1664 12.7078H8.83559ZM9.8118 2.82567V6.94129H8.83559C7.78403 6.94129 6.9286 7.79672 6.9286 8.84829V9.82442H4.51918C4.12665 8.26168 3.89219 6.45274 3.82176 4.44243C6.10958 4.3343 8.122 3.79106 9.8118 2.82567ZM4.61848 10.2026H6.9286V11.1791C6.9286 12.2306 7.78403 13.086 8.83559 13.086H9.8118V17.2267C7.24965 15.8936 5.54758 13.591 4.61848 10.2026ZM10.19 17.226V13.086H11.1664C12.2178 13.086 13.0732 12.2306 13.0732 11.1791V10.2027H15.3824C14.4531 13.5909 12.7515 15.8931 10.19 17.226ZM15.4818 9.82442H13.0732V8.84829C13.0732 7.79672 12.2178 6.94129 11.1664 6.94129H10.19V2.82649C11.8794 3.79145 13.8919 4.33446 16.18 4.44243C16.1091 6.45239 15.8746 8.26129 15.4818 9.82442Z" fill="#D62381"/>
<path d="M11.5119 8.99391C11.2717 8.75383 10.8813 8.75411 10.6414 8.99399L9.48085 10.1543L9.35952 10.033C9.11944 9.7929 8.72901 9.79297 8.48893 10.0329C8.25034 10.2713 8.24663 10.6616 8.48893 10.9035L9.02671 11.4415V11.4415C9.27733 11.6916 9.68436 11.6918 9.93495 11.4415L11.5119 9.8645C11.7518 9.6245 11.7518 9.23411 11.5119 8.99391ZM11.2445 9.59715L9.66757 11.174C9.61799 11.2235 9.55084 11.2512 9.48083 11.2512C9.41082 11.2512 9.34368 11.2234 9.29413 11.174L8.75636 10.636C8.73432 10.614 8.71684 10.5878 8.70491 10.559C8.69298 10.5302 8.68684 10.4994 8.68684 10.4682C8.68684 10.437 8.69298 10.4062 8.70491 10.3774C8.71684 10.3486 8.73432 10.3225 8.75636 10.3004C8.84612 10.2107 9.00233 10.2107 9.0921 10.3004L9.34714 10.5556C9.36469 10.5731 9.38554 10.587 9.40848 10.5966C9.43142 10.6061 9.45601 10.611 9.48085 10.611C9.50568 10.611 9.53027 10.6061 9.55321 10.5966C9.57616 10.587 9.597 10.5731 9.61456 10.5556L10.9088 9.26141C10.9534 9.217 11.0137 9.19205 11.0766 9.19204C11.1396 9.19202 11.1999 9.21694 11.2445 9.26133C11.3369 9.35395 11.3369 9.50465 11.2445 9.59715Z" fill="#D62381"/>
</svg>
