<svg width="20" height="20" viewBox="0 0 20 20" fill="none" xmlns="http://www.w3.org/2000/svg">
<g clip-path="url(#clip0_7534_795)">
<path d="M9.06891 10.5003L12.4161 7.15316C12.5686 7.00063 12.8159 7.00066 12.9685 7.15316C13.1211 7.3057 13.1211 7.55305 12.9685 7.70563L9.31086 11.3632C9.27186 11.4022 9.22506 11.4325 9.17352 11.4521C9.12198 11.4717 9.06688 11.4802 9.01184 11.477C8.95679 11.4738 8.90305 11.4589 8.85416 11.4335C8.80526 11.408 8.7623 11.3724 8.72813 11.3292L6.99891 9.14023C6.86516 8.97098 6.89398 8.72531 7.06324 8.59156C7.23262 8.45781 7.4782 8.48668 7.61191 8.65594L9.06891 10.5003ZM9.99883 3.91531C12.9449 3.91531 15.3417 6.31211 15.3417 9.25816C15.3417 12.2042 12.9449 14.601 9.99883 14.601C7.05277 14.601 4.65598 12.2043 4.65598 9.2582C4.65598 6.31211 7.05277 3.91531 9.99883 3.91531ZM9.99883 4.69656C7.48352 4.69656 5.43723 6.74289 5.43723 9.25816C5.43723 11.7734 7.48352 13.8198 9.99883 13.8198C12.5141 13.8198 14.5604 11.7735 14.5604 9.2582C14.5604 6.74293 12.5141 4.69656 9.99883 4.69656ZM18.7398 2.69344V9.98922C18.7398 11.1668 18.4568 12.3524 17.8987 13.513C17.3986 14.553 16.6905 15.5504 15.794 16.4773C14.1726 18.1538 12.044 19.4657 10.0999 19.9866C10.0337 20.0045 9.96396 20.0045 9.89773 19.9867C7.95367 19.4658 5.82504 18.1539 4.20363 16.4773C3.30715 15.5504 2.59902 14.5531 2.09895 13.5131C1.54082 12.3524 1.25781 11.1668 1.25781 9.98926V2.69344C1.25781 2.5952 1.29482 2.50056 1.36147 2.42839C1.42813 2.35622 1.51953 2.31181 1.61746 2.30402C4.01891 2.11301 6.04699 0.985156 7.32555 0.0726563C7.39178 0.0253901 7.47113 -1.0991e-05 7.5525 3.56765e-09H12.4452C12.5265 3.56765e-09 12.6059 0.0253906 12.6721 0.0726563C13.9506 0.985156 15.9787 2.11301 18.3802 2.30402C18.4781 2.31181 18.5695 2.35622 18.6362 2.42839C18.7028 2.50056 18.7398 2.5952 18.7398 2.69344ZM17.9586 3.04754C16.0655 2.82645 14.1265 2.04777 12.3209 0.78125H7.67672C5.87117 2.04777 3.93219 2.82645 2.0391 3.04754V9.98926C2.0391 14.5034 6.70879 18.2718 9.99887 19.2042C13.2889 18.2718 17.9586 14.5034 17.9586 9.98926V3.04754H17.9586Z" fill="#D62381"/>
</g>
<defs>
<clipPath id="clip0_7534_795">
<rect width="20" height="20" fill="white"/>
</clipPath>
</defs>
</svg>
