<svg width="20" height="20" viewBox="0 0 20 20" fill="none" xmlns="http://www.w3.org/2000/svg">
<path d="M18.9066 8.35L17.7341 7.41188L17.72 7.39969L18.8116 7.18125C18.8824 7.16714 18.9461 7.1289 18.9919 7.07305C19.0376 7.0172 19.0626 6.9472 19.0625 6.875V5.9375C19.0625 5.85462 19.0296 5.77513 18.971 5.71653C18.9124 5.65792 18.8329 5.625 18.75 5.625H17.1875C17.1046 5.625 17.0251 5.65792 16.9665 5.71653C16.9079 5.77513 16.875 5.85462 16.875 5.9375V6.485L16.8534 6.45594C16.8336 6.40287 16.7993 6.35643 16.7544 6.32187C16.5784 6.07281 16.4278 5.82344 16.3297 5.60781L15.8016 4.44625C15.465 3.70531 14.5638 3.125 13.75 3.125H6.25C5.43625 3.125 4.535 3.70531 4.19844 4.44625L3.67063 5.6075C3.5725 5.82313 3.42188 6.07281 3.24594 6.32187C3.20112 6.35651 3.16682 6.40293 3.14687 6.45594L3.12531 6.485V5.9375C3.12531 5.85462 3.09239 5.77513 3.03378 5.71653C2.97518 5.65792 2.89569 5.625 2.81281 5.625H1.25C1.16712 5.625 1.08763 5.65792 1.02903 5.71653C0.970424 5.77513 0.9375 5.85462 0.9375 5.9375V6.875C0.9375 7.02406 1.0425 7.15219 1.18875 7.18125L2.28031 7.39969L2.26625 7.41188L1.09344 8.35C0.480313 8.84062 0 9.84 0 10.625V15.9375C0 16.4544 0.420625 16.875 0.9375 16.875H3.4375C3.95438 16.875 4.375 16.4544 4.375 15.9375V15.3125H15.625V15.9375C15.625 16.4544 16.0456 16.875 16.5625 16.875H19.0625C19.5794 16.875 20 16.4544 20 15.9375V10.625C20 9.84 19.5197 8.84062 18.9066 8.35ZM16.0669 14.6875L15.3503 13.9709C15.0462 13.6669 14.4925 13.4375 14.0625 13.4375H5.78125C5.35125 13.4375 4.7975 13.6669 4.49344 13.9709L3.77688 14.6875H1.5625C1.04562 14.6875 0.625 14.2669 0.625 13.75V12.1875H0.9375V12.5C0.9375 13.1894 1.49812 13.75 2.1875 13.75H3.125C3.20788 13.75 3.28737 13.7171 3.34597 13.6585C3.40458 13.5999 3.4375 13.5204 3.4375 13.4375C3.4375 13.3546 3.40458 13.2751 3.34597 13.2165C3.28737 13.1579 3.20788 13.125 3.125 13.125H2.1875C1.84281 13.125 1.5625 12.8447 1.5625 12.5V12.1875H2.1875C2.44688 12.1875 2.85 12.3544 3.03344 12.5378C3.06239 12.5669 3.09682 12.59 3.13473 12.6058C3.17265 12.6216 3.21331 12.6297 3.25437 12.6297C3.29544 12.6297 3.3361 12.6216 3.37402 12.6058C3.41193 12.59 3.44636 12.5669 3.47531 12.5378C3.50436 12.5088 3.5274 12.4744 3.54312 12.4365C3.55885 12.3986 3.56694 12.3579 3.56694 12.3169C3.56694 12.2758 3.55885 12.2352 3.54312 12.1973C3.5274 12.1594 3.50436 12.1249 3.47531 12.0959C3.17125 11.7919 2.61781 11.5625 2.1875 11.5625H0.625V10.625C0.625 10.5147 0.6425 10.3956 0.667188 10.2741C0.867188 10.4828 1.15813 10.625 1.5625 10.625H4.0625C4.14537 10.625 4.22485 10.592 4.28344 10.5334L4.6875 10.1294L5.09156 10.5334C5.12054 10.5625 5.15498 10.5855 5.1929 10.6013C5.23081 10.617 5.27146 10.625 5.3125 10.625H8.93313L9.77906 11.4709C9.80802 11.5001 9.84244 11.5232 9.88036 11.5389C9.91827 11.5547 9.95893 11.5628 10 11.5628C10.0411 11.5628 10.0817 11.5547 10.1196 11.5389C10.1576 11.5232 10.192 11.5001 10.2209 11.4709L11.0669 10.625H14.6875C14.7703 10.625 14.85 10.5922 14.9084 10.5334L15.3125 10.1294L15.7166 10.5334C15.7455 10.5625 15.78 10.5855 15.8179 10.6013C15.8558 10.617 15.8965 10.625 15.9375 10.625H18.4375C18.8419 10.625 19.1328 10.4828 19.3328 10.2741C19.3575 10.3956 19.375 10.5147 19.375 10.625V11.5625H17.8125C17.3825 11.5625 16.8288 11.7919 16.5247 12.0959C16.4957 12.125 16.4727 12.1594 16.457 12.1973C16.4413 12.2352 16.4332 12.2758 16.4332 12.3169C16.4332 12.3579 16.4413 12.3985 16.457 12.4364C16.4727 12.4744 16.4957 12.5088 16.5247 12.5378C16.5537 12.5668 16.5881 12.5898 16.6261 12.6055C16.664 12.6212 16.7046 12.6293 16.7456 12.6293C16.7867 12.6293 16.8273 12.6212 16.8652 12.6055C16.9031 12.5898 16.9375 12.5668 16.9666 12.5378C17.15 12.3544 17.5531 12.1875 17.8125 12.1875H18.4375V12.5C18.4375 12.8447 18.1572 13.125 17.8125 13.125H16.875C16.7921 13.125 16.7126 13.1579 16.654 13.2165C16.5954 13.2751 16.5625 13.3546 16.5625 13.4375C16.5625 13.5204 16.5954 13.5999 16.654 13.6585C16.7126 13.7171 16.7921 13.75 16.875 13.75H17.8125C18.5019 13.75 19.0625 13.1894 19.0625 12.5V12.1875H19.375V13.75C19.375 14.2669 18.9544 14.6875 18.4375 14.6875H16.0669ZM15.1831 14.6875H4.66062L4.93531 14.4128C5.11875 14.2294 5.52187 14.0625 5.78125 14.0625H14.0625C14.3219 14.0625 14.725 14.2294 14.9084 14.4128L15.1831 14.6875ZM3.6125 6.875H16.3875C16.6903 7.27531 17.0363 7.65406 17.3434 7.9L17.7194 8.20063L15.5091 9.08469L15.5084 9.085C15.4695 9.1007 15.4341 9.12408 15.4044 9.15375L15.0919 9.46625L14.5581 10H10.9375C10.8965 9.99996 10.8558 10.008 10.8179 10.0237C10.78 10.0395 10.7455 10.0625 10.7166 10.0916L10 10.8081L9.28344 10.0916C9.25446 10.0625 9.22002 10.0395 9.1821 10.0237C9.14419 10.008 9.10354 9.99996 9.0625 10H5.44187L4.90844 9.46656L4.59594 9.15406C4.56622 9.12439 4.53083 9.10101 4.49187 9.08531L4.49125 9.085L2.28094 8.20094L2.65687 7.90031C2.96375 7.65406 3.30969 7.27531 3.6125 6.875ZM19.0441 9.50594C18.9813 9.8325 18.7787 10 18.4375 10H16.0669L15.7544 9.6875L15.8006 9.64125L18.2803 8.64937L18.5159 8.83812C18.7141 8.99656 18.8969 9.2375 19.0441 9.50594ZM17.5 6.25H18.4375V6.61875L17.5 6.80625V6.25ZM4.23906 5.86625L4.76687 4.705C5.0025 4.18719 5.68156 3.75 6.25 3.75H13.75C14.3184 3.75 14.9975 4.18719 15.2328 4.70469L15.7609 5.86625C15.8159 5.98687 15.8875 6.11719 15.9659 6.25H4.03406C4.1125 6.11719 4.18437 5.98687 4.23906 5.86625ZM1.5625 6.25H2.5V6.80625L1.5625 6.61875V6.25ZM1.48375 8.83812L1.71937 8.64937L4.19938 9.64125L4.24563 9.6875L3.93313 10H1.5625C1.22125 10 1.01875 9.8325 0.955938 9.50594C1.10312 9.2375 1.28563 8.99656 1.48375 8.83812ZM3.4375 16.25H0.9375C0.765312 16.25 0.625 16.1097 0.625 15.9375V14.9922C0.893978 15.1988 1.22335 15.3113 1.5625 15.3125H3.75V15.9375C3.75 16.1097 3.60969 16.25 3.4375 16.25ZM19.0625 16.25H16.5625C16.3903 16.25 16.25 16.1097 16.25 15.9375V15.3125H18.4375C18.7906 15.3125 19.1131 15.1903 19.375 14.9922V15.9375C19.375 16.1097 19.2347 16.25 19.0625 16.25Z" fill="#D62381"/>
</svg>
