<svg width="20" height="20" viewBox="0 0 20 20" fill="none" xmlns="http://www.w3.org/2000/svg">
<g clip-path="url(#clip0_7534_820)">
<path d="M9.17652 5.54003C9.17652 5.42355 9.30968 5.37359 9.44699 5.37359C9.58015 5.37359 9.71746 5.42351 9.71746 5.54003V7.48742C9.71746 8.1823 9.27636 8.44027 8.71882 8.44027C8.15711 8.44027 7.72019 8.1823 7.72019 7.48742V5.54003C7.72019 5.42355 7.85336 5.37359 7.99066 5.37359C8.12382 5.37359 8.26113 5.42351 8.26113 5.54003V7.48742C8.26113 7.81199 8.43175 7.96593 8.71882 7.96593C9.00593 7.96593 9.17656 7.81199 9.17656 7.48742V5.54003H9.17652ZM10.0837 5.63992C10.0795 5.62328 10.0753 5.6066 10.0753 5.59831C10.0753 5.46519 10.2709 5.37363 10.4166 5.37363C10.5081 5.37363 10.5788 5.40273 10.5996 5.48183L11.2363 7.73706L11.8687 5.48183C11.8896 5.40277 11.9603 5.37363 12.0518 5.37363C12.1975 5.37363 12.393 5.46933 12.393 5.59831C12.393 5.61078 12.3889 5.62331 12.3847 5.63992L11.5858 8.25718C11.5484 8.38199 11.3944 8.44027 11.2362 8.44027C11.0781 8.44027 10.9283 8.38203 10.8867 8.25718L10.0837 5.63992ZM14.3426 11.5744C14.3976 11.629 14.472 11.6595 14.5495 11.6593C14.6269 11.6592 14.7012 11.6283 14.756 11.5735C14.8108 11.5187 14.8416 11.4445 14.8418 11.367C14.8419 11.2895 14.8114 11.2151 14.7569 11.1601L14.1191 10.5224C14.0638 10.469 13.9898 10.4394 13.913 10.4401C13.8361 10.4407 13.7626 10.4715 13.7083 10.5259C13.6539 10.5802 13.6231 10.6537 13.6225 10.7306C13.6218 10.8074 13.6514 10.8815 13.7048 10.9367L14.3426 11.5744ZM5.87773 3.1096C5.93276 3.16415 6.00715 3.19467 6.08463 3.1945C6.16211 3.19432 6.23636 3.16347 6.29114 3.10868C6.34592 3.05389 6.37677 2.97963 6.37694 2.90216C6.37711 2.82468 6.34658 2.75029 6.29203 2.69527L5.65429 2.05749C5.59904 2.00408 5.52501 1.97451 5.44816 1.97517C5.37131 1.97582 5.29779 2.00664 5.24345 2.06099C5.18911 2.11533 5.1583 2.18885 5.15765 2.2657C5.157 2.34255 5.18658 2.41658 5.24 2.47183L5.87773 3.1096ZM9.99843 1.57437C10.0761 1.57437 10.1507 1.5435 10.2056 1.48856C10.2605 1.43362 10.2914 1.3591 10.2914 1.2814V0.379486C10.2914 0.21765 10.1602 0.0865173 9.99843 0.0865173C9.83664 0.0865173 9.70547 0.21765 9.70547 0.379486V1.2814C9.70547 1.3591 9.73633 1.43362 9.79127 1.48856C9.84622 1.5435 9.92073 1.57437 9.99843 1.57437ZM9.70547 12.3505V13.2525C9.70547 13.4143 9.83664 13.5455 9.99843 13.5455C10.1602 13.5455 10.2914 13.4143 10.2914 13.2525V12.3505C10.2914 12.1887 10.1602 12.0576 9.99843 12.0576C9.83664 12.0576 9.70547 12.1887 9.70547 12.3505ZM5.65429 11.5744L6.29207 10.9367C6.34661 10.8817 6.37715 10.8073 6.37698 10.7298C6.37681 10.6523 6.34596 10.5781 6.29118 10.5233C6.2364 10.4685 6.16214 10.4377 6.08467 10.4375C6.00719 10.4373 5.9328 10.4678 5.87777 10.5224L5.24 11.1601C5.18545 11.2151 5.15492 11.2895 5.15508 11.367C5.15525 11.4445 5.1861 11.5187 5.24088 11.5735C5.29567 11.6283 5.36992 11.6592 5.4474 11.6593C5.52487 11.6595 5.59927 11.629 5.65429 11.5744ZM14.1191 3.1096L14.7569 2.47183C14.8115 2.41681 14.842 2.34242 14.8418 2.26494C14.8417 2.18746 14.8108 2.11321 14.756 2.05842C14.7012 2.00363 14.627 1.97277 14.5495 1.9726C14.472 1.97243 14.3976 2.00295 14.3426 2.05749L13.7048 2.69527C13.6503 2.75029 13.6198 2.82468 13.6199 2.90216C13.6201 2.97963 13.6509 3.05389 13.7057 3.10868C13.7605 3.16347 13.8348 3.19432 13.9122 3.1945C13.9897 3.19467 14.0641 3.16415 14.1191 3.1096ZM3.56195 7.10894H4.46386C4.62566 7.10894 4.75683 6.97781 4.75683 6.81597C4.75683 6.65413 4.62566 6.523 4.46386 6.523H3.56195C3.40015 6.523 3.26898 6.65413 3.26898 6.81597C3.26898 6.97781 3.40011 7.10894 3.56195 7.10894ZM15.533 7.10894H16.4349C16.5967 7.10894 16.7279 6.97781 16.7279 6.81597C16.7279 6.65413 16.5967 6.523 16.4349 6.523H15.533C15.3712 6.523 15.24 6.65413 15.24 6.81597C15.24 6.97781 15.3712 7.10894 15.533 7.10894ZM15.7782 18.8759C15.8234 18.876 15.8679 18.8656 15.9084 18.8455C15.9488 18.8255 15.9841 18.7964 16.0115 18.7605C16.0388 18.7246 16.0575 18.6829 16.0661 18.6385C16.0747 18.5942 16.0729 18.5485 16.0609 18.505L15.8668 17.8013C15.8565 17.7642 15.8391 17.7295 15.8155 17.6991C15.7918 17.6688 15.7624 17.6434 15.729 17.6244C15.6955 17.6054 15.6586 17.5932 15.6204 17.5885C15.5823 17.5837 15.5435 17.5866 15.5064 17.5968C15.4315 17.6174 15.3679 17.667 15.3296 17.7346C15.2912 17.8022 15.2813 17.8822 15.3019 17.9571L15.496 18.6608C15.5131 18.7226 15.5499 18.7771 15.6009 18.8159C15.6518 18.8548 15.7141 18.8759 15.7782 18.8759ZM13.5051 18.8759C13.5502 18.876 13.5948 18.8656 13.6352 18.8455C13.6757 18.8255 13.711 18.7964 13.7383 18.7605C13.7657 18.7246 13.7844 18.6829 13.7929 18.6385C13.8015 18.5942 13.7997 18.5485 13.7877 18.505L13.5936 17.8013C13.5834 17.7642 13.5659 17.7295 13.5423 17.6991C13.5187 17.6688 13.4893 17.6434 13.4558 17.6244C13.4223 17.6054 13.3855 17.5932 13.3473 17.5885C13.3091 17.5837 13.2704 17.5866 13.2333 17.5968C13.1584 17.6174 13.0947 17.667 13.0564 17.7346C13.018 17.8022 13.0081 17.8822 13.0287 17.9571L13.2228 18.6608C13.2399 18.7226 13.2767 18.7771 13.3277 18.8159C13.3787 18.8548 13.441 18.8759 13.5051 18.8759ZM11.2319 18.8759C11.2771 18.876 11.3216 18.8656 11.3621 18.8455C11.4025 18.8255 11.4378 18.7964 11.4652 18.7605C11.4925 18.7246 11.5112 18.6829 11.5198 18.6385C11.5283 18.5942 11.5265 18.5485 11.5145 18.505L11.3204 17.8013C11.2998 17.7264 11.2502 17.6628 11.1826 17.6244C11.115 17.5861 11.035 17.5761 10.9601 17.5968C10.8852 17.6174 10.8216 17.667 10.7832 17.7346C10.7449 17.8022 10.7349 17.8822 10.7556 17.9571L10.9497 18.6608C10.9667 18.7226 11.0036 18.7771 11.0545 18.8159C11.1055 18.8548 11.1678 18.8759 11.2319 18.8759ZM8.95875 18.8759C9.00389 18.876 9.04843 18.8656 9.08889 18.8455C9.12935 18.8255 9.16464 18.7964 9.192 18.7605C9.21936 18.7246 9.23805 18.6829 9.24661 18.6385C9.25517 18.5942 9.25338 18.5485 9.24136 18.505L9.04726 17.8013C9.03703 17.7642 9.0196 17.7295 8.99596 17.6991C8.97231 17.6688 8.94292 17.6434 8.90946 17.6244C8.876 17.6054 8.83913 17.5932 8.80095 17.5885C8.76277 17.5837 8.72404 17.5866 8.68695 17.5968C8.61205 17.6174 8.54842 17.667 8.51006 17.7346C8.4717 17.8022 8.46176 17.8822 8.48242 17.9571L8.67652 18.6608C8.69357 18.7226 8.7304 18.7771 8.78138 18.8159C8.83235 18.8548 8.89465 18.8759 8.95875 18.8759ZM6.68554 18.8759C6.73069 18.876 6.77523 18.8656 6.81569 18.8455C6.85615 18.8255 6.89144 18.7964 6.91879 18.7605C6.94615 18.7246 6.96484 18.6829 6.97341 18.6385C6.98197 18.5942 6.98018 18.5485 6.96816 18.505L6.77406 17.8013C6.76383 17.7642 6.7464 17.7295 6.72276 17.6991C6.69912 17.6688 6.66973 17.6434 6.63627 17.6244C6.60281 17.6054 6.56593 17.5932 6.52775 17.5885C6.48957 17.5837 6.45083 17.5866 6.41375 17.5968C6.33884 17.6174 6.27522 17.667 6.23686 17.7346C6.1985 17.8022 6.18856 17.8822 6.20922 17.9571L6.40332 18.6608C6.42037 18.7226 6.4572 18.7771 6.50817 18.8159C6.55915 18.8548 6.62145 18.8759 6.68554 18.8759ZM4.41242 18.8759C4.45756 18.876 4.5021 18.8656 4.54256 18.8455C4.58302 18.8255 4.61831 18.7964 4.64567 18.7605C4.67303 18.7246 4.69172 18.6829 4.70028 18.6385C4.70885 18.5942 4.70705 18.5485 4.69504 18.505L4.50093 17.8013C4.49071 17.7642 4.47328 17.7295 4.44964 17.6991C4.42599 17.6688 4.3966 17.6434 4.36314 17.6244C4.32968 17.6054 4.29281 17.5932 4.25463 17.5885C4.21645 17.5837 4.17771 17.5866 4.14062 17.5968C4.06572 17.6174 4.00209 17.667 3.96373 17.7346C3.92538 17.8022 3.91543 17.8822 3.93609 17.9571L4.13019 18.6608C4.14724 18.7226 4.18407 18.7771 4.23504 18.8159C4.28602 18.8548 4.34832 18.8759 4.41242 18.8759ZM2.13922 18.8759C2.18436 18.876 2.2289 18.8656 2.26936 18.8455C2.30982 18.8255 2.34511 18.7964 2.37247 18.7605C2.39983 18.7246 2.41852 18.6829 2.42708 18.6385C2.43564 18.5942 2.43385 18.5485 2.42183 18.505L2.22773 17.8013C2.20706 17.7264 2.15749 17.6628 2.08992 17.6244C2.02235 17.5861 1.94232 17.5761 1.86742 17.5968C1.79252 17.6174 1.72889 17.667 1.69053 17.7346C1.65217 17.8022 1.64223 17.8822 1.66289 17.9571L1.85699 18.6608C1.87404 18.7226 1.91087 18.7771 1.96185 18.8159C2.01282 18.8548 2.07512 18.8759 2.13922 18.8759ZM18.0514 18.8759C18.0965 18.876 18.1411 18.8656 18.1815 18.8455C18.222 18.8255 18.2573 18.7964 18.2847 18.7605C18.312 18.7246 18.3307 18.6829 18.3393 18.6385C18.3478 18.5942 18.346 18.5485 18.334 18.505L18.1399 17.8013C18.1193 17.7264 18.0697 17.6628 18.0021 17.6244C17.9345 17.5861 17.8545 17.5761 17.7796 17.5968C17.7047 17.6174 17.6411 17.667 17.6027 17.7346C17.5644 17.8022 17.5544 17.8822 17.5751 17.9571L17.7692 18.6608C17.7862 18.7226 17.8231 18.7771 17.874 18.8159C17.925 18.8548 17.9873 18.8759 18.0514 18.8759Z" fill="#D62381"/>
<path d="M19.3528 15.3003H13.1462C13.9336 14.9932 14.6771 14.568 15.3592 14.0304C16.6172 13.0388 17.5811 11.7064 18.1323 10.2155L18.3081 10.7096C18.3349 10.7818 18.3891 10.8405 18.4588 10.873C18.5286 10.9055 18.6084 10.9093 18.6809 10.8835C18.7534 10.8577 18.8129 10.8044 18.8464 10.7351C18.88 10.6659 18.8849 10.5862 18.8602 10.5133L18.3901 9.19171C18.3318 9.02769 18.1438 8.95046 17.9872 9.02585L16.8043 9.59429C16.7697 9.61096 16.7386 9.63429 16.7129 9.66296C16.6873 9.69163 16.6675 9.72507 16.6548 9.76137C16.642 9.79768 16.6366 9.83614 16.6387 9.87455C16.6408 9.91297 16.6505 9.95059 16.6672 9.98527C16.6838 10.0199 16.7072 10.051 16.7358 10.0767C16.7645 10.1023 16.7979 10.1221 16.8342 10.1348C16.8705 10.1476 16.909 10.153 16.9474 10.1509C16.9858 10.1488 17.0235 10.1391 17.0581 10.1224L17.644 9.84085C17.1421 11.3003 16.218 12.6075 14.9965 13.5702C13.5605 14.7021 11.8327 15.3003 9.99996 15.3003C8.16719 15.3003 6.43945 14.7021 5.00344 13.5702C3.78191 12.6075 2.85781 11.3003 2.35594 9.84085L2.9418 10.1224C3.01163 10.1546 3.09131 10.158 3.16366 10.132C3.23601 10.106 3.29522 10.0525 3.32853 9.98322C3.36183 9.91391 3.36656 9.83429 3.34169 9.76153C3.31682 9.68878 3.26434 9.62871 3.19559 9.59429L2.01273 9.02585C1.85586 8.95034 1.66809 9.02792 1.6098 9.19171L1.13984 10.5132C1.12695 10.5495 1.12132 10.5879 1.12328 10.6263C1.12524 10.6648 1.13475 10.7024 1.15127 10.7372C1.16778 10.7719 1.19098 10.8031 1.21953 10.8289C1.24809 10.8547 1.28145 10.8746 1.3177 10.8875C1.35394 10.9003 1.39238 10.906 1.4308 10.904C1.46923 10.9021 1.50689 10.8925 1.54164 10.876C1.57639 10.8595 1.60754 10.8363 1.63333 10.8078C1.65911 10.7792 1.67902 10.7459 1.69191 10.7096L1.86766 10.2155C2.41887 11.7064 3.38277 13.0388 4.64078 14.0303C5.32289 14.568 6.06644 14.9931 6.85383 15.3003H0.647188C0.290352 15.3003 0 15.5906 0 15.9475V16.8416C0 16.9193 0.0308663 16.9938 0.0858086 17.0487C0.140751 17.1037 0.215269 17.1345 0.292969 17.1345H19.707C19.7847 17.1345 19.8592 17.1037 19.9142 17.0487C19.9691 16.9938 20 16.9193 20 16.8416V15.9475C20 15.5906 19.7096 15.3003 19.3528 15.3003ZM0.647188 15.8862H19.3528C19.369 15.8863 19.3846 15.8927 19.3961 15.9042C19.4075 15.9157 19.414 15.9313 19.414 15.9475V16.5486H0.585938V15.9475C0.585958 15.9313 0.592418 15.9157 0.6039 15.9042C0.615382 15.8927 0.630949 15.8863 0.647188 15.8862ZM19.707 19.3275H0.292969C0.131172 19.3275 0 19.4587 0 19.6205C0 19.7823 0.131172 19.9135 0.292969 19.9135H19.707C19.8688 19.9135 20 19.7823 20 19.6205C20 19.4587 19.8688 19.3275 19.707 19.3275Z" fill="#D62381"/>
<path d="M13.8354 9.42843C13.8784 9.36425 13.8943 9.28567 13.8797 9.20981C13.865 9.13394 13.821 9.06694 13.7572 9.02337C13.6934 8.97981 13.615 8.96322 13.539 8.97721C13.463 8.9912 13.3956 9.03464 13.3515 9.09808C12.5946 10.2068 11.3424 10.8687 10.0019 10.8687C7.76723 10.8687 5.94922 9.05062 5.94922 6.81597C5.94922 6.49613 5.98656 6.17781 6.0602 5.8698C6.07826 5.79422 6.06556 5.71457 6.0249 5.64835C5.98423 5.58214 5.91893 5.53478 5.84336 5.51671C5.68613 5.47925 5.52793 5.57617 5.49031 5.73355C5.40578 6.08815 5.36315 6.45144 5.36328 6.81597C5.36328 9.37374 7.44418 11.4546 10.0019 11.4546C11.5361 11.4546 12.9692 10.6972 13.8354 9.42843ZM6.14797 4.78476C6.1807 4.80498 6.21709 4.81856 6.25507 4.82472C6.29305 4.83087 6.33186 4.82949 6.36931 4.82064C6.40675 4.81179 6.44208 4.79566 6.47328 4.77315C6.50449 4.75065 6.53096 4.72222 6.55117 4.68949C7.29617 3.48335 8.58613 2.76328 10.0019 2.76328C12.2366 2.76328 14.0546 4.58132 14.0546 6.81597C14.0546 7.19269 14.003 7.56554 13.9013 7.92425C13.8889 7.96785 13.8868 8.01372 13.8952 8.05826C13.9035 8.10279 13.9221 8.14479 13.9494 8.18094C13.9767 8.21708 14.0121 8.2464 14.0527 8.26659C14.0932 8.28677 14.1379 8.29727 14.1832 8.29726C14.247 8.29721 14.309 8.27637 14.3598 8.23792C14.4106 8.19947 14.4475 8.14549 14.4649 8.08417C14.5817 7.67156 14.6408 7.24478 14.6405 6.81597C14.6405 4.2582 12.5596 2.17734 10.0019 2.17734C8.38152 2.17734 6.9052 3.00136 6.0527 4.38156C6.01186 4.44766 5.99896 4.52727 6.01683 4.60289C6.0347 4.6785 6.08187 4.74392 6.14797 4.78476Z" fill="#D62381"/>
</g>
<defs>
<clipPath id="clip0_7534_820">
<rect width="20" height="20" fill="white"/>
</clipPath>
</defs>
</svg>
