<svg width="48" height="145" viewBox="0 0 48 145" fill="none" xmlns="http://www.w3.org/2000/svg">
<path d="M14.7965 10.2219C14.7948 10.1111 15.9356 7.46603 13.4495 4.35094C10.3467 0.640037 4.63281 0.662137 4.54697 0.633806C4.61395 0.790764 5.27019 3.07261 6.93835 5.79332C9.63414 10.4786 12.5117 10.0547 14.7965 10.2219Z" fill="url(#paint0_linear_7318_790)"/>
<path d="M18.9832 16.0956C18.8957 16.0152 18.2341 12.4564 13.4857 13.8552C10.0447 14.8757 6.60685 18.4387 6.51931 18.5081C6.51931 18.5081 6.71178 18.6078 7.05368 18.7447C15.6675 21.8609 18.3529 16.3934 18.9832 16.0956Z" fill="url(#paint1_linear_7318_790)"/>
<path d="M22.8812 26.3537C24.0372 25.6771 24.7247 24.9578 24.7247 24.9578C24.7247 24.9578 24.6439 24.069 23.9533 23.2055C23.6029 22.7819 23.1235 22.345 22.3969 22.0844C18.4198 20.7086 13.2025 24.7674 12.1062 25.4037C12.7402 25.6766 17.5109 29.5204 22.8812 26.3537Z" fill="url(#paint2_linear_7318_790)"/>
<path d="M27.4321 35.7262C28.6553 35.2341 29.4162 34.6292 29.4162 34.6292C29.4162 34.6292 29.4317 33.7415 28.834 32.7833C28.2363 31.8371 27.0575 30.7913 24.5994 30.7845C20.9642 30.7432 16.8426 33.1177 16.8426 33.1177C17.0558 33.218 21.5842 38.0893 27.4321 35.7262Z" fill="url(#paint3_linear_7318_790)"/>
<path d="M32.952 44.9559C32.9039 44.8533 33.3401 41.1796 28.6261 40.3866C25.01 39.7868 20.6496 41.4974 20.6496 41.4974C20.6496 41.4974 21.2009 42.2222 22.1853 43.0719C27.0853 47.3131 29.504 45.76 32.952 44.9559Z" fill="url(#paint4_linear_7318_790)"/>
<path d="M35.256 55.7495C35.5138 50.7129 30.4885 49.7247 26.1731 50.0304C24.601 50.1432 23.4691 50.3885 23.4691 50.3885C23.4691 50.3885 23.9414 51.1889 24.8297 52.1791C29.4236 57.6273 33.2578 55.8906 35.256 55.7495Z" fill="url(#paint5_linear_7318_790)"/>
<path d="M29.6569 65.2427C32.9195 67.6058 36.2282 66.7967 36.3158 66.8046C36.2933 66.6998 37.7281 63.4348 33.1978 61.0507C30.0624 59.3788 25.3379 59.6474 25.2504 59.6415C25.3722 59.8318 26.898 63.26 29.6569 65.2427Z" fill="url(#paint6_linear_7318_790)"/>
<path d="M29.6998 75.354C32.7078 78.2104 36.0409 77.9064 36.1285 77.9277C37.5802 73.2334 32.8386 70.6314 28.662 69.6052C27.116 69.2267 25.9667 69.112 25.9667 69.112C26.843 71.2394 27.6278 73.3852 29.6998 75.354Z" fill="url(#paint7_linear_7318_790)"/>
<path d="M28.6021 85.3681C31.2926 88.6776 34.6064 88.8881 34.6937 88.9235C34.6906 88.8156 37.7089 83.4603 28.2206 79.5207C26.7311 78.9056 25.6058 78.6161 25.6058 78.6161C25.6454 78.7294 26.5183 82.7738 28.6021 85.3681Z" fill="url(#paint8_linear_7318_790)"/>
<path d="M26.3809 95.1132C28.6589 98.8048 31.9246 99.5429 32.0124 99.5942C32.0706 99.4925 32.6171 99.0216 32.7615 97.8339C33.2426 94.0816 29.554 90.9946 26.6696 89.2615C25.2662 88.4221 24.182 87.9583 24.182 87.9583C24.3965 88.9465 24.5906 92.1763 26.3809 95.1132Z" fill="url(#paint9_linear_7318_790)"/>
<path d="M23.0632 104.424C24.9033 108.445 28.0421 109.675 28.1296 109.747C28.1296 109.747 28.2892 109.624 28.4954 109.363C30.9248 106.418 27.5522 101.553 24.0203 98.6683C22.725 97.6146 21.7046 96.9854 21.7046 96.9854C21.7147 97.0879 21.5723 101.112 23.0632 104.424Z" fill="url(#paint10_linear_7318_790)"/>
<path d="M21.3506 117.687C22.2989 118.705 23.1237 119.201 23.1237 119.201C23.1631 119.098 25.9704 117.494 23.7147 112.421C22.1137 108.805 18.3032 105.641 18.2155 105.548C18.1449 109.962 17.7464 113.86 21.3506 117.687Z" fill="url(#paint11_linear_7318_790)"/>
<path d="M13.4117 121.102C14.2329 125.487 17.016 127.687 17.0899 127.79C17.0967 127.683 22.3297 125.266 15.6314 115.837C14.6195 114.417 13.7759 113.495 13.7759 113.495C13.3346 115.819 12.8501 118.16 13.4117 121.102Z" fill="url(#paint12_linear_7318_790)"/>
<path d="M10.139 135.367C10.1578 135.265 15.5368 133.484 10.0497 123.299C9.2061 121.735 8.47442 120.688 8.47442 120.688C5.14681 131.323 9.85388 134.598 10.139 135.367Z" fill="url(#paint13_linear_7318_790)"/>
<path d="M21.1669 13.8461C20.3061 14.9703 19.5246 15.5471 19.5246 15.5471C19.3853 15.3046 15.0767 13.4868 19.7719 2.77794C20.5005 1.12732 21.1482 0 21.1482 0C21.1736 0.105678 25.7811 7.77398 21.1669 13.8461Z" fill="url(#paint14_linear_7318_790)"/>
<path d="M29.7085 18.32C28.7861 22.6703 25.4084 24.4073 25.3226 24.498C25.3226 24.498 24.6405 24.0702 24.2127 22.9964C22.4759 18.7954 26.7451 12.5782 28.6969 9.33026C29.6348 12.2246 30.3907 15.2644 29.7085 18.32Z" fill="url(#paint15_linear_7318_790)"/>
<path d="M32.0297 33.1316C30.9491 33.9507 30.061 34.2657 30.061 34.2657C30.061 34.2657 29.427 33.7416 29.1143 32.6154C27.6367 27.4247 35.0536 19.87 35.1082 19.7675C35.1099 20.1477 37.7985 28.7334 32.0297 33.1316Z" fill="url(#paint16_linear_7318_790)"/>
<path d="M35.7129 43.8821C34.5412 44.5272 33.6323 44.6964 33.6323 44.6964C33.6117 44.5576 31.4541 42.4902 34.3163 37.6587C36.3914 34.1272 40.2742 31.1249 40.2742 31.1249C40.4062 34.1994 41.231 40.8353 35.7129 43.8821Z" fill="url(#paint17_linear_7318_790)"/>
<path d="M42.0623 51.9321C39.8789 55.4617 36.0478 55.5673 35.9603 55.5985C33.8968 49.9984 39.7156 46.3972 44.1018 43.1934C44.0898 43.2971 44.3954 48.1906 42.0623 51.9321Z" fill="url(#paint18_linear_7318_790)"/>
<path d="M43.5106 64.0844C40.9026 67.2437 37.118 66.7465 37.0305 66.7666C37.0375 66.659 35.5013 63.8235 39.3034 60.1911C42.3527 57.2936 46.4344 55.7976 46.5222 55.7515C46.4949 55.852 46.2886 60.6931 43.5106 64.0844Z" fill="url(#paint19_linear_7318_790)"/>
<path d="M39.0286 78.1971C37.7367 78.2566 36.8416 77.9996 36.8416 77.9996C36.2265 71.9839 42.2654 70.3894 47.4913 68.5538C47.4398 68.6555 45.9639 77.8418 39.0286 78.1971Z" fill="url(#paint20_linear_7318_790)"/>
<path d="M37.5376 89.644C36.249 89.5009 35.3916 89.1063 35.3916 89.1063C35.3916 89.1063 35.3454 88.889 35.3469 88.5348C35.5205 83.0535 42.638 82.21 47.0034 81.3836C45.7183 83.8026 43.8284 90.3124 37.5376 89.644Z" fill="url(#paint21_linear_7318_790)"/>
<path d="M39.5285 100.363C36.1236 102.104 32.7701 99.9089 32.6825 99.8857C33.2031 95.1152 37.967 94.0995 42.3271 93.9768C43.9179 93.9286 45.0725 94.0505 45.0725 94.0505C45.0002 94.155 43.2015 98.5192 39.5285 100.363Z" fill="url(#paint22_linear_7318_790)"/>
<path d="M35.4931 111.69C31.9266 112.881 28.8497 110.178 28.7622 110.14C28.8309 110.023 28.6747 106.701 33.5725 105.834C37.3743 105.143 41.621 106.295 41.7087 106.307C41.6207 106.403 39.3706 110.431 35.4931 111.69Z" fill="url(#paint23_linear_7318_790)"/>
<path d="M30.205 122.278C26.5251 122.894 23.792 119.744 23.7043 119.69C25.8517 113.896 32.2237 116.743 36.9736 117.92C36.8861 117.993 34.1666 121.638 30.205 122.278Z" fill="url(#paint24_linear_7318_790)"/>
<path d="M23.7677 131.95C20.0138 131.952 17.6998 128.439 17.6106 128.365C17.7001 128.279 18.358 125.032 23.2198 125.697C27.1384 126.256 30.8785 128.641 30.966 128.684C30.8785 128.736 27.7639 131.925 23.7677 131.95Z" fill="url(#paint25_linear_7318_790)"/>
<path d="M16.293 140.534C12.5323 139.912 10.6803 136.118 10.5928 136.019C10.5928 136.019 10.9019 135.206 11.773 134.602C15.3807 131.838 22.5688 137.67 23.7952 138.411C23.7074 138.448 20.2149 141.117 16.293 140.534Z" fill="url(#paint26_linear_7318_790)"/>
<path d="M25.2075 25.9653C40.2123 53.4787 35.5204 82.2542 35.5376 82.0743C27.9684 133.215 -1.72502 140.236 0.0787837 144.067C0.312602 144.564 0.834635 144.735 1.24521 144.447C39.3309 117.453 47.1545 63.3484 26.1317 25.2729C21.1615 16.2747 12.0888 5.19522 11.2401 6.38402C10.242 7.79608 16.7567 10.4692 25.2075 25.9653Z" fill="url(#paint27_linear_7318_790)"/>
<defs>
<linearGradient id="paint0_linear_7318_790" x1="18.7777" y1="-25.228" x2="18.7777" y2="159.702" gradientUnits="userSpaceOnUse">
<stop offset="0.428244" stop-color="white"/>
<stop offset="0.928764" stop-color="#999999" stop-opacity="0"/>
</linearGradient>
<linearGradient id="paint1_linear_7318_790" x1="18.7777" y1="-25.228" x2="18.7777" y2="159.702" gradientUnits="userSpaceOnUse">
<stop offset="0.428244" stop-color="white"/>
<stop offset="0.928764" stop-color="#999999" stop-opacity="0"/>
</linearGradient>
<linearGradient id="paint2_linear_7318_790" x1="18.7777" y1="-25.228" x2="18.7777" y2="159.702" gradientUnits="userSpaceOnUse">
<stop offset="0.428244" stop-color="white"/>
<stop offset="0.928764" stop-color="#999999" stop-opacity="0"/>
</linearGradient>
<linearGradient id="paint3_linear_7318_790" x1="18.7777" y1="-25.228" x2="18.7777" y2="159.702" gradientUnits="userSpaceOnUse">
<stop offset="0.428244" stop-color="white"/>
<stop offset="0.928764" stop-color="#999999" stop-opacity="0"/>
</linearGradient>
<linearGradient id="paint4_linear_7318_790" x1="18.7777" y1="-25.228" x2="18.7777" y2="159.702" gradientUnits="userSpaceOnUse">
<stop offset="0.428244" stop-color="white"/>
<stop offset="0.928764" stop-color="#999999" stop-opacity="0"/>
</linearGradient>
<linearGradient id="paint5_linear_7318_790" x1="18.7777" y1="-25.228" x2="18.7777" y2="159.702" gradientUnits="userSpaceOnUse">
<stop offset="0.428244" stop-color="white"/>
<stop offset="0.928764" stop-color="#999999" stop-opacity="0"/>
</linearGradient>
<linearGradient id="paint6_linear_7318_790" x1="18.7777" y1="-25.228" x2="18.7777" y2="159.702" gradientUnits="userSpaceOnUse">
<stop offset="0.428244" stop-color="white"/>
<stop offset="0.928764" stop-color="#999999" stop-opacity="0"/>
</linearGradient>
<linearGradient id="paint7_linear_7318_790" x1="18.7777" y1="-25.228" x2="18.7777" y2="159.702" gradientUnits="userSpaceOnUse">
<stop offset="0.428244" stop-color="white"/>
<stop offset="0.928764" stop-color="#999999" stop-opacity="0"/>
</linearGradient>
<linearGradient id="paint8_linear_7318_790" x1="18.7777" y1="-25.228" x2="18.7777" y2="159.702" gradientUnits="userSpaceOnUse">
<stop offset="0.428244" stop-color="white"/>
<stop offset="0.928764" stop-color="#999999" stop-opacity="0"/>
</linearGradient>
<linearGradient id="paint9_linear_7318_790" x1="18.7777" y1="-25.228" x2="18.7777" y2="159.702" gradientUnits="userSpaceOnUse">
<stop offset="0.428244" stop-color="white"/>
<stop offset="0.928764" stop-color="#999999" stop-opacity="0"/>
</linearGradient>
<linearGradient id="paint10_linear_7318_790" x1="18.7777" y1="-25.228" x2="18.7777" y2="159.702" gradientUnits="userSpaceOnUse">
<stop offset="0.428244" stop-color="white"/>
<stop offset="0.928764" stop-color="#999999" stop-opacity="0"/>
</linearGradient>
<linearGradient id="paint11_linear_7318_790" x1="18.7777" y1="-25.228" x2="18.7777" y2="159.702" gradientUnits="userSpaceOnUse">
<stop offset="0.428244" stop-color="white"/>
<stop offset="0.928764" stop-color="#999999" stop-opacity="0"/>
</linearGradient>
<linearGradient id="paint12_linear_7318_790" x1="18.7777" y1="-25.228" x2="18.7777" y2="159.702" gradientUnits="userSpaceOnUse">
<stop offset="0.428244" stop-color="white"/>
<stop offset="0.928764" stop-color="#999999" stop-opacity="0"/>
</linearGradient>
<linearGradient id="paint13_linear_7318_790" x1="18.7777" y1="-25.228" x2="18.7777" y2="159.702" gradientUnits="userSpaceOnUse">
<stop offset="0.428244" stop-color="white"/>
<stop offset="0.928764" stop-color="#999999" stop-opacity="0"/>
</linearGradient>
<linearGradient id="paint14_linear_7318_790" x1="18.7777" y1="-25.228" x2="18.7777" y2="159.702" gradientUnits="userSpaceOnUse">
<stop offset="0.428244" stop-color="white"/>
<stop offset="0.928764" stop-color="#999999" stop-opacity="0"/>
</linearGradient>
<linearGradient id="paint15_linear_7318_790" x1="18.7777" y1="-25.228" x2="18.7777" y2="159.702" gradientUnits="userSpaceOnUse">
<stop offset="0.428244" stop-color="white"/>
<stop offset="0.928764" stop-color="#999999" stop-opacity="0"/>
</linearGradient>
<linearGradient id="paint16_linear_7318_790" x1="18.7777" y1="-25.228" x2="18.7777" y2="159.702" gradientUnits="userSpaceOnUse">
<stop offset="0.428244" stop-color="white"/>
<stop offset="0.928764" stop-color="#999999" stop-opacity="0"/>
</linearGradient>
<linearGradient id="paint17_linear_7318_790" x1="18.7777" y1="-25.228" x2="18.7777" y2="159.702" gradientUnits="userSpaceOnUse">
<stop offset="0.428244" stop-color="white"/>
<stop offset="0.928764" stop-color="#999999" stop-opacity="0"/>
</linearGradient>
<linearGradient id="paint18_linear_7318_790" x1="18.7777" y1="-25.228" x2="18.7777" y2="159.702" gradientUnits="userSpaceOnUse">
<stop offset="0.428244" stop-color="white"/>
<stop offset="0.928764" stop-color="#999999" stop-opacity="0"/>
</linearGradient>
<linearGradient id="paint19_linear_7318_790" x1="18.7777" y1="-25.228" x2="18.7777" y2="159.702" gradientUnits="userSpaceOnUse">
<stop offset="0.428244" stop-color="white"/>
<stop offset="0.928764" stop-color="#999999" stop-opacity="0"/>
</linearGradient>
<linearGradient id="paint20_linear_7318_790" x1="18.7777" y1="-25.228" x2="18.7777" y2="159.702" gradientUnits="userSpaceOnUse">
<stop offset="0.428244" stop-color="white"/>
<stop offset="0.928764" stop-color="#999999" stop-opacity="0"/>
</linearGradient>
<linearGradient id="paint21_linear_7318_790" x1="18.7777" y1="-25.228" x2="18.7777" y2="159.702" gradientUnits="userSpaceOnUse">
<stop offset="0.428244" stop-color="white"/>
<stop offset="0.928764" stop-color="#999999" stop-opacity="0"/>
</linearGradient>
<linearGradient id="paint22_linear_7318_790" x1="18.7777" y1="-25.228" x2="18.7777" y2="159.702" gradientUnits="userSpaceOnUse">
<stop offset="0.428244" stop-color="white"/>
<stop offset="0.928764" stop-color="#999999" stop-opacity="0"/>
</linearGradient>
<linearGradient id="paint23_linear_7318_790" x1="18.7777" y1="-25.228" x2="18.7777" y2="159.702" gradientUnits="userSpaceOnUse">
<stop offset="0.428244" stop-color="white"/>
<stop offset="0.928764" stop-color="#999999" stop-opacity="0"/>
</linearGradient>
<linearGradient id="paint24_linear_7318_790" x1="18.7777" y1="-25.228" x2="18.7777" y2="159.702" gradientUnits="userSpaceOnUse">
<stop offset="0.428244" stop-color="white"/>
<stop offset="0.928764" stop-color="#999999" stop-opacity="0"/>
</linearGradient>
<linearGradient id="paint25_linear_7318_790" x1="18.7777" y1="-25.228" x2="18.7777" y2="159.702" gradientUnits="userSpaceOnUse">
<stop offset="0.428244" stop-color="white"/>
<stop offset="0.928764" stop-color="#999999" stop-opacity="0"/>
</linearGradient>
<linearGradient id="paint26_linear_7318_790" x1="18.7777" y1="-25.228" x2="18.7777" y2="159.702" gradientUnits="userSpaceOnUse">
<stop offset="0.428244" stop-color="white"/>
<stop offset="0.928764" stop-color="#999999" stop-opacity="0"/>
</linearGradient>
<linearGradient id="paint27_linear_7318_790" x1="18.7777" y1="-25.228" x2="18.7777" y2="159.702" gradientUnits="userSpaceOnUse">
<stop offset="0.428244" stop-color="white"/>
<stop offset="0.928764" stop-color="#999999" stop-opacity="0"/>
</linearGradient>
</defs>
</svg>
