<svg width="1033" height="96" viewBox="0 0 1033 96" fill="none" xmlns="http://www.w3.org/2000/svg">
<path d="M0 16C0 7.16345 7.16344 0 16 0H1017C1025.84 0 1033 7.16344 1033 16V80C1033 88.8366 1025.84 96 1017 96H16C7.16344 96 0 88.8366 0 80V16Z" fill="white" fill-opacity="0.06"/>
<path d="M55.6145 56.264C53.9985 56.264 52.5585 55.936 51.2945 55.28C50.0465 54.624 49.0625 53.696 48.3425 52.496C47.6385 51.296 47.2865 49.872 47.2865 48.224C47.2865 46.56 47.6385 45.128 48.3425 43.928C49.0625 42.728 50.0465 41.8 51.2945 41.144C52.5585 40.488 53.9985 40.16 55.6145 40.16C57.2465 40.16 58.6865 40.488 59.9345 41.144C61.1825 41.8 62.1665 42.728 62.8865 43.928C63.6065 45.128 63.9665 46.56 63.9665 48.224C63.9665 49.872 63.6065 51.296 62.8865 52.496C62.1665 53.696 61.1825 54.624 59.9345 55.28C58.6865 55.936 57.2465 56.264 55.6145 56.264ZM55.6145 54.176C56.7665 54.176 57.7905 53.952 58.6865 53.504C59.5825 53.056 60.2945 52.392 60.8225 51.512C61.3505 50.632 61.6145 49.536 61.6145 48.224C61.6145 46.912 61.3505 45.816 60.8225 44.936C60.2945 44.056 59.5825 43.392 58.6865 42.944C57.7905 42.48 56.7665 42.248 55.6145 42.248C54.4945 42.248 53.4785 42.48 52.5665 42.944C51.6545 43.392 50.9345 44.056 50.4065 44.936C49.8785 45.816 49.6145 46.912 49.6145 48.224C49.6145 49.536 49.8785 50.632 50.4065 51.512C50.9345 52.392 51.6545 53.056 52.5665 53.504C53.4785 53.952 54.4945 54.176 55.6145 54.176ZM78.0035 56H75.7235V44.024H78.0035V56ZM75.8435 50.36L75.8675 51.08C75.8515 51.288 75.7955 51.6 75.6995 52.016C75.6195 52.416 75.4755 52.856 75.2675 53.336C75.0755 53.816 74.8035 54.28 74.4515 54.728C74.1155 55.176 73.6835 55.544 73.1555 55.832C72.6275 56.12 71.9875 56.264 71.2355 56.264C70.7235 56.264 70.1955 56.192 69.6515 56.048C69.1235 55.904 68.6355 55.664 68.1875 55.328C67.7395 54.992 67.3795 54.536 67.1075 53.96C66.8355 53.368 66.6995 52.632 66.6995 51.752V44.024H69.0035V51.272C69.0035 52.008 69.1155 52.584 69.3395 53C69.5795 53.416 69.9155 53.712 70.3475 53.888C70.7795 54.064 71.2675 54.152 71.8115 54.152C72.6435 54.152 73.3395 53.952 73.8995 53.552C74.4755 53.136 74.9235 52.64 75.2435 52.064C75.5635 51.472 75.7635 50.904 75.8435 50.36ZM81.0198 44.024H83.3238V56H81.0198V44.024ZM87.3798 46.064C86.5478 46.064 85.8358 46.256 85.2438 46.64C84.6678 47.024 84.2038 47.496 83.8518 48.056C83.5158 48.616 83.2918 49.152 83.1798 49.664L83.1558 48.296C83.1718 48.136 83.2118 47.888 83.2758 47.552C83.3558 47.2 83.4918 46.808 83.6838 46.376C83.8758 45.944 84.1318 45.536 84.4518 45.152C84.7718 44.752 85.1718 44.424 85.6518 44.168C86.1318 43.912 86.7078 43.784 87.3798 43.784V46.064ZM93.8908 44.024H101.643V46.016H93.8908V44.024ZM96.6268 40.856H98.9068V56H96.6268V40.856ZM112.854 52.112H115.038C114.91 52.896 114.606 53.6 114.126 54.224C113.646 54.848 113.014 55.344 112.23 55.712C111.446 56.08 110.526 56.264 109.47 56.264C108.222 56.264 107.11 56 106.134 55.472C105.158 54.944 104.39 54.216 103.83 53.288C103.27 52.36 102.99 51.28 102.99 50.048C102.99 48.8 103.262 47.712 103.806 46.784C104.35 45.84 105.102 45.104 106.062 44.576C107.022 44.048 108.118 43.784 109.35 43.784C110.646 43.784 111.734 44.04 112.614 44.552C113.494 45.064 114.142 45.824 114.558 46.832C114.99 47.824 115.166 49.064 115.086 50.552H105.27C105.35 51.272 105.566 51.912 105.918 52.472C106.286 53.032 106.766 53.472 107.358 53.792C107.966 54.112 108.662 54.272 109.446 54.272C110.326 54.272 111.062 54.072 111.654 53.672C112.246 53.272 112.646 52.752 112.854 52.112ZM109.374 45.752C108.334 45.752 107.47 46.032 106.782 46.592C106.094 47.136 105.638 47.864 105.414 48.776H112.782C112.718 47.8 112.366 47.056 111.726 46.544C111.086 46.016 110.302 45.752 109.374 45.752ZM122.456 56.24C121.432 56.24 120.496 55.976 119.648 55.448C118.8 54.92 118.128 54.192 117.632 53.264C117.136 52.32 116.888 51.24 116.888 50.024C116.888 48.808 117.136 47.736 117.632 46.808C118.144 45.864 118.84 45.128 119.72 44.6C120.6 44.056 121.584 43.784 122.672 43.784C123.872 43.784 124.8 44.064 125.456 44.624C126.128 45.184 126.592 45.936 126.848 46.88C127.12 47.824 127.256 48.872 127.256 50.024C127.256 50.664 127.176 51.344 127.016 52.064C126.856 52.784 126.6 53.464 126.248 54.104C125.896 54.744 125.408 55.264 124.784 55.664C124.16 56.048 123.384 56.24 122.456 56.24ZM123.104 54.248C123.952 54.248 124.664 54.064 125.24 53.696C125.832 53.312 126.272 52.8 126.56 52.16C126.848 51.52 126.992 50.808 126.992 50.024C126.992 49.176 126.84 48.432 126.536 47.792C126.248 47.152 125.808 46.656 125.216 46.304C124.64 45.952 123.936 45.776 123.104 45.776C121.856 45.776 120.888 46.176 120.2 46.976C119.528 47.776 119.192 48.792 119.192 50.024C119.192 50.856 119.36 51.592 119.696 52.232C120.032 52.856 120.488 53.352 121.064 53.72C121.656 54.072 122.336 54.248 123.104 54.248ZM126.992 44.024H129.296V56H127.184C127.184 56 127.168 55.856 127.136 55.568C127.104 55.264 127.072 54.904 127.04 54.488C127.008 54.072 126.992 53.704 126.992 53.384V44.024ZM132.301 44.024H134.605V56H132.301V44.024ZM139.165 43.784C139.837 43.784 140.445 43.88 140.989 44.072C141.533 44.264 141.997 44.552 142.381 44.936C142.765 45.304 143.061 45.768 143.269 46.328C143.493 46.872 143.605 47.496 143.605 48.2V56H141.325V48.704C141.325 47.76 141.093 47.056 140.629 46.592C140.181 46.112 139.493 45.872 138.565 45.872C137.845 45.872 137.189 46.04 136.597 46.376C136.005 46.712 135.517 47.16 135.133 47.72C134.765 48.264 134.541 48.88 134.461 49.568L134.437 48.248C134.517 47.608 134.685 47.016 134.941 46.472C135.213 45.928 135.549 45.456 135.949 45.056C136.365 44.64 136.845 44.328 137.389 44.12C137.933 43.896 138.525 43.784 139.165 43.784ZM147.949 43.784C148.621 43.784 149.229 43.88 149.773 44.072C150.317 44.264 150.781 44.552 151.165 44.936C151.549 45.304 151.845 45.768 152.053 46.328C152.277 46.872 152.389 47.496 152.389 48.2V56H150.109V48.704C150.109 47.76 149.877 47.056 149.413 46.592C148.965 46.112 148.277 45.872 147.349 45.872C146.629 45.872 145.973 46.04 145.381 46.376C144.789 46.712 144.301 47.16 143.917 47.72C143.549 48.264 143.325 48.88 143.245 49.568L143.221 48.224C143.301 47.584 143.469 47 143.725 46.472C143.997 45.928 144.341 45.456 144.757 45.056C145.173 44.64 145.653 44.328 146.197 44.12C146.741 43.896 147.325 43.784 147.949 43.784ZM173.812 54.128L173.188 54.104L176.332 44.024H178.828L174.676 56H172.516L168.892 45.752H169.54L165.868 56H163.708L159.604 44.024H162.124L165.172 54.104L164.548 54.128L167.86 44.024H170.572L173.812 54.128ZM183.553 39.08V41.552H180.697V39.08H183.553ZM180.985 44.024H183.265V56H180.985V44.024ZM186.752 39.224H189.056V56H186.752V39.224ZM192.588 39.224H194.892V56H192.588V39.224ZM208.281 54.128C207.289 54.128 206.377 53.928 205.545 53.528C204.713 53.128 204.049 52.544 203.553 51.776C203.073 51.008 202.833 50.08 202.833 48.992C202.833 47.92 203.073 47 203.553 46.232C204.033 45.448 204.681 44.848 205.497 44.432C206.329 44 207.257 43.784 208.281 43.784C208.585 43.784 208.873 43.808 209.145 43.856C209.417 43.888 209.681 43.944 209.937 44.024H215.169V46.184C214.449 46.184 213.721 46.064 212.985 45.824C212.265 45.584 211.633 45.328 211.089 45.056L211.017 44.936C211.561 45.224 212.033 45.576 212.433 45.992C212.833 46.392 213.137 46.848 213.345 47.36C213.569 47.856 213.681 48.416 213.681 49.04C213.681 50.096 213.441 51.008 212.961 51.776C212.497 52.544 211.849 53.128 211.017 53.528C210.201 53.928 209.289 54.128 208.281 54.128ZM211.953 60.848V60.296C211.953 59.48 211.729 58.896 211.281 58.544C210.833 58.192 210.177 58.016 209.313 58.016H206.505C205.913 58.016 205.409 57.968 204.993 57.872C204.577 57.776 204.233 57.632 203.961 57.44C203.689 57.264 203.489 57.04 203.361 56.768C203.233 56.512 203.169 56.224 203.169 55.904C203.169 55.28 203.361 54.808 203.745 54.488C204.129 54.168 204.617 53.968 205.209 53.888C205.801 53.792 206.401 53.784 207.009 53.864L208.281 54.128C207.369 54.176 206.673 54.264 206.193 54.392C205.713 54.52 205.473 54.792 205.473 55.208C205.473 55.448 205.569 55.64 205.761 55.784C205.953 55.928 206.225 56 206.577 56H209.505C210.417 56 211.225 56.112 211.929 56.336C212.649 56.576 213.209 56.968 213.609 57.512C214.025 58.072 214.233 58.832 214.233 59.792V60.848H211.953ZM208.281 52.184C208.857 52.184 209.377 52.064 209.841 51.824C210.321 51.568 210.705 51.208 210.993 50.744C211.281 50.264 211.425 49.688 211.425 49.016C211.425 48.328 211.281 47.744 210.993 47.264C210.721 46.768 210.345 46.4 209.865 46.16C209.385 45.904 208.857 45.776 208.281 45.776C207.705 45.776 207.169 45.904 206.673 46.16C206.193 46.4 205.809 46.76 205.521 47.24C205.233 47.72 205.089 48.312 205.089 49.016C205.089 49.688 205.233 50.264 205.521 50.744C205.809 51.208 206.193 51.568 206.673 51.824C207.153 52.064 207.689 52.184 208.281 52.184ZM228.66 56H226.38V44.024H228.66V56ZM226.5 50.36L226.524 51.08C226.508 51.288 226.452 51.6 226.356 52.016C226.276 52.416 226.132 52.856 225.924 53.336C225.732 53.816 225.46 54.28 225.108 54.728C224.772 55.176 224.34 55.544 223.812 55.832C223.284 56.12 222.644 56.264 221.892 56.264C221.38 56.264 220.852 56.192 220.308 56.048C219.78 55.904 219.292 55.664 218.844 55.328C218.396 54.992 218.036 54.536 217.764 53.96C217.492 53.368 217.356 52.632 217.356 51.752V44.024H219.66V51.272C219.66 52.008 219.772 52.584 219.996 53C220.236 53.416 220.572 53.712 221.004 53.888C221.436 54.064 221.924 54.152 222.468 54.152C223.3 54.152 223.996 53.952 224.556 53.552C225.132 53.136 225.58 52.64 225.9 52.064C226.22 51.472 226.42 50.904 226.5 50.36ZM234.436 39.08V41.552H231.58V39.08H234.436ZM231.868 44.024H234.148V56H231.868V44.024ZM242.339 56.24C241.299 56.24 240.355 55.976 239.507 55.448C238.659 54.92 237.987 54.192 237.491 53.264C237.011 52.32 236.771 51.24 236.771 50.024C236.771 48.808 237.011 47.736 237.491 46.808C237.971 45.864 238.627 45.128 239.459 44.6C240.291 44.056 241.251 43.784 242.339 43.784C243.283 43.784 244.067 43.944 244.691 44.264C245.315 44.584 245.803 45.032 246.155 45.608C246.507 46.184 246.755 46.848 246.899 47.6C247.059 48.352 247.139 49.16 247.139 50.024C247.139 50.664 247.059 51.344 246.899 52.064C246.739 52.784 246.483 53.464 246.131 54.104C245.779 54.744 245.291 55.264 244.667 55.664C244.043 56.048 243.267 56.24 242.339 56.24ZM242.987 54.248C243.835 54.248 244.547 54.064 245.123 53.696C245.715 53.312 246.155 52.8 246.443 52.16C246.731 51.52 246.875 50.808 246.875 50.024C246.875 49.176 246.723 48.432 246.419 47.792C246.131 47.152 245.691 46.656 245.099 46.304C244.523 45.952 243.819 45.776 242.987 45.776C241.739 45.776 240.771 46.176 240.083 46.976C239.411 47.776 239.075 48.792 239.075 50.024C239.075 50.856 239.243 51.592 239.579 52.232C239.915 52.856 240.371 53.352 240.947 53.72C241.539 54.072 242.219 54.248 242.987 54.248ZM246.875 39.224H249.179V56H247.067C247.019 55.648 246.971 55.216 246.923 54.704C246.891 54.192 246.875 53.752 246.875 53.384V39.224ZM261.846 52.112H264.03C263.902 52.896 263.598 53.6 263.118 54.224C262.638 54.848 262.006 55.344 261.222 55.712C260.438 56.08 259.518 56.264 258.462 56.264C257.214 56.264 256.102 56 255.126 55.472C254.15 54.944 253.382 54.216 252.822 53.288C252.262 52.36 251.982 51.28 251.982 50.048C251.982 48.8 252.254 47.712 252.798 46.784C253.342 45.84 254.094 45.104 255.054 44.576C256.014 44.048 257.11 43.784 258.342 43.784C259.638 43.784 260.726 44.04 261.606 44.552C262.486 45.064 263.134 45.824 263.55 46.832C263.982 47.824 264.158 49.064 264.078 50.552H254.262C254.342 51.272 254.558 51.912 254.91 52.472C255.278 53.032 255.758 53.472 256.35 53.792C256.958 54.112 257.654 54.272 258.438 54.272C259.318 54.272 260.054 54.072 260.646 53.672C261.238 53.272 261.638 52.752 261.846 52.112ZM258.366 45.752C257.326 45.752 256.462 46.032 255.774 46.592C255.086 47.136 254.63 47.864 254.406 48.776H261.774C261.71 47.8 261.358 47.056 260.718 46.544C260.078 46.016 259.294 45.752 258.366 45.752ZM270.698 44.024H273.146L277.73 55.52L275.738 56L270.698 44.024ZM282.914 44.024L275.738 60.8H273.314L276.41 54.296L280.49 44.024H282.914ZM290.241 56.264C289.073 56.264 288.001 56.016 287.025 55.52C286.049 55.024 285.273 54.312 284.697 53.384C284.121 52.456 283.833 51.344 283.833 50.048C283.833 48.736 284.121 47.616 284.697 46.688C285.273 45.744 286.049 45.024 287.025 44.528C288.001 44.032 289.073 43.784 290.241 43.784C291.409 43.784 292.473 44.032 293.433 44.528C294.393 45.024 295.161 45.744 295.737 46.688C296.313 47.616 296.601 48.736 296.601 50.048C296.601 51.344 296.313 52.456 295.737 53.384C295.161 54.312 294.393 55.024 293.433 55.52C292.473 56.016 291.409 56.264 290.241 56.264ZM290.241 54.272C290.961 54.272 291.625 54.112 292.233 53.792C292.857 53.456 293.353 52.976 293.721 52.352C294.105 51.712 294.297 50.944 294.297 50.048C294.297 49.136 294.105 48.36 293.721 47.72C293.353 47.08 292.857 46.592 292.233 46.256C291.625 45.92 290.961 45.752 290.241 45.752C289.521 45.752 288.849 45.92 288.225 46.256C287.601 46.576 287.097 47.056 286.713 47.696C286.329 48.336 286.137 49.12 286.137 50.048C286.137 50.944 286.321 51.712 286.689 52.352C287.073 52.976 287.577 53.456 288.201 53.792C288.825 54.112 289.505 54.272 290.241 54.272ZM310.316 56H308.036V44.024H310.316V56ZM308.156 50.36L308.18 51.08C308.164 51.288 308.108 51.6 308.012 52.016C307.932 52.416 307.788 52.856 307.58 53.336C307.388 53.816 307.116 54.28 306.764 54.728C306.428 55.176 305.996 55.544 305.468 55.832C304.94 56.12 304.3 56.264 303.548 56.264C303.036 56.264 302.508 56.192 301.964 56.048C301.436 55.904 300.948 55.664 300.5 55.328C300.052 54.992 299.692 54.536 299.42 53.96C299.148 53.368 299.012 52.632 299.012 51.752V44.024H301.316V51.272C301.316 52.008 301.428 52.584 301.652 53C301.892 53.416 302.228 53.712 302.66 53.888C303.092 54.064 303.58 54.152 304.124 54.152C304.956 54.152 305.652 53.952 306.212 53.552C306.788 53.136 307.236 52.64 307.556 52.064C307.876 51.472 308.076 50.904 308.156 50.36ZM321.366 39.08V41.552H318.51V39.08H321.366ZM318.798 44.024H321.078V56H318.798V44.024ZM324.325 44.024H326.629V56H324.325V44.024ZM331.189 43.784C331.861 43.784 332.469 43.88 333.013 44.072C333.557 44.264 334.021 44.552 334.405 44.936C334.789 45.304 335.085 45.768 335.293 46.328C335.517 46.872 335.629 47.496 335.629 48.2V56H333.349V48.704C333.349 47.76 333.117 47.056 332.653 46.592C332.205 46.112 331.517 45.872 330.589 45.872C329.869 45.872 329.213 46.04 328.621 46.376C328.029 46.712 327.541 47.16 327.157 47.72C326.789 48.264 326.565 48.88 326.485 49.568L326.461 48.248C326.541 47.608 326.709 47.016 326.965 46.472C327.237 45.928 327.573 45.456 327.973 45.056C328.389 44.64 328.869 44.328 329.413 44.12C329.957 43.896 330.549 43.784 331.189 43.784ZM355.654 51.44C355.558 52.432 355.238 53.296 354.694 54.032C354.166 54.752 353.47 55.304 352.606 55.688C351.742 56.072 350.782 56.264 349.726 56.264C348.558 56.264 347.486 56.024 346.51 55.544C345.534 55.048 344.75 54.336 344.158 53.408C343.582 52.464 343.294 51.344 343.294 50.048C343.294 48.736 343.582 47.616 344.158 46.688C344.75 45.744 345.534 45.024 346.51 44.528C347.486 44.032 348.558 43.784 349.726 43.784C350.782 43.784 351.734 43.976 352.582 44.36C353.43 44.744 354.126 45.296 354.67 46.016C355.214 46.72 355.542 47.568 355.654 48.56H353.566C353.294 47.696 352.806 47.016 352.102 46.52C351.414 46.008 350.622 45.752 349.726 45.752C348.99 45.752 348.302 45.92 347.662 46.256C347.038 46.592 346.534 47.08 346.15 47.72C345.782 48.344 345.598 49.12 345.598 50.048C345.598 50.944 345.782 51.712 346.15 52.352C346.534 52.976 347.038 53.456 347.662 53.792C348.286 54.112 348.974 54.272 349.726 54.272C350.75 54.272 351.582 54.024 352.222 53.528C352.862 53.032 353.318 52.336 353.59 51.44H355.654ZM367.339 56V48.776C367.339 48.136 367.235 47.608 367.027 47.192C366.819 46.776 366.507 46.464 366.091 46.256C365.675 46.032 365.147 45.92 364.507 45.92C363.803 45.92 363.155 46.088 362.563 46.424C361.987 46.744 361.515 47.184 361.147 47.744C360.779 48.288 360.555 48.904 360.475 49.592L360.451 48.224C360.531 47.6 360.699 47.016 360.955 46.472C361.227 45.928 361.563 45.456 361.963 45.056C362.379 44.656 362.859 44.344 363.403 44.12C363.947 43.896 364.539 43.784 365.179 43.784C365.851 43.784 366.459 43.88 367.003 44.072C367.547 44.248 368.011 44.528 368.395 44.912C368.795 45.28 369.099 45.736 369.307 46.28C369.515 46.808 369.619 47.416 369.619 48.104V56H367.339ZM358.339 56V39.224H360.619V56H358.339ZM378.437 56.264C377.269 56.264 376.197 56.016 375.221 55.52C374.245 55.024 373.469 54.312 372.893 53.384C372.317 52.456 372.029 51.344 372.029 50.048C372.029 48.736 372.317 47.616 372.893 46.688C373.469 45.744 374.245 45.024 375.221 44.528C376.197 44.032 377.269 43.784 378.437 43.784C379.605 43.784 380.669 44.032 381.629 44.528C382.589 45.024 383.357 45.744 383.933 46.688C384.509 47.616 384.797 48.736 384.797 50.048C384.797 51.344 384.509 52.456 383.933 53.384C383.357 54.312 382.589 55.024 381.629 55.52C380.669 56.016 379.605 56.264 378.437 56.264ZM378.437 54.272C379.157 54.272 379.821 54.112 380.429 53.792C381.053 53.456 381.549 52.976 381.917 52.352C382.301 51.712 382.493 50.944 382.493 50.048C382.493 49.136 382.301 48.36 381.917 47.72C381.549 47.08 381.053 46.592 380.429 46.256C379.821 45.92 379.157 45.752 378.437 45.752C377.717 45.752 377.045 45.92 376.421 46.256C375.797 46.576 375.293 47.056 374.909 47.696C374.525 48.336 374.333 49.12 374.333 50.048C374.333 50.944 374.517 51.712 374.885 52.352C375.269 52.976 375.773 53.456 376.397 53.792C377.021 54.112 377.701 54.272 378.437 54.272ZM392.991 56.264C391.823 56.264 390.751 56.016 389.775 55.52C388.799 55.024 388.023 54.312 387.447 53.384C386.871 52.456 386.583 51.344 386.583 50.048C386.583 48.736 386.871 47.616 387.447 46.688C388.023 45.744 388.799 45.024 389.775 44.528C390.751 44.032 391.823 43.784 392.991 43.784C394.159 43.784 395.223 44.032 396.183 44.528C397.143 45.024 397.911 45.744 398.487 46.688C399.063 47.616 399.351 48.736 399.351 50.048C399.351 51.344 399.063 52.456 398.487 53.384C397.911 54.312 397.143 55.024 396.183 55.52C395.223 56.016 394.159 56.264 392.991 56.264ZM392.991 54.272C393.711 54.272 394.375 54.112 394.983 53.792C395.607 53.456 396.103 52.976 396.471 52.352C396.855 51.712 397.047 50.944 397.047 50.048C397.047 49.136 396.855 48.36 396.471 47.72C396.103 47.08 395.607 46.592 394.983 46.256C394.375 45.92 393.711 45.752 392.991 45.752C392.271 45.752 391.599 45.92 390.975 46.256C390.351 46.576 389.847 47.056 389.463 47.696C389.079 48.336 388.887 49.12 388.887 50.048C388.887 50.944 389.071 51.712 389.439 52.352C389.823 52.976 390.327 53.456 390.951 53.792C391.575 54.112 392.255 54.272 392.991 54.272ZM401.234 52.112H403.346C403.426 52.752 403.714 53.28 404.21 53.696C404.706 54.096 405.402 54.296 406.298 54.296C406.874 54.296 407.322 54.232 407.642 54.104C407.962 53.96 408.186 53.768 408.314 53.528C408.458 53.288 408.53 53.024 408.53 52.736C408.53 52.368 408.434 52.088 408.242 51.896C408.05 51.688 407.778 51.52 407.426 51.392C407.074 51.248 406.658 51.112 406.178 50.984C405.65 50.84 405.122 50.672 404.594 50.48C404.066 50.288 403.578 50.056 403.13 49.784C402.698 49.512 402.346 49.176 402.074 48.776C401.818 48.36 401.69 47.856 401.69 47.264C401.69 46.768 401.794 46.304 402.002 45.872C402.226 45.44 402.538 45.072 402.938 44.768C403.354 44.448 403.834 44.208 404.378 44.048C404.922 43.872 405.522 43.784 406.178 43.784C407.09 43.784 407.858 43.952 408.482 44.288C409.106 44.608 409.578 45.064 409.898 45.656C410.234 46.248 410.41 46.928 410.426 47.696H408.41C408.298 47.024 408.066 46.536 407.714 46.232C407.362 45.912 406.834 45.752 406.13 45.752C405.442 45.752 404.914 45.888 404.546 46.16C404.178 46.432 403.994 46.8 403.994 47.264C403.994 47.616 404.122 47.904 404.378 48.128C404.634 48.336 404.978 48.52 405.41 48.68C405.842 48.84 406.33 49.008 406.874 49.184C407.386 49.36 407.874 49.544 408.338 49.736C408.818 49.912 409.242 50.128 409.61 50.384C409.994 50.624 410.29 50.944 410.498 51.344C410.722 51.728 410.834 52.208 410.834 52.784C410.834 53.488 410.658 54.104 410.306 54.632C409.954 55.144 409.442 55.544 408.77 55.832C408.114 56.12 407.314 56.264 406.37 56.264C405.506 56.264 404.77 56.16 404.162 55.952C403.57 55.744 403.066 55.472 402.65 55.136C402.25 54.8 401.938 54.448 401.714 54.08C401.506 53.696 401.362 53.328 401.282 52.976C401.218 52.624 401.202 52.336 401.234 52.112ZM416.006 39.08V41.552H413.15V39.08H416.006ZM413.438 44.024H415.718V56H413.438V44.024ZM418.965 44.024H421.269V56H418.965V44.024ZM425.829 43.784C426.501 43.784 427.109 43.88 427.653 44.072C428.197 44.264 428.661 44.552 429.045 44.936C429.429 45.304 429.725 45.768 429.933 46.328C430.157 46.872 430.269 47.496 430.269 48.2V56H427.989V48.704C427.989 47.76 427.757 47.056 427.293 46.592C426.845 46.112 426.157 45.872 425.229 45.872C424.509 45.872 423.853 46.04 423.261 46.376C422.669 46.712 422.181 47.16 421.797 47.72C421.429 48.264 421.205 48.88 421.125 49.568L421.101 48.248C421.181 47.608 421.349 47.016 421.605 46.472C421.877 45.928 422.213 45.456 422.613 45.056C423.029 44.64 423.509 44.328 424.053 44.12C424.597 43.896 425.189 43.784 425.829 43.784ZM438.109 54.128C437.117 54.128 436.205 53.928 435.373 53.528C434.541 53.128 433.877 52.544 433.381 51.776C432.901 51.008 432.661 50.08 432.661 48.992C432.661 47.92 432.901 47 433.381 46.232C433.861 45.448 434.509 44.848 435.325 44.432C436.157 44 437.085 43.784 438.109 43.784C438.413 43.784 438.701 43.808 438.973 43.856C439.245 43.888 439.509 43.944 439.765 44.024H444.997V46.184C444.277 46.184 443.549 46.064 442.813 45.824C442.093 45.584 441.461 45.328 440.917 45.056L440.845 44.936C441.389 45.224 441.861 45.576 442.261 45.992C442.661 46.392 442.965 46.848 443.173 47.36C443.397 47.856 443.509 48.416 443.509 49.04C443.509 50.096 443.269 51.008 442.789 51.776C442.325 52.544 441.677 53.128 440.845 53.528C440.029 53.928 439.117 54.128 438.109 54.128ZM441.781 60.848V60.296C441.781 59.48 441.557 58.896 441.109 58.544C440.661 58.192 440.005 58.016 439.141 58.016H436.333C435.741 58.016 435.237 57.968 434.821 57.872C434.405 57.776 434.061 57.632 433.789 57.44C433.517 57.264 433.317 57.04 433.189 56.768C433.061 56.512 432.997 56.224 432.997 55.904C432.997 55.28 433.189 54.808 433.573 54.488C433.957 54.168 434.445 53.968 435.037 53.888C435.629 53.792 436.229 53.784 436.837 53.864L438.109 54.128C437.197 54.176 436.501 54.264 436.021 54.392C435.541 54.52 435.301 54.792 435.301 55.208C435.301 55.448 435.397 55.64 435.589 55.784C435.781 55.928 436.053 56 436.405 56H439.333C440.245 56 441.053 56.112 441.757 56.336C442.477 56.576 443.037 56.968 443.437 57.512C443.853 58.072 444.061 58.832 444.061 59.792V60.848H441.781ZM438.109 52.184C438.685 52.184 439.205 52.064 439.669 51.824C440.149 51.568 440.533 51.208 440.821 50.744C441.109 50.264 441.253 49.688 441.253 49.016C441.253 48.328 441.109 47.744 440.821 47.264C440.549 46.768 440.173 46.4 439.693 46.16C439.213 45.904 438.685 45.776 438.109 45.776C437.533 45.776 436.997 45.904 436.501 46.16C436.021 46.4 435.637 46.76 435.349 47.24C435.061 47.72 434.917 48.312 434.917 49.016C434.917 49.688 435.061 50.264 435.349 50.744C435.637 51.208 436.021 51.568 436.501 51.824C436.981 52.064 437.517 52.184 438.109 52.184ZM451.617 44.024H459.369V46.016H451.617V44.024ZM454.353 40.856H456.633V56H454.353V40.856ZM470.839 56V48.776C470.839 48.136 470.735 47.608 470.527 47.192C470.319 46.776 470.007 46.464 469.591 46.256C469.175 46.032 468.647 45.92 468.007 45.92C467.303 45.92 466.655 46.088 466.063 46.424C465.487 46.744 465.015 47.184 464.647 47.744C464.279 48.288 464.055 48.904 463.975 49.592L463.951 48.224C464.031 47.6 464.199 47.016 464.455 46.472C464.727 45.928 465.063 45.456 465.463 45.056C465.879 44.656 466.359 44.344 466.903 44.12C467.447 43.896 468.039 43.784 468.679 43.784C469.351 43.784 469.959 43.88 470.503 44.072C471.047 44.248 471.511 44.528 471.895 44.912C472.295 45.28 472.599 45.736 472.807 46.28C473.015 46.808 473.119 47.416 473.119 48.104V56H470.839ZM461.839 56V39.224H464.119V56H461.839ZM485.393 52.112H487.577C487.449 52.896 487.145 53.6 486.665 54.224C486.185 54.848 485.553 55.344 484.769 55.712C483.985 56.08 483.065 56.264 482.009 56.264C480.761 56.264 479.649 56 478.673 55.472C477.697 54.944 476.929 54.216 476.369 53.288C475.809 52.36 475.529 51.28 475.529 50.048C475.529 48.8 475.801 47.712 476.345 46.784C476.889 45.84 477.641 45.104 478.601 44.576C479.561 44.048 480.657 43.784 481.889 43.784C483.185 43.784 484.273 44.04 485.153 44.552C486.033 45.064 486.681 45.824 487.097 46.832C487.529 47.824 487.705 49.064 487.625 50.552H477.809C477.889 51.272 478.105 51.912 478.457 52.472C478.825 53.032 479.305 53.472 479.897 53.792C480.505 54.112 481.201 54.272 481.985 54.272C482.865 54.272 483.601 54.072 484.193 53.672C484.785 53.272 485.185 52.752 485.393 52.112ZM481.913 45.752C480.873 45.752 480.009 46.032 479.321 46.592C478.633 47.136 478.177 47.864 477.953 48.776H485.321C485.257 47.8 484.905 47.056 484.265 46.544C483.625 46.016 482.841 45.752 481.913 45.752ZM495.325 44.024H497.629V56H495.325V44.024ZM501.685 46.064C500.853 46.064 500.141 46.256 499.549 46.64C498.973 47.024 498.509 47.496 498.157 48.056C497.821 48.616 497.597 49.152 497.485 49.664L497.461 48.296C497.477 48.136 497.517 47.888 497.581 47.552C497.661 47.2 497.797 46.808 497.989 46.376C498.181 45.944 498.437 45.536 498.757 45.152C499.077 44.752 499.477 44.424 499.957 44.168C500.437 43.912 501.013 43.784 501.685 43.784V46.064ZM506.522 39.08V41.552H503.666V39.08H506.522ZM503.954 44.024H506.234V56H503.954V44.024ZM514.305 54.128C513.313 54.128 512.401 53.928 511.569 53.528C510.737 53.128 510.073 52.544 509.577 51.776C509.097 51.008 508.857 50.08 508.857 48.992C508.857 47.92 509.097 47 509.577 46.232C510.057 45.448 510.705 44.848 511.521 44.432C512.353 44 513.281 43.784 514.305 43.784C514.609 43.784 514.897 43.808 515.169 43.856C515.441 43.888 515.705 43.944 515.961 44.024H521.193V46.184C520.473 46.184 519.745 46.064 519.009 45.824C518.289 45.584 517.657 45.328 517.113 45.056L517.041 44.936C517.585 45.224 518.057 45.576 518.457 45.992C518.857 46.392 519.161 46.848 519.369 47.36C519.593 47.856 519.705 48.416 519.705 49.04C519.705 50.096 519.465 51.008 518.985 51.776C518.521 52.544 517.873 53.128 517.041 53.528C516.225 53.928 515.313 54.128 514.305 54.128ZM517.977 60.848V60.296C517.977 59.48 517.753 58.896 517.305 58.544C516.857 58.192 516.201 58.016 515.337 58.016H512.529C511.937 58.016 511.433 57.968 511.017 57.872C510.601 57.776 510.257 57.632 509.985 57.44C509.713 57.264 509.513 57.04 509.385 56.768C509.257 56.512 509.193 56.224 509.193 55.904C509.193 55.28 509.385 54.808 509.769 54.488C510.153 54.168 510.641 53.968 511.233 53.888C511.825 53.792 512.425 53.784 513.033 53.864L514.305 54.128C513.393 54.176 512.697 54.264 512.217 54.392C511.737 54.52 511.497 54.792 511.497 55.208C511.497 55.448 511.593 55.64 511.785 55.784C511.977 55.928 512.249 56 512.601 56H515.529C516.441 56 517.249 56.112 517.953 56.336C518.673 56.576 519.233 56.968 519.633 57.512C520.049 58.072 520.257 58.832 520.257 59.792V60.848H517.977ZM514.305 52.184C514.881 52.184 515.401 52.064 515.865 51.824C516.345 51.568 516.729 51.208 517.017 50.744C517.305 50.264 517.449 49.688 517.449 49.016C517.449 48.328 517.305 47.744 517.017 47.264C516.745 46.768 516.369 46.4 515.889 46.16C515.409 45.904 514.881 45.776 514.305 45.776C513.729 45.776 513.193 45.904 512.697 46.16C512.217 46.4 511.833 46.76 511.545 47.24C511.257 47.72 511.113 48.312 511.113 49.016C511.113 49.688 511.257 50.264 511.545 50.744C511.833 51.208 512.217 51.568 512.697 51.824C513.177 52.064 513.713 52.184 514.305 52.184ZM532.667 56V48.776C532.667 48.136 532.563 47.608 532.355 47.192C532.147 46.776 531.835 46.464 531.419 46.256C531.003 46.032 530.475 45.92 529.835 45.92C529.131 45.92 528.483 46.088 527.891 46.424C527.315 46.744 526.843 47.184 526.475 47.744C526.107 48.288 525.883 48.904 525.803 49.592L525.779 48.224C525.859 47.6 526.027 47.016 526.283 46.472C526.555 45.928 526.891 45.456 527.291 45.056C527.707 44.656 528.187 44.344 528.731 44.12C529.275 43.896 529.867 43.784 530.507 43.784C531.179 43.784 531.787 43.88 532.331 44.072C532.875 44.248 533.339 44.528 533.723 44.912C534.123 45.28 534.427 45.736 534.635 46.28C534.843 46.808 534.947 47.416 534.947 48.104V56H532.667ZM523.667 56V39.224H525.947V56H523.667ZM537.141 44.024H544.893V46.016H537.141V44.024ZM539.877 40.856H542.157V56H539.877V40.856ZM564.084 51.44C563.988 52.432 563.668 53.296 563.124 54.032C562.596 54.752 561.9 55.304 561.036 55.688C560.172 56.072 559.212 56.264 558.156 56.264C556.988 56.264 555.916 56.024 554.94 55.544C553.964 55.048 553.18 54.336 552.588 53.408C552.012 52.464 551.724 51.344 551.724 50.048C551.724 48.736 552.012 47.616 552.588 46.688C553.18 45.744 553.964 45.024 554.94 44.528C555.916 44.032 556.988 43.784 558.156 43.784C559.212 43.784 560.164 43.976 561.012 44.36C561.86 44.744 562.556 45.296 563.1 46.016C563.644 46.72 563.972 47.568 564.084 48.56H561.996C561.724 47.696 561.236 47.016 560.532 46.52C559.844 46.008 559.052 45.752 558.156 45.752C557.42 45.752 556.732 45.92 556.092 46.256C555.468 46.592 554.964 47.08 554.58 47.72C554.212 48.344 554.028 49.12 554.028 50.048C554.028 50.944 554.212 51.712 554.58 52.352C554.964 52.976 555.468 53.456 556.092 53.792C556.716 54.112 557.404 54.272 558.156 54.272C559.18 54.272 560.012 54.024 560.652 53.528C561.292 53.032 561.748 52.336 562.02 51.44H564.084ZM572.265 56.264C571.097 56.264 570.025 56.016 569.049 55.52C568.073 55.024 567.297 54.312 566.721 53.384C566.145 52.456 565.857 51.344 565.857 50.048C565.857 48.736 566.145 47.616 566.721 46.688C567.297 45.744 568.073 45.024 569.049 44.528C570.025 44.032 571.097 43.784 572.265 43.784C573.433 43.784 574.497 44.032 575.457 44.528C576.417 45.024 577.185 45.744 577.761 46.688C578.337 47.616 578.625 48.736 578.625 50.048C578.625 51.344 578.337 52.456 577.761 53.384C577.185 54.312 576.417 55.024 575.457 55.52C574.497 56.016 573.433 56.264 572.265 56.264ZM572.265 54.272C572.985 54.272 573.649 54.112 574.257 53.792C574.881 53.456 575.377 52.976 575.745 52.352C576.129 51.712 576.321 50.944 576.321 50.048C576.321 49.136 576.129 48.36 575.745 47.72C575.377 47.08 574.881 46.592 574.257 46.256C573.649 45.92 572.985 45.752 572.265 45.752C571.545 45.752 570.873 45.92 570.249 46.256C569.625 46.576 569.121 47.056 568.737 47.696C568.353 48.336 568.161 49.12 568.161 50.048C568.161 50.944 568.345 51.712 568.713 52.352C569.097 52.976 569.601 53.456 570.225 53.792C570.849 54.112 571.529 54.272 572.265 54.272ZM585.979 56.24C584.955 56.24 584.019 55.976 583.171 55.448C582.323 54.92 581.651 54.192 581.155 53.264C580.659 52.32 580.411 51.24 580.411 50.024C580.411 48.808 580.659 47.736 581.155 46.808C581.667 45.864 582.363 45.128 583.243 44.6C584.123 44.056 585.107 43.784 586.195 43.784C587.395 43.784 588.323 44.064 588.979 44.624C589.651 45.184 590.115 45.936 590.371 46.88C590.643 47.824 590.779 48.872 590.779 50.024C590.779 50.664 590.699 51.344 590.539 52.064C590.379 52.784 590.123 53.464 589.771 54.104C589.419 54.744 588.931 55.264 588.307 55.664C587.683 56.048 586.907 56.24 585.979 56.24ZM586.627 54.248C587.475 54.248 588.187 54.064 588.763 53.696C589.355 53.312 589.795 52.8 590.083 52.16C590.371 51.52 590.515 50.808 590.515 50.024C590.515 49.176 590.363 48.432 590.059 47.792C589.771 47.152 589.331 46.656 588.739 46.304C588.163 45.952 587.459 45.776 586.627 45.776C585.379 45.776 584.411 46.176 583.723 46.976C583.051 47.776 582.715 48.792 582.715 50.024C582.715 50.856 582.883 51.592 583.219 52.232C583.555 52.856 584.011 53.352 584.587 53.72C585.179 54.072 585.859 54.248 586.627 54.248ZM590.515 44.024H592.819V56H590.707C590.707 56 590.691 55.856 590.659 55.568C590.627 55.264 590.595 54.904 590.563 54.488C590.531 54.072 590.515 53.704 590.515 53.384V44.024ZM594.985 44.024H602.737V46.016H594.985V44.024ZM597.721 40.856H600.001V56H597.721V40.856ZM607.678 39.08V41.552H604.822V39.08H607.678ZM605.11 44.024H607.39V56H605.11V44.024ZM610.637 44.024H612.941V56H610.637V44.024ZM617.501 43.784C618.173 43.784 618.781 43.88 619.325 44.072C619.869 44.264 620.333 44.552 620.717 44.936C621.101 45.304 621.397 45.768 621.605 46.328C621.829 46.872 621.941 47.496 621.941 48.2V56H619.661V48.704C619.661 47.76 619.429 47.056 618.965 46.592C618.517 46.112 617.829 45.872 616.901 45.872C616.181 45.872 615.525 46.04 614.933 46.376C614.341 46.712 613.853 47.16 613.469 47.72C613.101 48.264 612.877 48.88 612.797 49.568L612.773 48.248C612.853 47.608 613.021 47.016 613.277 46.472C613.549 45.928 613.885 45.456 614.285 45.056C614.701 44.64 615.181 44.328 615.725 44.12C616.269 43.896 616.861 43.784 617.501 43.784ZM629.781 54.128C628.789 54.128 627.877 53.928 627.045 53.528C626.213 53.128 625.549 52.544 625.053 51.776C624.573 51.008 624.333 50.08 624.333 48.992C624.333 47.92 624.573 47 625.053 46.232C625.533 45.448 626.181 44.848 626.997 44.432C627.829 44 628.757 43.784 629.781 43.784C630.085 43.784 630.373 43.808 630.645 43.856C630.917 43.888 631.181 43.944 631.437 44.024H636.669V46.184C635.949 46.184 635.221 46.064 634.485 45.824C633.765 45.584 633.133 45.328 632.589 45.056L632.517 44.936C633.061 45.224 633.533 45.576 633.933 45.992C634.333 46.392 634.637 46.848 634.845 47.36C635.069 47.856 635.181 48.416 635.181 49.04C635.181 50.096 634.941 51.008 634.461 51.776C633.997 52.544 633.349 53.128 632.517 53.528C631.701 53.928 630.789 54.128 629.781 54.128ZM633.453 60.848V60.296C633.453 59.48 633.229 58.896 632.781 58.544C632.333 58.192 631.677 58.016 630.813 58.016H628.005C627.413 58.016 626.909 57.968 626.493 57.872C626.077 57.776 625.733 57.632 625.461 57.44C625.189 57.264 624.989 57.04 624.861 56.768C624.733 56.512 624.669 56.224 624.669 55.904C624.669 55.28 624.861 54.808 625.245 54.488C625.629 54.168 626.117 53.968 626.709 53.888C627.301 53.792 627.901 53.784 628.509 53.864L629.781 54.128C628.869 54.176 628.173 54.264 627.693 54.392C627.213 54.52 626.973 54.792 626.973 55.208C626.973 55.448 627.069 55.64 627.261 55.784C627.453 55.928 627.725 56 628.077 56H631.005C631.917 56 632.725 56.112 633.429 56.336C634.149 56.576 634.709 56.968 635.109 57.512C635.525 58.072 635.733 58.832 635.733 59.792V60.848H633.453ZM629.781 52.184C630.357 52.184 630.877 52.064 631.341 51.824C631.821 51.568 632.205 51.208 632.493 50.744C632.781 50.264 632.925 49.688 632.925 49.016C632.925 48.328 632.781 47.744 632.493 47.264C632.221 46.768 631.845 46.4 631.365 46.16C630.885 45.904 630.357 45.776 629.781 45.776C629.205 45.776 628.669 45.904 628.173 46.16C627.693 46.4 627.309 46.76 627.021 47.24C626.733 47.72 626.589 48.312 626.589 49.016C626.589 49.688 626.733 50.264 627.021 50.744C627.309 51.208 627.693 51.568 628.173 51.824C628.653 52.064 629.189 52.184 629.781 52.184ZM650.969 56.264C650.041 56.264 649.265 56.064 648.641 55.664C648.017 55.264 647.529 54.744 647.177 54.104C646.825 53.464 646.569 52.784 646.409 52.064C646.249 51.344 646.169 50.664 646.169 50.024C646.169 49.16 646.241 48.352 646.385 47.6C646.545 46.848 646.801 46.184 647.153 45.608C647.505 45.032 647.993 44.584 648.617 44.264C649.241 43.944 650.025 43.784 650.969 43.784C652.009 43.784 652.945 44.056 653.777 44.6C654.609 45.128 655.273 45.864 655.769 46.808C656.281 47.752 656.537 48.824 656.537 50.024C656.537 51.256 656.281 52.344 655.769 53.288C655.257 54.216 654.577 54.944 653.729 55.472C652.897 56 651.977 56.264 650.969 56.264ZM650.321 54.248C651.089 54.248 651.769 54.072 652.361 53.72C652.953 53.352 653.409 52.856 653.729 52.232C654.065 51.592 654.233 50.856 654.233 50.024C654.233 48.792 653.889 47.776 653.201 46.976C652.529 46.176 651.569 45.776 650.321 45.776C649.569 45.776 648.897 45.952 648.305 46.304C647.729 46.656 647.273 47.152 646.937 47.792C646.601 48.432 646.433 49.176 646.433 50.024C646.433 50.824 646.577 51.544 646.865 52.184C647.169 52.808 647.609 53.312 648.185 53.696C648.761 54.064 649.473 54.248 650.321 54.248ZM644.129 44.024H646.337L646.433 46.736V60.8H644.129V44.024ZM663.886 56.24C662.862 56.24 661.926 55.976 661.078 55.448C660.23 54.92 659.558 54.192 659.062 53.264C658.566 52.32 658.318 51.24 658.318 50.024C658.318 48.808 658.566 47.736 659.062 46.808C659.574 45.864 660.27 45.128 661.15 44.6C662.03 44.056 663.014 43.784 664.102 43.784C665.302 43.784 666.23 44.064 666.886 44.624C667.558 45.184 668.022 45.936 668.278 46.88C668.55 47.824 668.686 48.872 668.686 50.024C668.686 50.664 668.606 51.344 668.446 52.064C668.286 52.784 668.03 53.464 667.678 54.104C667.326 54.744 666.838 55.264 666.214 55.664C665.59 56.048 664.814 56.24 663.886 56.24ZM664.534 54.248C665.382 54.248 666.094 54.064 666.67 53.696C667.262 53.312 667.702 52.8 667.99 52.16C668.278 51.52 668.422 50.808 668.422 50.024C668.422 49.176 668.27 48.432 667.966 47.792C667.678 47.152 667.238 46.656 666.646 46.304C666.07 45.952 665.366 45.776 664.534 45.776C663.286 45.776 662.318 46.176 661.63 46.976C660.958 47.776 660.622 48.792 660.622 50.024C660.622 50.856 660.79 51.592 661.126 52.232C661.462 52.856 661.918 53.352 662.494 53.72C663.086 54.072 663.766 54.248 664.534 54.248ZM668.422 44.024H670.726V56H668.614C668.614 56 668.598 55.856 668.566 55.568C668.534 55.264 668.502 54.904 668.47 54.488C668.438 54.072 668.422 53.704 668.422 53.384V44.024ZM685.467 51.44C685.371 52.432 685.051 53.296 684.507 54.032C683.979 54.752 683.283 55.304 682.419 55.688C681.555 56.072 680.595 56.264 679.539 56.264C678.371 56.264 677.299 56.024 676.323 55.544C675.347 55.048 674.563 54.336 673.971 53.408C673.395 52.464 673.107 51.344 673.107 50.048C673.107 48.736 673.395 47.616 673.971 46.688C674.563 45.744 675.347 45.024 676.323 44.528C677.299 44.032 678.371 43.784 679.539 43.784C680.595 43.784 681.547 43.976 682.395 44.36C683.243 44.744 683.939 45.296 684.483 46.016C685.027 46.72 685.355 47.568 685.467 48.56H683.379C683.107 47.696 682.619 47.016 681.915 46.52C681.227 46.008 680.435 45.752 679.539 45.752C678.803 45.752 678.115 45.92 677.475 46.256C676.851 46.592 676.347 47.08 675.963 47.72C675.595 48.344 675.411 49.12 675.411 50.048C675.411 50.944 675.595 51.712 675.963 52.352C676.347 52.976 676.851 53.456 677.475 53.792C678.099 54.112 678.787 54.272 679.539 54.272C680.563 54.272 681.395 54.024 682.035 53.528C682.675 53.032 683.131 52.336 683.403 51.44H685.467ZM688.152 39.224H690.432V56H688.152V39.224ZM699.072 44.024L692.736 50.048L692.784 48.608L699.528 56H696.624L690.48 49.304L695.88 44.024H699.072ZM705.651 56.24C704.627 56.24 703.691 55.976 702.843 55.448C701.995 54.92 701.323 54.192 700.827 53.264C700.331 52.32 700.083 51.24 700.083 50.024C700.083 48.808 700.331 47.736 700.827 46.808C701.339 45.864 702.035 45.128 702.915 44.6C703.795 44.056 704.779 43.784 705.867 43.784C707.067 43.784 707.995 44.064 708.651 44.624C709.323 45.184 709.787 45.936 710.043 46.88C710.315 47.824 710.451 48.872 710.451 50.024C710.451 50.664 710.371 51.344 710.211 52.064C710.051 52.784 709.795 53.464 709.443 54.104C709.091 54.744 708.603 55.264 707.979 55.664C707.355 56.048 706.579 56.24 705.651 56.24ZM706.299 54.248C707.147 54.248 707.859 54.064 708.435 53.696C709.027 53.312 709.467 52.8 709.755 52.16C710.043 51.52 710.187 50.808 710.187 50.024C710.187 49.176 710.035 48.432 709.731 47.792C709.443 47.152 709.003 46.656 708.411 46.304C707.835 45.952 707.131 45.776 706.299 45.776C705.051 45.776 704.083 46.176 703.395 46.976C702.723 47.776 702.387 48.792 702.387 50.024C702.387 50.856 702.555 51.592 702.891 52.232C703.227 52.856 703.683 53.352 704.259 53.72C704.851 54.072 705.531 54.248 706.299 54.248ZM710.187 44.024H712.491V56H710.379C710.379 56 710.363 55.856 710.331 55.568C710.299 55.264 710.267 54.904 710.235 54.488C710.203 54.072 710.187 53.704 710.187 53.384V44.024ZM720.32 54.128C719.328 54.128 718.416 53.928 717.584 53.528C716.752 53.128 716.088 52.544 715.592 51.776C715.112 51.008 714.872 50.08 714.872 48.992C714.872 47.92 715.112 47 715.592 46.232C716.072 45.448 716.72 44.848 717.536 44.432C718.368 44 719.296 43.784 720.32 43.784C720.624 43.784 720.912 43.808 721.184 43.856C721.456 43.888 721.72 43.944 721.976 44.024H727.208V46.184C726.488 46.184 725.76 46.064 725.024 45.824C724.304 45.584 723.672 45.328 723.128 45.056L723.056 44.936C723.6 45.224 724.072 45.576 724.472 45.992C724.872 46.392 725.176 46.848 725.384 47.36C725.608 47.856 725.72 48.416 725.72 49.04C725.72 50.096 725.48 51.008 725 51.776C724.536 52.544 723.888 53.128 723.056 53.528C722.24 53.928 721.328 54.128 720.32 54.128ZM723.992 60.848V60.296C723.992 59.48 723.768 58.896 723.32 58.544C722.872 58.192 722.216 58.016 721.352 58.016H718.544C717.952 58.016 717.448 57.968 717.032 57.872C716.616 57.776 716.272 57.632 716 57.44C715.728 57.264 715.528 57.04 715.4 56.768C715.272 56.512 715.208 56.224 715.208 55.904C715.208 55.28 715.4 54.808 715.784 54.488C716.168 54.168 716.656 53.968 717.248 53.888C717.84 53.792 718.44 53.784 719.048 53.864L720.32 54.128C719.408 54.176 718.712 54.264 718.232 54.392C717.752 54.52 717.512 54.792 717.512 55.208C717.512 55.448 717.608 55.64 717.8 55.784C717.992 55.928 718.264 56 718.616 56H721.544C722.456 56 723.264 56.112 723.968 56.336C724.688 56.576 725.248 56.968 725.648 57.512C726.064 58.072 726.272 58.832 726.272 59.792V60.848H723.992ZM720.32 52.184C720.896 52.184 721.416 52.064 721.88 51.824C722.36 51.568 722.744 51.208 723.032 50.744C723.32 50.264 723.464 49.688 723.464 49.016C723.464 48.328 723.32 47.744 723.032 47.264C722.76 46.768 722.384 46.4 721.904 46.16C721.424 45.904 720.896 45.776 720.32 45.776C719.744 45.776 719.208 45.904 718.712 46.16C718.232 46.4 717.848 46.76 717.56 47.24C717.272 47.72 717.128 48.312 717.128 49.016C717.128 49.688 717.272 50.264 717.56 50.744C717.848 51.208 718.232 51.568 718.712 51.824C719.192 52.064 719.728 52.184 720.32 52.184ZM738.565 52.112H740.749C740.621 52.896 740.317 53.6 739.837 54.224C739.357 54.848 738.725 55.344 737.941 55.712C737.157 56.08 736.237 56.264 735.181 56.264C733.933 56.264 732.821 56 731.845 55.472C730.869 54.944 730.101 54.216 729.541 53.288C728.981 52.36 728.701 51.28 728.701 50.048C728.701 48.8 728.973 47.712 729.517 46.784C730.061 45.84 730.813 45.104 731.773 44.576C732.733 44.048 733.829 43.784 735.061 43.784C736.357 43.784 737.445 44.04 738.325 44.552C739.205 45.064 739.853 45.824 740.269 46.832C740.701 47.824 740.877 49.064 740.797 50.552H730.98C731.061 51.272 731.277 51.912 731.629 52.472C731.997 53.032 732.477 53.472 733.069 53.792C733.677 54.112 734.373 54.272 735.157 54.272C736.037 54.272 736.773 54.072 737.365 53.672C737.957 53.272 738.357 52.752 738.565 52.112ZM735.085 45.752C734.045 45.752 733.181 46.032 732.493 46.592C731.805 47.136 731.349 47.864 731.125 48.776H738.493C738.429 47.8 738.077 47.056 737.437 46.544C736.797 46.016 736.013 45.752 735.085 45.752ZM755.744 56.24C754.8 56.24 754.016 56.048 753.392 55.664C752.784 55.264 752.296 54.744 751.928 54.104C751.576 53.464 751.32 52.784 751.16 52.064C751 51.344 750.92 50.664 750.92 50.024C750.92 49.16 750.992 48.352 751.136 47.6C751.296 46.848 751.552 46.184 751.904 45.608C752.256 45.032 752.744 44.584 753.368 44.264C753.992 43.944 754.784 43.784 755.744 43.784C756.816 43.784 757.768 44.056 758.6 44.6C759.448 45.128 760.112 45.864 760.592 46.808C761.072 47.736 761.312 48.808 761.312 50.024C761.312 51.24 761.064 52.32 760.568 53.264C760.072 54.192 759.4 54.92 758.552 55.448C757.72 55.976 756.784 56.24 755.744 56.24ZM755.096 54.248C755.864 54.248 756.536 54.072 757.112 53.72C757.704 53.352 758.16 52.856 758.48 52.232C758.816 51.592 758.984 50.856 758.984 50.024C758.984 48.792 758.64 47.776 757.952 46.976C757.28 46.176 756.328 45.776 755.096 45.776C754.264 45.776 753.552 45.952 752.96 46.304C752.384 46.656 751.944 47.152 751.64 47.792C751.336 48.432 751.184 49.176 751.184 50.024C751.184 50.808 751.328 51.52 751.616 52.16C751.92 52.8 752.36 53.312 752.936 53.696C753.528 54.064 754.248 54.248 755.096 54.248ZM751.184 39.224V53.384C751.184 53.752 751.16 54.192 751.112 54.704C751.08 55.216 751.048 55.648 751.016 56H748.904V39.224H751.184ZM768.628 56.24C767.604 56.24 766.668 55.976 765.82 55.448C764.972 54.92 764.3 54.192 763.804 53.264C763.308 52.32 763.06 51.24 763.06 50.024C763.06 48.808 763.308 47.736 763.804 46.808C764.316 45.864 765.012 45.128 765.892 44.6C766.772 44.056 767.756 43.784 768.844 43.784C770.044 43.784 770.972 44.064 771.628 44.624C772.3 45.184 772.764 45.936 773.02 46.88C773.292 47.824 773.428 48.872 773.428 50.024C773.428 50.664 773.348 51.344 773.188 52.064C773.028 52.784 772.772 53.464 772.42 54.104C772.068 54.744 771.58 55.264 770.956 55.664C770.332 56.048 769.556 56.24 768.628 56.24ZM769.276 54.248C770.124 54.248 770.836 54.064 771.412 53.696C772.004 53.312 772.444 52.8 772.732 52.16C773.02 51.52 773.164 50.808 773.164 50.024C773.164 49.176 773.012 48.432 772.708 47.792C772.42 47.152 771.98 46.656 771.388 46.304C770.812 45.952 770.108 45.776 769.276 45.776C768.028 45.776 767.06 46.176 766.372 46.976C765.7 47.776 765.364 48.792 765.364 50.024C765.364 50.856 765.532 51.592 765.868 52.232C766.204 52.856 766.66 53.352 767.236 53.72C767.828 54.072 768.508 54.248 769.276 54.248ZM773.164 44.024H775.468V56H773.356C773.356 56 773.34 55.856 773.308 55.568C773.276 55.264 773.244 54.904 773.212 54.488C773.18 54.072 773.164 53.704 773.164 53.384V44.024ZM777.945 52.112H780.057C780.137 52.752 780.425 53.28 780.921 53.696C781.417 54.096 782.113 54.296 783.009 54.296C783.585 54.296 784.033 54.232 784.353 54.104C784.673 53.96 784.897 53.768 785.025 53.528C785.169 53.288 785.241 53.024 785.241 52.736C785.241 52.368 785.145 52.088 784.953 51.896C784.761 51.688 784.489 51.52 784.137 51.392C783.785 51.248 783.369 51.112 782.889 50.984C782.361 50.84 781.833 50.672 781.305 50.48C780.777 50.288 780.289 50.056 779.841 49.784C779.409 49.512 779.057 49.176 778.785 48.776C778.529 48.36 778.401 47.856 778.401 47.264C778.401 46.768 778.505 46.304 778.713 45.872C778.937 45.44 779.249 45.072 779.649 44.768C780.065 44.448 780.545 44.208 781.089 44.048C781.633 43.872 782.233 43.784 782.889 43.784C783.801 43.784 784.569 43.952 785.193 44.288C785.817 44.608 786.289 45.064 786.609 45.656C786.945 46.248 787.121 46.928 787.137 47.696H785.121C785.009 47.024 784.777 46.536 784.425 46.232C784.073 45.912 783.545 45.752 782.841 45.752C782.153 45.752 781.625 45.888 781.257 46.16C780.889 46.432 780.705 46.8 780.705 47.264C780.705 47.616 780.833 47.904 781.089 48.128C781.345 48.336 781.689 48.52 782.121 48.68C782.553 48.84 783.041 49.008 783.585 49.184C784.097 49.36 784.585 49.544 785.049 49.736C785.529 49.912 785.953 50.128 786.321 50.384C786.705 50.624 787.001 50.944 787.209 51.344C787.433 51.728 787.545 52.208 787.545 52.784C787.545 53.488 787.369 54.104 787.017 54.632C786.665 55.144 786.153 55.544 785.481 55.832C784.825 56.12 784.025 56.264 783.081 56.264C782.217 56.264 781.481 56.16 780.873 55.952C780.281 55.744 779.777 55.472 779.361 55.136C778.961 54.8 778.649 54.448 778.425 54.08C778.217 53.696 778.073 53.328 777.993 52.976C777.929 52.624 777.913 52.336 777.945 52.112ZM799.197 52.112H801.381C801.253 52.896 800.949 53.6 800.469 54.224C799.989 54.848 799.357 55.344 798.573 55.712C797.789 56.08 796.869 56.264 795.813 56.264C794.565 56.264 793.453 56 792.477 55.472C791.501 54.944 790.733 54.216 790.173 53.288C789.613 52.36 789.333 51.28 789.333 50.048C789.333 48.8 789.605 47.712 790.149 46.784C790.693 45.84 791.445 45.104 792.405 44.576C793.365 44.048 794.461 43.784 795.693 43.784C796.989 43.784 798.077 44.04 798.957 44.552C799.837 45.064 800.485 45.824 800.901 46.832C801.333 47.824 801.509 49.064 801.429 50.552H791.613C791.693 51.272 791.909 51.912 792.261 52.472C792.629 53.032 793.109 53.472 793.701 53.792C794.309 54.112 795.005 54.272 795.789 54.272C796.669 54.272 797.405 54.072 797.997 53.672C798.589 53.272 798.989 52.752 799.197 52.112ZM795.717 45.752C794.677 45.752 793.813 46.032 793.125 46.592C792.437 47.136 791.981 47.864 791.757 48.776H799.125C799.061 47.8 798.709 47.056 798.069 46.544C797.429 46.016 796.645 45.752 795.717 45.752ZM808.8 56.24C807.76 56.24 806.816 55.976 805.968 55.448C805.12 54.92 804.448 54.192 803.952 53.264C803.472 52.32 803.232 51.24 803.232 50.024C803.232 48.808 803.472 47.736 803.952 46.808C804.432 45.864 805.088 45.128 805.92 44.6C806.752 44.056 807.712 43.784 808.8 43.784C809.744 43.784 810.528 43.944 811.152 44.264C811.776 44.584 812.264 45.032 812.616 45.608C812.968 46.184 813.216 46.848 813.36 47.6C813.52 48.352 813.6 49.16 813.6 50.024C813.6 50.664 813.52 51.344 813.36 52.064C813.2 52.784 812.944 53.464 812.592 54.104C812.24 54.744 811.752 55.264 811.128 55.664C810.504 56.048 809.728 56.24 808.8 56.24ZM809.448 54.248C810.296 54.248 811.008 54.064 811.584 53.696C812.176 53.312 812.616 52.8 812.904 52.16C813.192 51.52 813.336 50.808 813.336 50.024C813.336 49.176 813.184 48.432 812.88 47.792C812.592 47.152 812.152 46.656 811.56 46.304C810.984 45.952 810.28 45.776 809.448 45.776C808.2 45.776 807.232 46.176 806.544 46.976C805.872 47.776 805.536 48.792 805.536 50.024C805.536 50.856 805.704 51.592 806.04 52.232C806.376 52.856 806.832 53.352 807.408 53.72C808 54.072 808.68 54.248 809.448 54.248ZM813.336 39.224H815.64V56H813.528C813.48 55.648 813.432 55.216 813.384 54.704C813.352 54.192 813.336 53.752 813.336 53.384V39.224ZM830.124 56.264C828.956 56.264 827.884 56.016 826.908 55.52C825.932 55.024 825.156 54.312 824.58 53.384C824.004 52.456 823.716 51.344 823.716 50.048C823.716 48.736 824.004 47.616 824.58 46.688C825.156 45.744 825.932 45.024 826.908 44.528C827.884 44.032 828.956 43.784 830.124 43.784C831.292 43.784 832.356 44.032 833.316 44.528C834.276 45.024 835.044 45.744 835.62 46.688C836.196 47.616 836.484 48.736 836.484 50.048C836.484 51.344 836.196 52.456 835.62 53.384C835.044 54.312 834.276 55.024 833.316 55.52C832.356 56.016 831.292 56.264 830.124 56.264ZM830.124 54.272C830.844 54.272 831.508 54.112 832.116 53.792C832.74 53.456 833.236 52.976 833.604 52.352C833.988 51.712 834.18 50.944 834.18 50.048C834.18 49.136 833.988 48.36 833.604 47.72C833.236 47.08 832.74 46.592 832.116 46.256C831.508 45.92 830.844 45.752 830.124 45.752C829.404 45.752 828.732 45.92 828.108 46.256C827.484 46.576 826.98 47.056 826.596 47.696C826.212 48.336 826.02 49.12 826.02 50.048C826.02 50.944 826.204 51.712 826.572 52.352C826.956 52.976 827.46 53.456 828.084 53.792C828.708 54.112 829.388 54.272 830.124 54.272ZM838.895 44.024H841.199V56H838.895V44.024ZM845.759 43.784C846.431 43.784 847.039 43.88 847.583 44.072C848.127 44.264 848.591 44.552 848.975 44.936C849.359 45.304 849.655 45.768 849.863 46.328C850.087 46.872 850.199 47.496 850.199 48.2V56H847.919V48.704C847.919 47.76 847.687 47.056 847.223 46.592C846.775 46.112 846.087 45.872 845.159 45.872C844.439 45.872 843.783 46.04 843.191 46.376C842.599 46.712 842.111 47.16 841.727 47.72C841.359 48.264 841.135 48.88 841.055 49.568L841.031 48.248C841.111 47.608 841.279 47.016 841.535 46.472C841.807 45.928 842.143 45.456 842.543 45.056C842.959 44.64 843.439 44.328 843.983 44.12C844.527 43.896 845.119 43.784 845.759 43.784ZM857.409 44.024H859.857L864.441 55.52L862.449 56L857.409 44.024ZM869.625 44.024L862.449 60.8H860.025L863.121 54.296L867.201 44.024H869.625ZM876.952 56.264C875.784 56.264 874.712 56.016 873.736 55.52C872.76 55.024 871.984 54.312 871.408 53.384C870.832 52.456 870.544 51.344 870.544 50.048C870.544 48.736 870.832 47.616 871.408 46.688C871.984 45.744 872.76 45.024 873.736 44.528C874.712 44.032 875.784 43.784 876.952 43.784C878.12 43.784 879.184 44.032 880.144 44.528C881.104 45.024 881.872 45.744 882.448 46.688C883.024 47.616 883.312 48.736 883.312 50.048C883.312 51.344 883.024 52.456 882.448 53.384C881.872 54.312 881.104 55.024 880.144 55.52C879.184 56.016 878.12 56.264 876.952 56.264ZM876.952 54.272C877.672 54.272 878.336 54.112 878.944 53.792C879.568 53.456 880.064 52.976 880.432 52.352C880.816 51.712 881.008 50.944 881.008 50.048C881.008 49.136 880.816 48.36 880.432 47.72C880.064 47.08 879.568 46.592 878.944 46.256C878.336 45.92 877.672 45.752 876.952 45.752C876.232 45.752 875.56 45.92 874.936 46.256C874.312 46.576 873.808 47.056 873.424 47.696C873.04 48.336 872.848 49.12 872.848 50.048C872.848 50.944 873.032 51.712 873.4 52.352C873.784 52.976 874.288 53.456 874.912 53.792C875.536 54.112 876.216 54.272 876.952 54.272ZM897.027 56H894.747V44.024H897.027V56ZM894.867 50.36L894.891 51.08C894.875 51.288 894.819 51.6 894.723 52.016C894.643 52.416 894.499 52.856 894.291 53.336C894.099 53.816 893.827 54.28 893.475 54.728C893.139 55.176 892.707 55.544 892.179 55.832C891.651 56.12 891.011 56.264 890.259 56.264C889.747 56.264 889.219 56.192 888.675 56.048C888.147 55.904 887.659 55.664 887.211 55.328C886.763 54.992 886.403 54.536 886.131 53.96C885.859 53.368 885.723 52.632 885.723 51.752V44.024H888.027V51.272C888.027 52.008 888.139 52.584 888.363 53C888.603 53.416 888.939 53.712 889.371 53.888C889.803 54.064 890.291 54.152 890.835 54.152C891.667 54.152 892.363 53.952 892.923 53.552C893.499 53.136 893.947 52.64 894.267 52.064C894.587 51.472 894.787 50.904 894.867 50.36ZM900.043 44.024H902.347V56H900.043V44.024ZM906.403 46.064C905.571 46.064 904.859 46.256 904.267 46.64C903.691 47.024 903.227 47.496 902.875 48.056C902.539 48.616 902.315 49.152 902.203 49.664L902.179 48.296C902.195 48.136 902.235 47.888 902.299 47.552C902.379 47.2 902.515 46.808 902.707 46.376C902.899 45.944 903.155 45.536 903.475 45.152C903.795 44.752 904.195 44.424 904.675 44.168C905.155 43.912 905.731 43.784 906.403 43.784V46.064ZM913.754 44.024H916.058V56H913.754V44.024ZM920.618 43.784C921.29 43.784 921.898 43.88 922.442 44.072C922.986 44.264 923.45 44.552 923.834 44.936C924.218 45.304 924.514 45.768 924.722 46.328C924.946 46.872 925.058 47.496 925.058 48.2V56H922.778V48.704C922.778 47.76 922.546 47.056 922.082 46.592C921.634 46.112 920.946 45.872 920.018 45.872C919.298 45.872 918.642 46.04 918.05 46.376C917.458 46.712 916.97 47.16 916.586 47.72C916.218 48.264 915.994 48.88 915.914 49.568L915.89 48.248C915.97 47.608 916.138 47.016 916.394 46.472C916.666 45.928 917.002 45.456 917.402 45.056C917.818 44.64 918.298 44.328 918.842 44.12C919.386 43.896 919.978 43.784 920.618 43.784ZM937.315 52.112H939.499C939.371 52.896 939.067 53.6 938.587 54.224C938.107 54.848 937.475 55.344 936.691 55.712C935.907 56.08 934.987 56.264 933.931 56.264C932.683 56.264 931.571 56 930.595 55.472C929.619 54.944 928.851 54.216 928.291 53.288C927.731 52.36 927.451 51.28 927.451 50.048C927.451 48.8 927.723 47.712 928.267 46.784C928.811 45.84 929.563 45.104 930.523 44.576C931.483 44.048 932.579 43.784 933.811 43.784C935.107 43.784 936.195 44.04 937.075 44.552C937.955 45.064 938.603 45.824 939.019 46.832C939.451 47.824 939.627 49.064 939.547 50.552H929.73C929.811 51.272 930.027 51.912 930.379 52.472C930.747 53.032 931.227 53.472 931.819 53.792C932.427 54.112 933.123 54.272 933.907 54.272C934.787 54.272 935.523 54.072 936.115 53.672C936.707 53.272 937.107 52.752 937.315 52.112ZM933.835 45.752C932.795 45.752 931.931 46.032 931.243 46.592C930.555 47.136 930.099 47.864 929.875 48.776H937.243C937.179 47.8 936.827 47.056 936.187 46.544C935.547 46.016 934.763 45.752 933.835 45.752ZM951.213 52.112H953.397C953.269 52.896 952.965 53.6 952.485 54.224C952.005 54.848 951.373 55.344 950.589 55.712C949.805 56.08 948.885 56.264 947.829 56.264C946.581 56.264 945.469 56 944.493 55.472C943.517 54.944 942.749 54.216 942.189 53.288C941.629 52.36 941.349 51.28 941.349 50.048C941.349 48.8 941.621 47.712 942.165 46.784C942.709 45.84 943.461 45.104 944.421 44.576C945.381 44.048 946.477 43.784 947.709 43.784C949.005 43.784 950.093 44.04 950.973 44.552C951.853 45.064 952.501 45.824 952.917 46.832C953.349 47.824 953.525 49.064 953.445 50.552H943.629C943.709 51.272 943.925 51.912 944.277 52.472C944.645 53.032 945.125 53.472 945.717 53.792C946.325 54.112 947.021 54.272 947.805 54.272C948.685 54.272 949.421 54.072 950.013 53.672C950.605 53.272 951.005 52.752 951.213 52.112ZM947.733 45.752C946.693 45.752 945.829 46.032 945.141 46.592C944.453 47.136 943.997 47.864 943.773 48.776H951.141C951.077 47.8 950.725 47.056 950.085 46.544C949.445 46.016 948.661 45.752 947.733 45.752ZM960.815 56.24C959.775 56.24 958.831 55.976 957.983 55.448C957.135 54.92 956.463 54.192 955.967 53.264C955.487 52.32 955.247 51.24 955.247 50.024C955.247 48.808 955.487 47.736 955.967 46.808C956.447 45.864 957.103 45.128 957.935 44.6C958.767 44.056 959.727 43.784 960.815 43.784C961.759 43.784 962.543 43.944 963.167 44.264C963.791 44.584 964.279 45.032 964.631 45.608C964.983 46.184 965.231 46.848 965.375 47.6C965.535 48.352 965.615 49.16 965.615 50.024C965.615 50.664 965.535 51.344 965.375 52.064C965.215 52.784 964.959 53.464 964.607 54.104C964.255 54.744 963.767 55.264 963.143 55.664C962.519 56.048 961.743 56.24 960.815 56.24ZM961.463 54.248C962.311 54.248 963.023 54.064 963.599 53.696C964.191 53.312 964.631 52.8 964.919 52.16C965.207 51.52 965.351 50.808 965.351 50.024C965.351 49.176 965.199 48.432 964.895 47.792C964.607 47.152 964.167 46.656 963.575 46.304C962.999 45.952 962.295 45.776 961.463 45.776C960.215 45.776 959.247 46.176 958.559 46.976C957.887 47.776 957.551 48.792 957.551 50.024C957.551 50.856 957.719 51.592 958.055 52.232C958.391 52.856 958.847 53.352 959.423 53.72C960.015 54.072 960.695 54.248 961.463 54.248ZM965.351 39.224H967.655V56H965.543C965.495 55.648 965.447 55.216 965.399 54.704C965.367 54.192 965.351 53.752 965.351 53.384V39.224ZM970.554 52.112H972.666C972.746 52.752 973.034 53.28 973.53 53.696C974.026 54.096 974.722 54.296 975.618 54.296C976.194 54.296 976.642 54.232 976.962 54.104C977.282 53.96 977.506 53.768 977.634 53.528C977.778 53.288 977.85 53.024 977.85 52.736C977.85 52.368 977.754 52.088 977.562 51.896C977.37 51.688 977.098 51.52 976.746 51.392C976.394 51.248 975.978 51.112 975.498 50.984C974.97 50.84 974.442 50.672 973.914 50.48C973.386 50.288 972.898 50.056 972.45 49.784C972.018 49.512 971.666 49.176 971.394 48.776C971.138 48.36 971.01 47.856 971.01 47.264C971.01 46.768 971.114 46.304 971.322 45.872C971.546 45.44 971.858 45.072 972.258 44.768C972.674 44.448 973.154 44.208 973.698 44.048C974.242 43.872 974.842 43.784 975.498 43.784C976.41 43.784 977.178 43.952 977.802 44.288C978.426 44.608 978.898 45.064 979.218 45.656C979.554 46.248 979.73 46.928 979.746 47.696H977.73C977.618 47.024 977.386 46.536 977.034 46.232C976.682 45.912 976.154 45.752 975.45 45.752C974.762 45.752 974.234 45.888 973.866 46.16C973.498 46.432 973.314 46.8 973.314 47.264C973.314 47.616 973.442 47.904 973.698 48.128C973.954 48.336 974.298 48.52 974.73 48.68C975.162 48.84 975.65 49.008 976.194 49.184C976.706 49.36 977.194 49.544 977.658 49.736C978.138 49.912 978.562 50.128 978.93 50.384C979.314 50.624 979.61 50.944 979.818 51.344C980.042 51.728 980.154 52.208 980.154 52.784C980.154 53.488 979.978 54.104 979.626 54.632C979.274 55.144 978.762 55.544 978.09 55.832C977.434 56.12 976.634 56.264 975.69 56.264C974.826 56.264 974.09 56.16 973.482 55.952C972.89 55.744 972.386 55.472 971.97 55.136C971.57 54.8 971.258 54.448 971.034 54.08C970.826 53.696 970.682 53.328 970.602 52.976C970.538 52.624 970.522 52.336 970.554 52.112ZM985.423 53.528V56H982.567V53.528H985.423Z" fill="white"/>
</svg>
