<svg width="36" height="36" viewBox="0 0 36 36" fill="none" xmlns="http://www.w3.org/2000/svg">
<g clip-path="url(#clip0_545_2078)">
<path d="M20.8125 3.375H15.1875C14.7399 3.375 14.3107 3.19721 13.9943 2.88074C13.6778 2.56428 13.5 2.13505 13.5 1.6875C13.5 1.23995 13.6778 0.810725 13.9943 0.494257C14.3107 0.17779 14.7399 0 15.1875 0L20.8125 0C21.2601 0 21.6893 0.17779 22.0057 0.494257C22.3222 0.810725 22.5 1.23995 22.5 1.6875C22.5 2.13505 22.3222 2.56428 22.0057 2.88074C21.6893 3.19721 21.2601 3.375 20.8125 3.375ZM15.1875 1.125C15.0383 1.125 14.8952 1.18426 14.7898 1.28975C14.6843 1.39524 14.625 1.53832 14.625 1.6875C14.625 1.83668 14.6843 1.97976 14.7898 2.08525C14.8952 2.19074 15.0383 2.25 15.1875 2.25H20.8125C20.9617 2.25 21.1048 2.19074 21.2102 2.08525C21.3157 1.97976 21.375 1.83668 21.375 1.6875C21.375 1.53832 21.3157 1.39524 21.2102 1.28975C21.1048 1.18426 20.9617 1.125 20.8125 1.125H15.1875Z" fill="white"/>
<path d="M16.3125 2.8125H17.4375V5.625H16.3125V2.8125ZM18.5625 2.8125H19.6875V5.625H18.5625V2.8125Z" fill="white"/>
<path d="M18 34.875C14.9962 34.875 12.0599 33.9843 9.56228 32.3155C7.06471 30.6466 5.11809 28.2747 3.96859 25.4995C2.81908 22.7244 2.51832 19.6707 3.10433 16.7246C3.69034 13.7785 5.13681 11.0723 7.26082 8.94832C9.38483 6.82431 12.091 5.37784 15.0371 4.79183C17.9832 4.20582 21.0369 4.50658 23.812 5.65609C26.5872 6.80559 28.9591 8.75221 30.628 11.2498C32.2968 13.7474 33.1875 16.6837 33.1875 19.6875C33.183 23.7141 31.5815 27.5745 28.7343 30.4218C25.887 33.269 22.0266 34.8705 18 34.875ZM18 5.62501C15.2187 5.62501 12.4999 6.44976 10.1873 7.99497C7.87473 9.54017 6.07231 11.7364 5.00795 14.306C3.94359 16.8756 3.66511 19.7031 4.20771 22.431C4.75032 25.1588 6.08964 27.6645 8.05632 29.6312C10.023 31.5979 12.5287 32.9372 15.2565 33.4798C17.9844 34.0224 20.8119 33.7439 23.3815 32.6796C25.9511 31.6152 28.1473 29.8128 29.6925 27.5002C31.2378 25.1876 32.0625 22.4688 32.0625 19.6875C32.0583 15.9592 30.5754 12.3847 27.9391 9.74842C25.3028 7.11209 21.7283 5.62918 18 5.62501Z" fill="white"/>
<path d="M18 31.5C15.6637 31.5 13.3799 30.8072 11.4373 29.5092C9.49478 28.2113 7.98074 26.3664 7.08668 24.208C6.19262 22.0495 5.95869 19.6744 6.41448 17.383C6.87027 15.0916 7.9953 12.9868 9.64731 11.3348C11.2993 9.6828 13.4041 8.55777 15.6955 8.10198C17.9869 7.64619 20.362 7.88012 22.5205 8.77418C24.6789 9.66824 26.5238 11.1823 27.8217 13.1248C29.1197 15.0674 29.8125 17.3512 29.8125 19.6875C29.8089 22.8193 28.5633 25.8218 26.3488 28.0363C24.1343 30.2508 21.1318 31.4964 18 31.5ZM18 9.00001C15.8862 9.00001 13.8199 9.62682 12.0623 10.8012C10.3048 11.9755 8.93495 13.6447 8.12604 15.5976C7.31713 17.5505 7.10548 19.6994 7.51786 21.7725C7.93024 23.8457 8.94813 25.75 10.4428 27.2447C11.9375 28.7394 13.8418 29.7573 15.915 30.1696C17.9881 30.582 20.137 30.3704 22.0899 29.5615C24.0428 28.7526 25.712 27.3827 26.8863 25.6252C28.0607 23.8676 28.6875 21.8013 28.6875 19.6875C28.6844 16.854 27.5574 14.1374 25.5538 12.1338C23.5501 10.1301 20.8335 9.00313 18 9.00001Z" fill="white"/>
<path d="M18 21.9375C17.555 21.9375 17.12 21.8055 16.75 21.5583C16.38 21.3111 16.0916 20.9597 15.9213 20.5485C15.751 20.1374 15.7064 19.685 15.7932 19.2485C15.8801 18.8121 16.0943 18.4112 16.409 18.0965C16.7237 17.7818 17.1246 17.5676 17.561 17.4807C17.9975 17.3939 18.4499 17.4385 18.861 17.6088C19.2722 17.7791 19.6236 18.0675 19.8708 18.4375C20.118 18.8075 20.25 19.2425 20.25 19.6875C20.25 20.2842 20.0129 20.8565 19.591 21.2785C19.169 21.7004 18.5967 21.9375 18 21.9375ZM18 18.5625C17.7775 18.5625 17.56 18.6285 17.375 18.7521C17.19 18.8757 17.0458 19.0514 16.9606 19.257C16.8755 19.4625 16.8532 19.6888 16.8966 19.907C16.94 20.1252 17.0472 20.3257 17.2045 20.483C17.3618 20.6403 17.5623 20.7475 17.7805 20.7909C17.9988 20.8343 18.225 20.812 18.4305 20.7269C18.6361 20.6417 18.8118 20.4975 18.9354 20.3125C19.059 20.1275 19.125 19.91 19.125 19.6875C19.125 19.3891 19.0065 19.103 18.7955 18.892C18.5845 18.681 18.2984 18.5625 18 18.5625Z" fill="white"/>
<path d="M19.6856 18.5606H18.5606V13.4981C18.5606 13.3489 18.5013 13.2058 18.3958 13.1003C18.2903 12.9948 18.1472 12.9356 17.9981 12.9356C17.8489 12.9356 17.7058 12.9948 17.6003 13.1003C17.4948 13.2058 17.4356 13.3489 17.4356 13.4981V18.5606H16.3106V13.4981C16.3106 13.0505 16.4884 12.6213 16.8048 12.3048C17.1213 11.9884 17.5505 11.8106 17.9981 11.8106C18.4456 11.8106 18.8748 11.9884 19.1913 12.3048C19.5078 12.6213 19.6856 13.0505 19.6856 13.4981V18.5606ZM21.9356 25.3775C21.7051 25.3779 21.4767 25.3329 21.2637 25.2448C21.0506 25.1568 20.8571 25.0275 20.6941 24.8645L17.6004 21.7708L18.3958 20.9754L21.4895 24.0691C21.5481 24.1277 21.6176 24.1742 21.6942 24.2059C21.7707 24.2376 21.8527 24.2539 21.9356 24.2539C22.0184 24.2539 22.1004 24.2376 22.177 24.2059C22.2535 24.1742 22.323 24.1277 22.3816 24.0691C22.4402 24.0105 22.4867 23.941 22.5184 23.8645C22.5501 23.7879 22.5664 23.7059 22.5664 23.6231C22.5664 23.5402 22.5501 23.4582 22.5184 23.3817C22.4867 23.3051 22.4402 23.2356 22.3816 23.177L19.2879 20.0833L20.0833 19.2879L23.177 22.3816C23.4227 22.627 23.5901 22.9398 23.6579 23.2803C23.7258 23.6209 23.691 23.9739 23.5581 24.2947C23.4252 24.6155 23.2 24.8896 22.9112 25.0824C22.6224 25.2751 22.2828 25.3778 21.9356 25.3775ZM17.4356 8.43556H18.5606V10.6856H17.4356V8.43556ZM17.4356 28.6856H18.5606V30.9356H17.4356V28.6856ZM26.9981 19.1231H29.2481V20.2481H26.9981V19.1231ZM6.74806 19.1231H8.99806V20.2481H6.74806V19.1231ZM23.9606 12.9254L25.5513 11.3347L26.3467 12.1301L24.7554 13.7208L23.9606 12.9254ZM9.64156 27.2411L11.2329 25.6503L12.0283 26.4457L10.4369 28.0364L9.64156 27.2411ZM23.9589 26.444L24.7543 25.6486L26.3461 27.2399L25.5502 28.0353L23.9589 26.444ZM9.64325 12.1267L10.4386 11.3313L12.0294 12.9226L11.234 13.718L9.64325 12.1267ZM33.788 12.413C33.6388 12.413 33.4958 12.3537 33.3903 12.2482L25.4354 4.29331C25.33 4.18783 25.2707 4.04478 25.2707 3.89563C25.2707 3.74647 25.33 3.60342 25.4354 3.49794C26.0086 2.91706 26.691 2.45529 27.4433 2.13922C28.1957 1.82315 29.0031 1.65902 29.8192 1.65628C30.6352 1.65355 31.4437 1.81226 32.1982 2.12329C32.9526 2.43431 33.6381 2.8915 34.2151 3.46853C34.7921 4.04556 35.2493 4.73103 35.5603 5.48547C35.8714 6.23992 36.0301 7.04844 36.0273 7.86448C36.0246 8.68052 35.8605 9.48795 35.5444 10.2403C35.2283 10.9926 34.7666 11.675 34.1857 12.2482C34.1336 12.3006 34.0716 12.3422 34.0034 12.3704C33.9351 12.3987 33.8619 12.4132 33.788 12.413ZM26.6504 3.91756L33.7666 11.0332C34.5453 10.0603 34.9379 8.83446 34.8691 7.59024C34.8003 6.34602 34.2751 5.17087 33.3939 4.28976C32.5127 3.40865 31.3375 2.8835 30.0933 2.81482C28.8491 2.74615 27.6232 3.13879 26.6504 3.91756ZM2.20813 12.413C2.13423 12.4132 2.06103 12.3987 1.99277 12.3704C1.9245 12.3422 1.86253 12.3006 1.81044 12.2482C1.22956 11.675 0.767787 10.9926 0.451716 10.2403C0.135646 9.48795 -0.0284814 8.68052 -0.0312153 7.86448C-0.0339491 7.04844 0.124764 6.23992 0.435787 5.48547C0.74681 4.73103 1.204 4.04556 1.78103 3.46853C2.35806 2.8915 3.04353 2.43431 3.79798 2.12329C4.55242 1.81226 5.36094 1.65355 6.17698 1.65628C6.99302 1.65902 7.80045 1.82315 8.5528 2.13922C9.30515 2.45529 9.98754 2.91706 10.5607 3.49794C10.6661 3.60342 10.7254 3.74647 10.7254 3.89563C10.7254 4.04478 10.6661 4.18783 10.5607 4.29331L2.60582 12.2482C2.50035 12.3537 2.3573 12.413 2.20813 12.413ZM6.18556 2.81056C5.23214 2.81038 4.29803 3.07943 3.49078 3.58676C2.68353 4.09408 2.03596 4.81905 1.6226 5.67821C1.20924 6.53738 1.0469 7.49581 1.15427 8.44317C1.26164 9.39054 1.63435 10.2883 2.2295 11.0332L9.34569 3.91756C8.44997 3.19792 7.33456 2.80719 6.18556 2.81056Z" fill="white"/>
<path d="M4.663 9.397L5.45838 8.60163L7.14588 10.2891L6.3505 11.0845L4.663 9.397ZM6.913 7.14757L7.70838 6.35219L9.39588 8.03969L8.6005 8.83507L6.913 7.14757ZM26.5983 8.04194L28.2858 6.35444L29.0811 7.14925L27.3936 8.83675L26.5983 8.04194ZM28.8477 10.2919L30.5352 8.60444L31.3311 9.39925L29.6436 11.0868L28.8477 10.2919ZM34.7101 4.89757L33.9147 4.10219L34.642 3.37488L34.3124 3.04525L33.5851 3.77257L32.7897 2.97719L33.9147 1.85219C34.0202 1.74674 34.1632 1.6875 34.3124 1.6875C34.4615 1.6875 34.6046 1.74674 34.7101 1.85219L35.8351 2.97719C35.9405 3.08268 35.9998 3.22572 35.9998 3.37488C35.9998 3.52403 35.9405 3.66708 35.8351 3.77257L34.7101 4.89757ZM1.28969 4.89757L0.164692 3.77257C0.0592399 3.66708 0 3.52403 0 3.37488C0 3.22572 0.0592399 3.08268 0.164692 2.97719L1.28969 1.85219C1.39518 1.74674 1.53822 1.6875 1.68738 1.6875C1.83653 1.6875 1.97958 1.74674 2.08507 1.85219L3.21007 2.97719L2.41469 3.77257L1.68738 3.04525L1.35775 3.37488L2.08507 4.10219L1.28969 4.89757ZM6.74988 35.9999H4.49988C4.40399 35.9999 4.30968 35.9755 4.2259 35.9288C4.14213 35.8821 4.07167 35.8148 4.02123 35.7333C3.97079 35.6517 3.94203 35.5586 3.93769 35.4628C3.93336 35.367 3.95358 35.2717 3.99644 35.1859L6.80894 29.5609L7.81582 30.0638L5.41 34.8749H6.54175L10.3212 31.6354L11.0524 32.4893L7.11494 35.8643C7.01328 35.9515 6.88383 35.9996 6.74988 35.9999ZM31.4999 35.9999H29.2499C29.1155 35.9999 28.9857 35.9518 28.8837 35.8643L24.9462 32.4893L25.6774 31.6354L29.458 34.8749H30.5898L28.1839 30.0638L29.1908 29.5609L32.0033 35.1859C32.0462 35.2717 32.0664 35.367 32.0621 35.4628C32.0577 35.5586 32.029 35.6517 31.9785 35.7333C31.9281 35.8148 31.8576 35.8821 31.7739 35.9288C31.6901 35.9755 31.5958 35.9999 31.4999 35.9999Z" fill="white"/>
</g>
<defs>
<clipPath id="clip0_545_2078">
<rect width="36" height="36" fill="white"/>
</clipPath>
</defs>
</svg>
