<svg width="36" height="36" viewBox="0 0 36 36" fill="none" xmlns="http://www.w3.org/2000/svg">
<path d="M17.998 0.513672C20.7848 0.513672 23.4572 1.62135 25.4277 3.5918C27.3982 5.56231 28.5058 8.23476 28.5059 11.0215C28.5059 12.9952 27.9001 15.2441 26.9941 17.5068C26.0874 19.7714 24.8754 22.0609 23.6523 24.1201C21.2071 28.2369 18.7114 31.4443 18.5039 31.709C18.4439 31.7857 18.3669 31.848 18.2793 31.8906C18.1917 31.9333 18.0954 31.9551 17.998 31.9551H17.9893C17.8907 31.9536 17.7938 31.9297 17.7061 31.8848C17.6182 31.8398 17.5413 31.7754 17.4824 31.6963V31.6953C17.4553 31.6587 14.9664 28.2895 12.5117 24.1084C9.19263 18.4551 7.49023 14.0465 7.49023 11.0215C7.49028 8.23476 8.59784 5.56231 10.5684 3.5918C12.5389 1.62128 15.2113 0.513717 17.998 0.513672ZM17.998 1.79883C15.5528 1.80163 13.2085 2.77388 11.4795 4.50293C9.75035 6.23212 8.77803 8.57705 8.77539 11.0225C8.7755 12.4846 9.24081 14.2666 9.97656 16.166C10.7114 18.063 11.7108 20.0654 12.7686 21.9639C14.7963 25.6031 17.0337 28.8508 18.0117 30.2305C19.0001 28.9025 21.2285 25.8011 23.2461 22.2285C24.2996 20.363 25.2944 18.3718 26.0254 16.4395C26.757 14.5054 27.2216 12.6396 27.2217 11.0225L27.21 10.5645C27.0945 8.28575 26.1376 6.12395 24.5166 4.50293C22.7875 2.77391 20.4433 1.80154 17.998 1.79883Z" fill="white" stroke="white" stroke-width="0.3"/>
<path d="M23.0332 28.3037H23.0361L23.5088 28.3652C24.6509 28.5225 26.045 28.778 27.21 29.1807C27.8749 29.4105 28.476 29.6913 28.9131 30.0371C29.3508 30.3834 29.6414 30.8093 29.6416 31.3242C29.6416 31.9881 29.1487 32.5151 28.4189 32.9277C27.6833 33.3436 26.6629 33.6705 25.5098 33.9219C23.2006 34.4252 20.3163 34.6357 18 34.6357C15.6835 34.6357 12.7986 34.4253 10.4893 33.9219C9.33603 33.6705 8.31575 33.3436 7.58008 32.9277C6.85029 32.5151 6.35742 31.9881 6.35742 31.3242C6.35749 30.8679 6.58398 30.48 6.94141 30.1553C7.2971 29.8321 7.79213 29.5625 8.35938 29.3359C9.49483 28.8825 10.958 28.5864 12.2832 28.3945L12.2871 28.3936C12.4535 28.3738 12.621 28.4205 12.7539 28.5225C12.8868 28.6245 12.9751 28.7746 12.999 28.9404C13.0229 29.1062 12.9804 29.2748 12.8818 29.4102C12.7832 29.5455 12.6358 29.6369 12.4707 29.665L12.4668 29.666C10.6701 29.9259 9.44524 30.2696 8.67383 30.5967C8.28787 30.7603 8.02111 30.9175 7.85352 31.0537C7.76981 31.1218 7.71378 31.1814 7.68066 31.2305C7.64729 31.28 7.64166 31.311 7.6416 31.3242C7.6416 31.3547 7.6638 31.4211 7.76855 31.5215C7.86918 31.6179 8.02693 31.727 8.24707 31.8428C8.68681 32.074 9.35128 32.3196 10.2334 32.5439C11.9959 32.9922 14.6097 33.3515 17.999 33.3516C21.3886 33.3516 24.0031 32.9931 25.7656 32.5449C26.6475 32.3207 27.3112 32.0749 27.751 31.8438C27.9714 31.7278 28.1298 31.6181 28.2305 31.5215C28.335 31.4211 28.3564 31.3549 28.3564 31.3242C28.3564 31.3169 28.3522 31.2885 28.3164 31.2373C28.2813 31.1871 28.2227 31.1245 28.1328 31.0527C27.9528 30.9091 27.6627 30.74 27.2344 30.5635C26.3785 30.2109 24.9906 29.8381 22.8799 29.5791L22.876 29.5781C22.7102 29.5537 22.5606 29.4653 22.459 29.332C22.3573 29.1987 22.3116 29.0307 22.332 28.8643C22.3525 28.6978 22.4375 28.5462 22.5684 28.4414C22.6993 28.3366 22.8663 28.2873 23.0332 28.3037ZM16.8086 5.03711C17.9927 4.80162 19.2206 4.92272 20.3359 5.38477C21.4512 5.84683 22.4046 6.63002 23.0752 7.63379C23.7456 8.63747 24.1035 9.8174 24.1035 11.0244C24.1017 12.6427 23.4578 14.1946 22.3135 15.3389C21.1693 16.483 19.6181 17.127 18 17.1289H17.999C16.7919 17.1288 15.6121 16.7702 14.6084 16.0996C13.6047 15.4289 12.8224 14.4756 12.3604 13.3604C11.8984 12.245 11.7771 11.0171 12.0127 9.83301C12.2483 8.64909 12.83 7.56157 13.6836 6.70801C14.5373 5.85446 15.6246 5.27259 16.8086 5.03711ZM19.8438 6.57129C18.9633 6.20662 17.9943 6.11105 17.0596 6.29688C16.1247 6.4828 15.2658 6.94228 14.5918 7.61621C13.9177 8.29024 13.4585 9.14906 13.2725 10.084C13.0865 11.0189 13.1821 11.9884 13.5469 12.8691C13.9117 13.7496 14.5289 14.5027 15.3213 15.0322C16.1138 15.5618 17.0459 15.8437 17.999 15.8438C19.2768 15.8423 20.5017 15.3341 21.4053 14.4307C22.3089 13.5271 22.8178 12.3022 22.8193 11.0244C22.8193 10.0712 22.5364 9.13924 22.0068 8.34668C21.4773 7.55415 20.7243 6.93609 19.8438 6.57129Z" fill="white" stroke="white" stroke-width="0.3"/>
</svg>
