<svg width="36" height="36" viewBox="0 0 36 36" fill="none" xmlns="http://www.w3.org/2000/svg">
<g clip-path="url(#clip0_545_2074)">
<path d="M28.4525 22.3007C27.7155 21.5333 26.8265 21.123 25.8844 21.123C24.9498 21.123 24.0532 21.5257 23.2858 22.2931L20.8849 24.6865C20.6873 24.5801 20.4898 24.4813 20.2998 24.3826C20.0263 24.2458 19.7679 24.1166 19.5476 23.9799C17.2986 22.5514 15.2547 20.6899 13.2944 18.2813C12.3447 17.0809 11.7064 16.0703 11.2429 15.0446C11.866 14.4747 12.4434 13.8821 13.0057 13.3122C13.2184 13.0995 13.4312 12.8791 13.6439 12.6664C15.2395 11.0708 15.2395 9.00413 13.6439 7.40854L11.5696 5.33427C11.3341 5.09873 11.091 4.85559 10.863 4.61246C10.4071 4.14138 9.92847 3.6551 9.4346 3.19922C8.69759 2.46981 7.81621 2.08231 6.88925 2.08231C5.96229 2.08231 5.06572 2.46981 4.30592 3.19922L4.29072 3.21442L1.70738 5.82055C0.734835 6.7931 0.180177 7.97839 0.0586086 9.35364C-0.123745 11.5723 0.529687 13.6389 1.03116 14.9914C2.26204 18.3117 4.10077 21.3889 6.84366 24.6865C10.1716 28.6603 14.1758 31.7983 18.7498 34.0093C20.4974 34.8375 22.83 35.8176 25.4361 35.9848C25.5956 35.9924 25.7628 36 25.9148 36C27.6699 36 29.1439 35.3694 30.2988 34.1157C30.3064 34.1005 30.3216 34.0929 30.3292 34.0777C30.7243 33.599 31.1802 33.1659 31.6589 32.7024C31.9856 32.3909 32.3199 32.0642 32.6466 31.7223C33.3988 30.9397 33.7939 30.0279 33.7939 29.0934C33.7939 28.1512 33.3912 27.247 32.6238 26.4872L28.4525 22.3007ZM31.1726 30.3015C31.165 30.3091 31.165 30.3015 31.1726 30.3015C30.8763 30.6206 30.5724 30.9093 30.2456 31.2284C29.7518 31.6995 29.2503 32.1934 28.7792 32.748C28.0118 33.5686 27.1077 33.9561 25.9224 33.9561C25.8084 33.9561 25.6868 33.9561 25.5729 33.9485C23.3162 33.8042 21.2192 32.9228 19.6464 32.1706C15.3459 30.0887 11.5696 27.1331 8.43166 23.3872C5.84072 20.2644 4.10837 17.3772 2.96106 14.2772C2.25444 12.3853 1.99611 10.9112 2.11008 9.52079C2.18606 8.63182 2.52797 7.89481 3.15861 7.26418L5.74955 4.67324C6.12185 4.32373 6.51695 4.13378 6.90445 4.13378C7.38313 4.13378 7.77063 4.4225 8.01376 4.66564L8.03656 4.68844C8.50004 5.12153 8.94073 5.56981 9.40421 6.04849C9.63975 6.29163 9.88288 6.53476 10.126 6.7855L12.2003 8.85976C13.0057 9.66516 13.0057 10.4098 12.2003 11.2152C11.9799 11.4355 11.7672 11.6558 11.5469 11.8686C10.9086 12.522 10.3008 13.1299 9.63975 13.7225C9.62455 13.7377 9.60935 13.7453 9.60176 13.7605C8.94832 14.4139 9.06989 15.0522 9.20666 15.4853L9.22945 15.5536C9.76891 16.8605 10.5287 18.0914 11.6836 19.5578L11.6912 19.5654C13.7883 22.1487 15.9993 24.1622 18.4383 25.7046C18.7498 25.9022 19.0689 26.0617 19.3728 26.2137C19.6464 26.3505 19.9047 26.4796 20.125 26.6164C20.1554 26.6316 20.1858 26.6544 20.2162 26.6696C20.4746 26.7988 20.7177 26.8595 20.9684 26.8595C21.5991 26.8595 21.9942 26.4644 22.1233 26.3353L24.7219 23.7367C24.9802 23.4784 25.3905 23.1669 25.8692 23.1669C26.3403 23.1669 26.7278 23.4632 26.9633 23.7215L26.9785 23.7367L31.165 27.9233C31.9476 28.6983 31.9476 29.4961 31.1726 30.3015ZM19.4564 8.56344C21.4471 8.89776 23.2554 9.83991 24.6991 11.2835C26.1427 12.7272 27.0773 14.5355 27.4192 16.5262C27.5028 17.0277 27.9358 17.3772 28.4297 17.3772C28.4905 17.3772 28.5437 17.3696 28.6045 17.362C29.1667 17.2708 29.539 16.7389 29.4479 16.1767C29.0376 13.7681 27.8979 11.5723 26.1579 9.83232C24.4179 8.09236 22.2221 6.95266 19.8135 6.54236C19.2513 6.45118 18.727 6.82349 18.6282 7.37815C18.5295 7.9328 18.8942 8.47226 19.4564 8.56344ZM35.9594 15.8804C35.2832 11.9142 33.414 8.30511 30.542 5.43305C27.6699 2.56098 24.0608 0.691864 20.0947 0.0156379C19.54 -0.0831367 19.0157 0.296766 18.917 0.851423C18.8258 1.41368 19.1981 1.93794 19.7603 2.03672C23.301 2.63696 26.5302 4.31613 29.0983 6.87667C31.6665 9.44481 33.3381 12.674 33.9383 16.2147C34.0219 16.7161 34.455 17.0657 34.9488 17.0657C35.0096 17.0657 35.0628 17.0581 35.1236 17.0505C35.6783 16.9669 36.0582 16.435 35.9594 15.8804Z" fill="white"/>
</g>
<defs>
<clipPath id="clip0_545_2074">
<rect width="36" height="36" fill="white"/>
</clipPath>
</defs>
</svg>
